<?xml version="1.0" encoding="utf-8"?>
<svg xml:space="preserve" viewBox="0 0 100 100" y="0" x="0" xmlns="http://www.w3.org/2000/svg" id="Layer_1" version="1.1" style="height: 100%; width: 100%; background: none; shape-rendering: auto;" width="100px" height="100px"><g class="ldl-scale" style="transform-origin: 50% 50%; transform: rotate(0deg) scale(0.8, 0.8);"><g class="ldl-ani"><g class="ldl-layer"><g class="ldl-ani" style="transform-origin: 50px 50px; transform: scale(0.91); animation: 1.11111s linear 0.505051s 1 normal forwards running breath-47bc0690-a844-45a6-9043-4c9f7b97b37f;"><path d="M38.353 51.233c-.015.134-.027.269-.039.404.012-.135.024-.27.039-.404z" style="fill: rgb(0, 0, 0);"></path></g></g><g class="ldl-layer"><g class="ldl-ani" style="transform-origin: 50px 50px; transform: scale(0.91); animation: 1.11111s linear 0.454545s 1 normal forwards running breath-47bc0690-a844-45a6-9043-4c9f7b97b37f;"><path d="M38.685 49.224c-.024.111-.053.219-.075.331.022-.112.051-.22.075-.331z" style="fill: rgb(0, 0, 0);"></path></g></g><g class="ldl-layer"><g class="ldl-ani" style="transform-origin: 50px 50px; transform: scale(0.91); animation: 1.11111s linear 0.40404s 1 normal forwards running breath-47bc0690-a844-45a6-9043-4c9f7b97b37f;"><path d="M39.912 45.477c-.07.158-.142.316-.208.476.067-.16.138-.317.208-.476z" style="fill: rgb(0, 0, 0);"></path></g></g><g class="ldl-layer"><g class="ldl-ani" style="transform-origin: 50px 50px; transform: scale(0.91); animation: 1.11111s linear 0.353535s 1 normal forwards running breath-47bc0690-a844-45a6-9043-4c9f7b97b37f;"><path d="M39.163 47.431c-.044.137-.082.277-.123.415.041-.138.079-.278.123-.415z" style="fill: rgb(0, 0, 0);"></path></g></g><g class="ldl-layer"><g class="ldl-ani" style="transform-origin: 50px 50px; transform: scale(0.91); animation: 1.11111s linear 0.30303s 1 normal forwards running breath-47bc0690-a844-45a6-9043-4c9f7b97b37f;"><path fill="#fff" d="M39.704 45.954z" style="fill: rgb(255, 255, 255);"></path></g></g><g class="ldl-layer"><g class="ldl-ani" style="transform-origin: 50px 50px; transform: scale(0.91); animation: 1.11111s linear 0.252525s 1 normal forwards running breath-47bc0690-a844-45a6-9043-4c9f7b97b37f;"><path fill="#fff" d="M40.473 44.314z" style="fill: rgb(255, 255, 255);"></path></g></g><g class="ldl-layer"><g class="ldl-ani" style="transform-origin: 50px 50px; transform: scale(0.91); animation: 1.11111s linear 0.20202s 1 normal forwards running breath-47bc0690-a844-45a6-9043-4c9f7b97b37f;"><path fill="#fff" d="M38.314 51.637z" style="fill: rgb(255, 255, 255);"></path></g></g><g class="ldl-layer"><g class="ldl-ani" style="transform-origin: 50px 50px; transform: scale(0.91); animation: 1.11111s linear 0.151515s 1 normal forwards running breath-47bc0690-a844-45a6-9043-4c9f7b97b37f;"><path fill="#fff" d="M39.04 47.846z" style="fill: rgb(255, 255, 255);"></path></g></g><g class="ldl-layer"><g class="ldl-ani" style="transform-origin: 50px 50px; transform: scale(0.91); animation: 1.11111s linear 0.10101s 1 normal forwards running breath-47bc0690-a844-45a6-9043-4c9f7b97b37f;"><path fill="#fff" d="M38.61 49.555z" style="fill: rgb(255, 255, 255);"></path></g></g><g class="ldl-layer"><g class="ldl-ani" style="transform-origin: 50px 50px; transform: scale(0.91); animation: 1.11111s linear 0.0505051s 1 normal forwards running breath-47bc0690-a844-45a6-9043-4c9f7b97b37f;"><path fill="gray" d="M36.096 43.96H7.5V33.719h37.095a23.947 23.947 0 0 0-8.499 10.241z" style="fill: rgb(128, 128, 128);"></path></g></g><g class="ldl-layer"><g class="ldl-ani" style="transform-origin: 50px 50px; transform: scale(0.91); animation: 1.11111s linear 0s 1 normal forwards running breath-47bc0690-a844-45a6-9043-4c9f7b97b37f;"><path fill="#323232" d="M92.5 38.841L76.332 55.013V43.96H63.129c-2.549 0-5.456-.345-7.929.401-4.084 1.233-6.695 5.026-6.736 9.222-.029 2.986.207 6.03-.422 8.971a18.252 18.252 0 0 1-6.31 10.305c-3.445 2.803-7.808 4.275-12.223 4.44-1.782.067-3.574.016-5.357.016H7.502V67.076h14.082c5.01 0 11.453.953 14.962-3.509 2.096-2.666 1.68-6.096 1.68-9.27 0-4.289.994-8.377 3.434-11.952 2.628-3.85 6.629-6.736 11.139-7.942 2.814-.753 5.655-.683 8.535-.683h15V22.665L92.5 38.841z" style="fill: rgb(50, 50, 50);"></path></g></g><metadata xmlns:d="https://loading.io/stock/">
<d:name>merge</d:name>
<d:tags>top,right,join,together,merge,arrow</d:tags>
<d:license>by</d:license>
<d:slug>py9eu1</d:slug>
</metadata></g></g><style id="breath-47bc0690-a844-45a6-9043-4c9f7b97b37f" data-anikit="">@keyframes breath-47bc0690-a844-45a6-9043-4c9f7b97b37f
{
  0% {
    animation-timing-function: cubic-bezier(0.9647,0.2413,-0.0705,0.7911);
    transform: scale(0.9099999999999999);
  }
  51% {
    animation-timing-function: cubic-bezier(0.9226,0.2631,-0.0308,0.7628);
    transform: scale(1.02994);
  }
  100% {
    transform: scale(0.9099999999999999);
  }
}</style><!-- [ldio] generated by https://loading.io/ --></svg>