<?xml version="1.0" encoding="utf-8"?>
<svg xml:space="preserve" viewBox="0 0 100 100" y="0" x="0" xmlns="http://www.w3.org/2000/svg" id="Layer_1" version="1.1" style="height: 100%; width: 100%; background: none; shape-rendering: auto;" width="100px" height="100px"><g class="ldl-scale" style="transform-origin: 50% 50%; transform: rotate(0deg) scale(0.8, 0.8);"><g class="ldl-ani" style="transform-origin: 50px 50px;"><g class="ldl-layer"><g class="ldl-ani" style="transform-origin: 50px 50px; transform: matrix(1, 0, 0, 1, 0, 0); animation: 4.16667s linear 1.92308s 1 normal forwards running tremble-cd12a28f-f8b9-45cb-8384-4987c6ca9257;"><path stroke-miterlimit="10" stroke-width="3.5" stroke="#333" fill="#f47e5f" d="M32.792 90.037l-4.743-2.738c-9.915-5.724-11.871-18.866-4.819-24.787l7.161-6.012a10.767 10.767 0 0 0 3.298-4.789l2.308-6.758c2.705-7.918 12.065-7.976 21.216-2.692h0c9.151 5.283 13.781 13.418 8.276 19.72l-4.698 5.378a10.76 10.76 0 0 0-2.499 5.251l-1.626 9.207c-1.6 9.068-13.959 13.944-23.874 8.22z" style="fill: rgb(244, 126, 95); stroke: rgb(51, 51, 51);"></path></g></g><g class="ldl-layer"><g class="ldl-ani" style="transform-origin: 50px 50px; transform: matrix(1, 0, 0, 1, 0, 0); animation: 4.16667s linear 1.76282s 1 normal forwards running tremble-cd12a28f-f8b9-45cb-8384-4987c6ca9257;"><path stroke-miterlimit="10" stroke-width="3.5" stroke="#fff" stroke-linecap="round" fill="#f47e5f" d="M40.643 44.823c.436-.512 1.08-.928 1.643-1.28 1.492-.932 3.377-.967 5.055-.581" style="stroke: rgb(255, 255, 255); fill: rgb(244, 126, 95);"></path></g></g><g class="ldl-layer"><g class="ldl-ani" style="transform-origin: 50px 50px; transform: matrix(1, 0, 0, 1, 0, 0); animation: 4.16667s linear 1.60256s 1 normal forwards running tremble-cd12a28f-f8b9-45cb-8384-4987c6ca9257;"><path stroke-miterlimit="10" stroke-width="3.5" stroke="#fff" stroke-linecap="round" fill="#f47e5f" d="M39.153 49.304c.06-.151.122-.3.187-.445" style="stroke: rgb(255, 255, 255); fill: rgb(244, 126, 95);"></path></g></g><g class="ldl-layer"><g class="ldl-ani" style="transform-origin: 50px 50px; transform: matrix(1, 0, 0, 1, 0, 0); animation: 4.16667s linear 1.44231s 1 normal forwards running tremble-cd12a28f-f8b9-45cb-8384-4987c6ca9257;"><path d="M27.764 64.829l3.157-2.65" stroke-miterlimit="10" stroke-width="3.5" stroke="#fff" stroke-linecap="round" fill="#f47e5f" style="stroke: rgb(255, 255, 255); fill: rgb(244, 126, 95);"></path></g></g><g class="ldl-layer"><g class="ldl-ani" style="transform-origin: 50px 50px; transform: matrix(1, 0, 0, 1, 0, 0); animation: 4.16667s linear 1.28205s 1 normal forwards running tremble-cd12a28f-f8b9-45cb-8384-4987c6ca9257;"><path stroke-miterlimit="10" stroke-width="3.5" stroke="#fff" stroke-linecap="round" fill="#f47e5f" d="M24.209 67.957c.085-.095.173-.189.262-.281" style="stroke: rgb(255, 255, 255); fill: rgb(244, 126, 95);"></path></g></g><g class="ldl-layer"><g class="ldl-ani" style="transform-origin: 50px 50px; transform: matrix(1, 0, 0, 1, 0, 0); animation: 4.16667s linear 1.12179s 1 normal forwards running tremble-cd12a28f-f8b9-45cb-8384-4987c6ca9257;"><path stroke-miterlimit="10" stroke="#000" stroke-linejoin="round" stroke-width="3.5" opacity=".2" d="M56.667 81.816l1.626-9.207a10.764 10.764 0 0 1 2.499-5.251l4.698-5.378c3.128-3.58 2.981-7.752.595-11.656-.426 2.862-1.911 5.469-4.647 7.585l-7.41 5.732a14.133 14.133 0 0 0-4.547 6.125l-4.426 11.44c-1.833 4.739-5.932 8.034-10.903 9.535 9.652 4.563 20.986-.266 22.515-8.925z" style="fill: rgb(0, 0, 0); stroke: rgb(0, 0, 0);"></path></g></g><g class="ldl-layer"><g class="ldl-ani" style="transform-origin: 50px 50px; transform: matrix(1, 0, 0, 1, 0, 0); animation: 4.16667s linear 0.961538s 1 normal forwards running tremble-cd12a28f-f8b9-45cb-8384-4987c6ca9257;"><path d="M68.032 16.435l6.136 3.542-25.052 43.39-6.136-3.542z" stroke-miterlimit="10" stroke-width="3.49993" stroke="#333" fill="#f7b26a" style="fill: rgb(247, 178, 106); stroke: rgb(51, 51, 51);"></path></g></g><g class="ldl-layer"><g class="ldl-ani" style="transform-origin: 50px 50px; transform: matrix(1, 0, 0, 1, 0, 0); animation: 4.16667s linear 0.801282s 1 normal forwards running tremble-cd12a28f-f8b9-45cb-8384-4987c6ca9257;"><path d="M68.032 16.435l6.136 3.542-25.052 43.39-6.136-3.542z" stroke-miterlimit="10" stroke-width="3.49993" stroke="#333" fill="#f7b26a" style="fill: rgb(247, 178, 106); stroke: rgb(51, 51, 51);"></path></g></g><g class="ldl-layer"><g class="ldl-ani" style="transform-origin: 50px 50px; transform: matrix(1, 0, 0, 1, 0, 0); animation: 4.16667s linear 0.641026s 1 normal forwards running tremble-cd12a28f-f8b9-45cb-8384-4987c6ca9257;"><path d="M47.385 62.37l25.052-43.39 1.732 1-25.052 43.39z" stroke-width="3.49993" stroke-miterlimit="10" stroke="#000" opacity=".2" style="fill: rgb(0, 0, 0); stroke: rgb(0, 0, 0);"></path></g></g><g class="ldl-layer"><g class="ldl-ani" style="transform-origin: 50px 50px; transform: matrix(1, 0, 0, 1, 0, 0); animation: 4.16667s linear 0.480769s 1 normal forwards running tremble-cd12a28f-f8b9-45cb-8384-4987c6ca9257;"><path d="M29.851 75.483l12.272 7.085" stroke-width="3.5" stroke="#333" fill="none" stroke-miterlimit="10" style="stroke: rgb(51, 51, 51);"></path></g></g><g class="ldl-layer"><g class="ldl-ani" style="transform-origin: 50px 50px; transform: matrix(1, 0, 0, 1, 0, 0); animation: 4.16667s linear 0.320513s 1 normal forwards running tremble-cd12a28f-f8b9-45cb-8384-4987c6ca9257;"><path stroke-miterlimit="10" stroke-width="3.5" stroke="#333" fill="#f7b26a" d="M69.341 26.06l-4.161-2.403c-1.795-1.036-2.683-2.916-2.017-4.272l5.189-10.578c.713-1.454 2.923-1.741 4.847-.63l5.538 3.198c1.924 1.111 2.781 3.168 1.878 4.513l-6.566 9.783c-.841 1.254-2.913 1.425-4.708.389z" style="fill: rgb(247, 178, 106); stroke: rgb(51, 51, 51);"></path></g></g><g class="ldl-layer"><g class="ldl-ani" style="transform-origin: 50px 50px; transform: matrix(1, 0, 0, 1, 0, 0); animation: 4.16667s linear 0.160256s 1 normal forwards running tremble-cd12a28f-f8b9-45cb-8384-4987c6ca9257;"><path stroke-width="3.5" stroke-miterlimit="10" stroke="#000" opacity=".2" d="M78.738 11.375l-.282-.163a2.75 2.75 0 0 1-.436 1.169l-8.555 12.746a2.776 2.776 0 0 1-.624.642l.501.29c1.795 1.036 3.866.865 4.708-.389l6.566-9.783c.902-1.344.046-3.401-1.878-4.512z" style="fill: rgb(0, 0, 0); stroke: rgb(0, 0, 0);"></path></g></g><g class="ldl-layer"><g class="ldl-ani" style="transform-origin: 50px 50px; transform: matrix(1, 0, 0, 1, 0, 0); animation: 4.16667s linear 0s 1 normal forwards running tremble-cd12a28f-f8b9-45cb-8384-4987c6ca9257;"><circle r="8.484" stroke-miterlimit="10" stroke-width="3.5" stroke="#333" cy="65.748" cx="43.653" transform="rotate(-60 43.653 65.75)" style="stroke: rgb(51, 51, 51); fill: rgb(0, 0, 0);"></circle></g></g><metadata xmlns:d="https://loading.io/stock/">
<d:name>band</d:name>
<d:tags>band,guitar,bass,musician,music,musical instrument,composer,player,rock star,pop music</d:tags>
<d:license>by</d:license>
<d:slug>5vbxrb</d:slug>
</metadata></g></g><style id="tremble-cd12a28f-f8b9-45cb-8384-4987c6ca9257" data-anikit="">@keyframes tremble-cd12a28f-f8b9-45cb-8384-4987c6ca9257 {
  0% { transform: translate(0px,0px) rotate(0deg) scale(1) }
  3.33333% { transform: translate(-0.18923px,1.45485px) rotate(0deg) scale(1) }
  6.66667% { transform: translate(-0.84296px,-1.32524px) rotate(0deg) scale(1) }
  10% { transform: translate(0.67971px,1.00422px) rotate(0deg) scale(1) }
  13.33333% { transform: translate(-0.5056px,0.83616px) rotate(0deg) scale(1) }
  16.66667% { transform: translate(1.31368px,-0.51401px) rotate(0deg) scale(1) }
  20% { transform: translate(-1.21184px,1.49193px) rotate(0deg) scale(1) }
  23.33333% { transform: translate(1.09065px,-0.21259px) rotate(0deg) scale(1) }
  26.66667% { transform: translate(-1.49916px,0.56159px) rotate(0deg) scale(1) }
  30% { transform: translate(1.48086px,1.21228px) rotate(0deg) scale(1) }
  33.33333% { transform: translate(-1.43889px,-1.152px) rotate(0deg) scale(1) }
  36.66667% { transform: translate(1.35914px,1.34835px) rotate(0deg) scale(1) }
  40% { transform: translate(-1.42834px,0.3091px) rotate(0deg) scale(1) }
  43.33333% { transform: translate(1.47472px,-1.49889px) rotate(0deg) scale(1) }
  46.66667% { transform: translate(-0.92402px,1.4416px) rotate(0deg) scale(1) }
  50% { transform: translate(1.0657px,-0.75306px) rotate(0deg) scale(1) }
  53.33333% { transform: translate(-1.19035px,-1.07484px) rotate(0deg) scale(1) }
  56.66667% { transform: translate(0.28828px,0.79337px) rotate(0deg) scale(1) }
  60% { transform: translate(-0.47167px,-1.42789px) rotate(0deg) scale(1) }
  63.33333% { transform: translate(0.64753px,-0.09795px) rotate(0deg) scale(1) }
  66.66667% { transform: translate(0.41006px,-0.26292px) rotate(0deg) scale(1) }
  70% { transform: translate(-0.22477px,-1.3683px) rotate(0deg) scale(1) }
  73.33333% { transform: translate(0.03588px,0.92931px) rotate(0deg) scale(1) }
  76.66667% { transform: translate(-1.01937px,-1.18398px) rotate(0deg) scale(1) }
  80% { transform: translate(0.8724px,-0.60494px) rotate(0deg) scale(1) }
  83.33333% { transform: translate(-0.71151px,1.4786px) rotate(0deg) scale(1) }
  86.66667% { transform: translate(1.40734px,-1.49607px) rotate(0deg) scale(1) }
  90% { transform: translate(-1.33062px,0.46957px) rotate(0deg) scale(1) }
  93.33333% { transform: translate(1.23264px,1.26738px) rotate(0deg) scale(1) }
  96.66667% { transform: translate(-1.48975px,-1.03867px) rotate(0deg) scale(1) }
  100% { transform: translate(0,0) rotate(0) scale(1) }
}</style><!-- [ldio] generated by https://loading.io/ --></svg>