<?xml version="1.0" encoding="utf-8"?>
<svg viewBox="0 0 100 100" xmlns="http://www.w3.org/2000/svg" style="height: 100%; width: 100%; background: none; shape-rendering: auto;" width="100px" height="100px"><g class="ldl-scale" style="transform-origin: 50% 50%; transform: rotate(0deg) scale(0.8, 0.8);"><g class="ldl-ani"><g class="ldl-layer"><g class="ldl-ani" style="transform-origin: 50px 50px; opacity: 1; animation: 1.11111s linear 0.416667s 1 normal forwards running blink-f2574831-f8b9-4981-8dfa-3a037e4a1316;"><path fill="#f4e6c8" d="M85.119 42.107C85.119 24.375 70.744 10 53.012 10S20.905 24.375 20.905 42.107v9.097l-5.745 9.438c-.766 1.258.14 2.87 1.613 2.87h4.132v13.734a3.26 3.26 0 0 0 4.151 3.137l11.367-3.226V90h36.923V66.952c7.186-5.888 11.773-14.83 11.773-24.845z" style="fill: rgb(214, 194, 151);"></path></g></g><g class="ldl-layer"><g class="ldl-ani"><g><g class="ldl-layer"><g class="ldl-ani" style="transform-origin: 50px 50px; opacity: 1; animation: 1.11111s linear 0.277778s 1 normal forwards running blink-f2574831-f8b9-4981-8dfa-3a037e4a1316;"><path fill="#666" d="M72.882 46.504l-1.995 4.816a1.545 1.545 0 0 1-2.019.836l-1.741-.721a1.526 1.526 0 0 0-1.738.398 16.19 16.19 0 0 1-1.643 1.639 1.527 1.527 0 0 0-.401 1.741l.723 1.744a1.545 1.545 0 0 1-.836 2.019l-4.816 1.995a1.545 1.545 0 0 1-2.019-.836l-.723-1.744a1.526 1.526 0 0 0-1.515-.947c-.768.056-1.543.057-2.321.002a1.528 1.528 0 0 0-1.51.948l-.721 1.741a1.545 1.545 0 0 1-2.019.836l-4.816-1.995a1.545 1.545 0 0 1-.836-2.019l.721-1.741a1.526 1.526 0 0 0-.398-1.738 16.19 16.19 0 0 1-1.639-1.643 1.527 1.527 0 0 0-1.741-.401l-1.744.723a1.545 1.545 0 0 1-2.019-.836l-1.995-4.816a1.545 1.545 0 0 1 .836-2.019l1.744-.723c.607-.251.995-.859.947-1.515a16.197 16.197 0 0 1-.002-2.321 1.528 1.528 0 0 0-.948-1.51l-1.741-.721a1.545 1.545 0 0 1-.836-2.019l1.995-4.816a1.545 1.545 0 0 1 2.019-.836l1.741.721a1.526 1.526 0 0 0 1.738-.398 16.19 16.19 0 0 1 1.643-1.639c.497-.43.653-1.134.401-1.741l-.723-1.744a1.545 1.545 0 0 1 .836-2.019l4.816-1.995a1.545 1.545 0 0 1 2.019.836l.723 1.744c.251.607.859.995 1.515.947a16.197 16.197 0 0 1 2.321-.002 1.528 1.528 0 0 0 1.51-.948l.721-1.741a1.545 1.545 0 0 1 2.019-.836l4.816 1.995a1.545 1.545 0 0 1 .836 2.019l-.721 1.741a1.526 1.526 0 0 0 .398 1.738 16.19 16.19 0 0 1 1.639 1.643c.43.497 1.134.653 1.741.401l1.744-.723a1.545 1.545 0 0 1 2.019.836l1.995 4.816a1.545 1.545 0 0 1-.836 2.019l-1.744.723a1.526 1.526 0 0 0-.947 1.515c.056.768.057 1.543.002 2.321a1.528 1.528 0 0 0 .948 1.51l1.741.721a1.545 1.545 0 0 1 .836 2.019z" style="fill: rgb(102, 102, 102);"></path></g></g><g class="ldl-layer"><g class="ldl-ani" style="transform-origin: 50px 50px; opacity: 1; animation: 1.11111s linear 0.138889s 1 normal forwards running blink-f2574831-f8b9-4981-8dfa-3a037e4a1316;"><circle fill="#323232" r="12.2" cy="41.09" cx="53" style="fill: rgb(50, 50, 50);"></circle></g></g><g class="ldl-layer"><g class="ldl-ani" style="transform-origin: 50px 50px; opacity: 1; animation: 1.11111s linear 0s 1 normal forwards running blink-f2574831-f8b9-4981-8dfa-3a037e4a1316;"><circle r="7.572" cy="41.09" cx="53" style="fill: rgb(0, 0, 0);"></circle></g></g></g></g></g><metadata xmlns:d="https://loading.io/stock/">
<d:name>manage</d:name>
<d:tags>manage,organization,operation,procedure,strategy,tactic,skill,technique</d:tags>
<d:license>by</d:license>
<d:slug>c642w4</d:slug>
</metadata></g></g><style id="blink-f2574831-f8b9-4981-8dfa-3a037e4a1316" data-anikit="">@keyframes blink-f2574831-f8b9-4981-8dfa-3a037e4a1316 {
  0% { opacity: 1; }
  49.75% { opacity: 1; }
  50.25% { opacity: 0; }
  99.5% { opacity: 0; }
  100% { opacity: 1; }
}</style><!-- [ldio] generated by https://loading.io/ --></svg>