<?xml version="1.0" encoding="utf-8"?>
<svg xml:space="preserve" viewBox="0 0 100 100" y="0" x="0" xmlns="http://www.w3.org/2000/svg" id="圖層_1" version="1.1" style="height: 100%; width: 100%; background: none; shape-rendering: auto;" width="100px" height="100px"><g class="ldl-scale" style="transform-origin: 50% 50%; transform: rotate(0deg) scale(0.8, 0.8);"><g class="ldl-ani"><g class="ldl-layer"><g class="ldl-ani" style="transform-origin: 50px 50px; transform: scale(0.91); animation: 1.11111s linear 0.493827s 1 normal forwards running breath-eab29636-ba37-4e1b-a800-b821b2575d64;"><path stroke-miterlimit="10" stroke-width="3" stroke="#333" fill="#a0c8d7" d="M63.333 29.507H49.667A7.167 7.167 0 0 1 42.5 22.34v-7.67a7.167 7.167 0 0 1 7.167-7.167h13.666A7.167 7.167 0 0 1 70.5 14.67v7.67a7.167 7.167 0 0 1-7.167 7.167z" style="fill: rgb(160, 200, 215); stroke: rgb(51, 51, 51);"></path></g></g><g class="ldl-layer"><g class="ldl-ani" style="transform-origin: 50px 50px; transform: scale(0.91); animation: 1.11111s linear 0.432099s 1 normal forwards running breath-eab29636-ba37-4e1b-a800-b821b2575d64;"><path stroke-miterlimit="10" stroke-width="3" stroke="#333" fill="#849b87" d="M54.017 24.712l-.022-.056c-.954-2.411-3.16-4.101-5.731-4.104H23.209v0h-9.466c-3.447 0-6.242 3.033-6.242 6.773v5.736h.063v14.56c0 1.831.623 3.527 1.662 4.778.028.032.053.066.082.098.017.02.036.038.054.058 1.127 1.206 2.673 1.952 4.381 1.952h34.516c2.735 0 5.053-1.911 5.897-4.568.029-.095.062-.188.087-.285l.014-.06a8.08 8.08 0 0 0 .244-1.971V27.454a8 8 0 0 0-.391-2.47c-.032-.091-.058-.183-.093-.272z" style="fill: rgb(132, 155, 135); stroke: rgb(51, 51, 51);"></path></g></g><g class="ldl-layer"><g class="ldl-ani" style="transform-origin: 50px 50px; transform: scale(0.91); animation: 1.11111s linear 0.37037s 1 normal forwards running breath-eab29636-ba37-4e1b-a800-b821b2575d64;"><circle fill="#f5e6c8" r="3" cy="37.529" cx="19.75" style="fill: rgb(245, 230, 200);"></circle></g></g><g class="ldl-layer"><g class="ldl-ani" style="transform-origin: 50px 50px; transform: scale(0.91); animation: 1.11111s linear 0.308642s 1 normal forwards running breath-eab29636-ba37-4e1b-a800-b821b2575d64;"><circle fill="#f5e6c8" r="3" cy="37.529" cx="31" style="fill: rgb(245, 230, 200);"></circle></g></g><g class="ldl-layer"><g class="ldl-ani" style="transform-origin: 50px 50px; transform: scale(0.91); animation: 1.11111s linear 0.246914s 1 normal forwards running breath-eab29636-ba37-4e1b-a800-b821b2575d64;"><circle fill="#f5e6c8" r="3" cy="37.529" cx="42.25" style="fill: rgb(245, 230, 200);"></circle></g></g><g class="ldl-layer"><g class="ldl-ani" style="transform-origin: 50px 50px; transform: scale(0.91); animation: 1.11111s linear 0.185185s 1 normal forwards running breath-eab29636-ba37-4e1b-a800-b821b2575d64;"><path stroke-miterlimit="10" stroke-width="3" stroke="#333" fill="#abbd81" d="M92.025 45.467c-.037-.102-.07-.205-.112-.305-.008-.021-.019-.041-.027-.062-1.087-2.668-3.532-4.593-6.588-4.593H43.004a7.58 7.58 0 0 0-7.58 7.58V70.927c0 2.026.8 3.863 2.095 5.223.034.036.065.074.099.109l.065.064c1.289 1.341 3.06 2.184 5.085 2.184h22.966c1.778 7 6.766 11.848 13.766 13.991V78.507h5.8c3.256 0 5.818-2.174 6.782-5.112.035-.107.075-.211.105-.319.007-.022.011-.045.017-.068a7.566 7.566 0 0 0 .296-2.081v-22.84c0-.923-.173-1.803-.475-2.62z" style="fill: rgb(171, 189, 129); stroke: rgb(51, 51, 51);"></path></g></g><g class="ldl-layer"><g class="ldl-ani" style="transform-origin: 50px 50px; transform: scale(0.91); animation: 1.11111s linear 0.123457s 1 normal forwards running breath-eab29636-ba37-4e1b-a800-b821b2575d64;"><circle fill="#f5e6c8" r="4" cy="60" cx="47.938" style="fill: rgb(245, 230, 200);"></circle></g></g><g class="ldl-layer"><g class="ldl-ani" style="transform-origin: 50px 50px; transform: scale(0.91); animation: 1.11111s linear 0.0617284s 1 normal forwards running breath-eab29636-ba37-4e1b-a800-b821b2575d64;"><circle fill="#f5e6c8" r="4" cy="60" cx="62.938" style="fill: rgb(245, 230, 200);"></circle></g></g><g class="ldl-layer"><g class="ldl-ani" style="transform-origin: 50px 50px; transform: scale(0.91); animation: 1.11111s linear 0s 1 normal forwards running breath-eab29636-ba37-4e1b-a800-b821b2575d64;"><circle fill="#f5e6c8" r="4" cy="60" cx="77.938" style="fill: rgb(245, 230, 200);"></circle></g></g><metadata xmlns:d="https://loading.io/stock/"><d:name>soliloquy</d:name><d:tags>speak,read,recite,talk,drama,soliloquy,conversation</d:tags><d:license>pro</d:license><d:slug>cm2fet</d:slug></metadata></g></g><style id="breath-eab29636-ba37-4e1b-a800-b821b2575d64" data-anikit="">@keyframes breath-eab29636-ba37-4e1b-a800-b821b2575d64
{
  0% {
    animation-timing-function: cubic-bezier(0.9647,0.2413,-0.0705,0.7911);
    transform: scale(0.9099999999999999);
  }
  51% {
    animation-timing-function: cubic-bezier(0.9226,0.2631,-0.0308,0.7628);
    transform: scale(1.02994);
  }
  100% {
    transform: scale(0.9099999999999999);
  }
}</style><!-- [ldio] generated by https://loading.io/ --></svg>