<?xml version="1.0" encoding="utf-8"?>
<svg xml:space="preserve" viewBox="0 0 100 100" y="0" x="0" xmlns="http://www.w3.org/2000/svg" id="Layer_1" version="1.1" style="height: 100%; width: 100%; background: none; shape-rendering: auto;" width="100px" height="100px"><g class="ldl-scale" style="transform-origin: 50% 50%; transform: rotate(0deg) scale(0.8, 0.8);"><g class="ldl-ani"><g class="ldl-layer"><g class="ldl-ani" style="transform-origin: 50px 50px; transform: translate(0px, 0px); animation: 1.11111s linear 0.509259s 1 normal forwards running jump-321be2f3-f0e3-4ad8-9885-cc5827b6fcc4;"><path d="M91 87.235H41.005l24.998-40.199z" stroke-width="3.5" stroke="#333" fill="#acbd81" stroke-miterlimit="10" style="fill: rgb(172, 189, 129); stroke: rgb(51, 51, 51);"></path></g></g><g class="ldl-layer"><g class="ldl-ani" style="transform-origin: 50px 50px; transform: translate(0px, 0px); animation: 1.11111s linear 0.462963s 1 normal forwards running jump-321be2f3-f0e3-4ad8-9885-cc5827b6fcc4;"><path d="M59.649 62.992l3.441-3.207 2.913 3.256 2.985-3.123 3.222 3.074 2.359-2.181-8.566-13.775-8.6 13.83z" stroke-miterlimit="10" stroke="#333" fill="#fff" stroke-width="3.5" style="fill: rgb(255, 255, 255); stroke: rgb(51, 51, 51);"></path></g></g><g class="ldl-layer"><g class="ldl-ani" style="transform-origin: 50px 50px; transform: translate(0px, 0px); animation: 1.11111s linear 0.416667s 1 normal forwards running jump-321be2f3-f0e3-4ad8-9885-cc5827b6fcc4;"><path d="M41.005 87.235h25.591l-5.941-31.6z" stroke-miterlimit="10" stroke="#000" stroke-linejoin="round" stroke-width="3.5" opacity=".2" style="fill: rgb(0, 0, 0); stroke: rgb(0, 0, 0);"></path></g></g><g class="ldl-layer"><g class="ldl-ani" style="transform-origin: 50px 50px; transform: translate(0px, 0px); animation: 1.11111s linear 0.37037s 1 normal forwards running jump-321be2f3-f0e3-4ad8-9885-cc5827b6fcc4;"><path stroke-miterlimit="10" stroke-width="3.5" stroke="#333" fill="#e0e0e0" d="M64.165 53.409H32.014A5.014 5.014 0 0 1 27 48.395v-.737a5.014 5.014 0 0 1 5.014-5.014h32.151a5.014 5.014 0 0 1 5.014 5.014v.737a5.014 5.014 0 0 1-5.014 5.014z" style="fill: rgb(224, 224, 224); stroke: rgb(51, 51, 51);"></path></g></g><g class="ldl-layer"><g class="ldl-ani" style="transform-origin: 50px 50px; transform: translate(0px, 0px); animation: 1.11111s linear 0.324074s 1 normal forwards running jump-321be2f3-f0e3-4ad8-9885-cc5827b6fcc4;"><path stroke-miterlimit="10" stroke="#000" stroke-linejoin="round" stroke-width="3.5" opacity=".2" d="M27.325 50.124c.706 1.914 2.53 3.285 4.689 3.285h32.151c2.159 0 3.983-1.372 4.689-3.285H27.325z" style="fill: rgb(0, 0, 0); stroke: rgb(0, 0, 0);"></path></g></g><g class="ldl-layer"><g class="ldl-ani" style="transform-origin: 50px 50px; transform: translate(0px, 0px); animation: 1.11111s linear 0.277778s 1 normal forwards running jump-321be2f3-f0e3-4ad8-9885-cc5827b6fcc4;"><path d="M69.179 87.235H9l30.09-48.388z" stroke-width="3.5" stroke="#333" fill="#acbd81" stroke-miterlimit="10" style="fill: rgb(172, 189, 129); stroke: rgb(51, 51, 51);"></path></g></g><g class="ldl-layer"><g class="ldl-ani" style="transform-origin: 50px 50px; transform: translate(0px, 0px); animation: 1.11111s linear 0.231481s 1 normal forwards running jump-321be2f3-f0e3-4ad8-9885-cc5827b6fcc4;"><path d="M31.712 57.15l3.995-3.724 3.383 3.781 3.466-3.627 3.741 3.57 2.65-2.45-9.857-15.853-9.899 15.918z" stroke-miterlimit="10" stroke="#333" fill="#fff" stroke-width="3.5" style="fill: rgb(255, 255, 255); stroke: rgb(51, 51, 51);"></path></g></g><g class="ldl-layer"><g class="ldl-ani" style="transform-origin: 50px 50px; transform: translate(0px, 0px); animation: 1.11111s linear 0.185185s 1 normal forwards running jump-321be2f3-f0e3-4ad8-9885-cc5827b6fcc4;"><path stroke-linejoin="round" stroke="#333" fill="#e0e0e0" stroke-miterlimit="10" stroke-width="3.5" d="M77.415 25.691H65.376a5.327 5.327 0 0 0 .755-2.706 5.382 5.382 0 0 0-5.382-5.382H35.81a5.382 5.382 0 1 0 0 10.764h12.039a5.327 5.327 0 0 0-.755 2.706 5.382 5.382 0 0 0 5.382 5.382h24.938a5.382 5.382 0 0 0 .001-10.764z" style="fill: rgb(224, 224, 224); stroke: rgb(51, 51, 51);"></path></g></g><g class="ldl-layer"><g class="ldl-ani" style="transform-origin: 50px 50px; transform: translate(0px, 0px); animation: 1.11111s linear 0.138889s 1 normal forwards running jump-321be2f3-f0e3-4ad8-9885-cc5827b6fcc4;"><path stroke-miterlimit="10" stroke="#000" stroke-linejoin="round" stroke-width="3.5" opacity=".2" d="M58.23 31.954c-4.21 0-7.623-2.327-7.623-5.196 0-.957.406-1.842 1.069-2.613H34.623c-1.538 0-2.967-.313-4.165-.847.165 2.824 2.485 5.069 5.351 5.069h12.039a5.327 5.327 0 0 0-.755 2.706 5.382 5.382 0 0 0 5.382 5.382h24.938c2.671 0 4.871-1.95 5.294-4.502H58.23z" style="fill: rgb(0, 0, 0); stroke: rgb(0, 0, 0);"></path></g></g><g class="ldl-layer"><g class="ldl-ani" style="transform-origin: 50px 50px; transform: translate(0px, 0px); animation: 1.11111s linear 0.0925926s 1 normal forwards running jump-321be2f3-f0e3-4ad8-9885-cc5827b6fcc4;"><path d="M9 87.235h31.045l-7.207-38.334z" stroke-miterlimit="10" stroke="#000" stroke-linejoin="round" stroke-width="3.5" opacity=".2" style="fill: rgb(0, 0, 0); stroke: rgb(0, 0, 0);"></path></g></g><g class="ldl-layer"><g class="ldl-ani" style="transform-origin: 50px 50px; transform: translate(0px, 0px); animation: 1.11111s linear 0.0462963s 1 normal forwards running jump-321be2f3-f0e3-4ad8-9885-cc5827b6fcc4;"><path d="M39.09 12.765L19.667 26.098h19.402z" stroke-linejoin="round" stroke="#333" fill="#e15c64" stroke-miterlimit="10" stroke-width="3.5" style="fill: rgb(225, 92, 100); stroke: rgb(51, 51, 51);"></path></g></g><g class="ldl-layer"><g class="ldl-ani" style="transform-origin: 50px 50px; transform: translate(0px, 0px); animation: 1.11111s linear 0s 1 normal forwards running jump-321be2f3-f0e3-4ad8-9885-cc5827b6fcc4;"><path d="M39.09 38.847V12.765" stroke-linejoin="round" stroke="#333" fill="#e15c64" stroke-miterlimit="10" stroke-width="3.5" style="fill: rgb(225, 92, 100); stroke: rgb(51, 51, 51);"></path></g></g><metadata xmlns:d="https://loading.io/stock/">
<d:name>hiking</d:name>
<d:tags>hiking,mountain climbing,outdoor,nature,hill,camping,trek,trail</d:tags>
<d:license>by</d:license>
<d:slug>piujnu</d:slug>
</metadata></g></g><style id="jump-321be2f3-f0e3-4ad8-9885-cc5827b6fcc4" data-anikit="">@keyframes jump-321be2f3-f0e3-4ad8-9885-cc5827b6fcc4
{
  0% {
    animation-timing-function: cubic-bezier(0.0637,0.1569,-0.0154,0.8727);
    transform: translate(0,0px);
  }
  22% {
    animation-timing-function: cubic-bezier(0.7634,0.2713,0.7818,0.6832);
    transform: translate(0,-13.958px);
  }
  43% {
    animation-timing-function: cubic-bezier(0.0599,0.1266,0.2372,1.029);
    transform: translate(0,-2.338px);
  }
  56% {
    animation-timing-function: cubic-bezier(0.6353,0.3049,0.6792,0.6671);
    transform: translate(0,-7.868px);
  }
  68% {
    animation-timing-function: cubic-bezier(0.0513,0.1148,0.3085,1.1548);
    transform: translate(0,-1.596px);
  }
  76% {
    animation-timing-function: cubic-bezier(0.467,0.2881,0.3593,0.7819);
    transform: translate(0,-4.41px);
  }
  83% {
    animation-timing-function: cubic-bezier(0.0632,0.1615,0.3539,1.4565);
    transform: translate(0,-1.12px);
  }
  88% {
    animation-timing-function: cubic-bezier(0.3563,0.3125,0.5387,1.6475);
    transform: translate(0,-2.4080000000000004px);
  }
  92% {
    animation-timing-function: cubic-bezier(0.1265,0.4155,0.3821,1.8827);
    transform: translate(0,-0.812px);
  }
  95% {
    animation-timing-function: cubic-bezier(0.5727,1.3521,0.0229,3.0356);
    transform: translate(0,-1.302px);
  }
  98% {
    animation-timing-function: cubic-bezier(0.4531,-1.3593,0.757,0.0281);
    transform: translate(0,-0.798px);
  }
  100% {
    transform: translate(0,0px);
  }
}</style><!-- [ldio] generated by https://loading.io/ --></svg>