<?xml version="1.0" encoding="utf-8"?>
<svg xml:space="preserve" viewBox="0 0 100 100" y="0" x="0" xmlns="http://www.w3.org/2000/svg" id="圖層_1" version="1.1" style="height: 100%; width: 100%; background: none; shape-rendering: auto;" width="100px" height="100px"><g class="ldl-scale" style="transform-origin: 50% 50%; transform: rotate(0deg) scale(0.8, 0.8);"><g class="ldl-ani"><g class="ldl-layer"><g class="ldl-ani" style="transform-origin: 50px 50px; transform: scale(0.91); animation: 1.11111s linear 0.529101s 1 normal forwards running breath-51b700d2-ba8b-4dc7-9191-eaba9165fa6e;"><path stroke-miterlimit="10" stroke-linecap="round" stroke-width="3.5" stroke="#333" fill="none" d="M41.565 23.876v-7.688A7.688 7.688 0 0 1 49.253 8.5h0a7.688 7.688 0 0 1 7.688 7.688v7.688" style="stroke: rgb(51, 51, 51);"></path></g></g><linearGradient y2="74.958" x2="68.182" y1="33.672" x1="31.167" gradientUnits="userSpaceOnUse" id="SVGID_1_"><stop stop-color="#e0e0e0" offset="0" style="stop-color: rgb(224, 224, 224); fill: rgb(0, 0, 0);"></stop><stop stop-color="#ccc" offset="1" style="stop-color: rgb(204, 204, 204); fill: rgb(0, 0, 0);"></stop></linearGradient><g class="ldl-layer"><g class="ldl-ani" style="transform-origin: 50px 50px; transform: scale(0.91); animation: 1.11111s linear 0.502646s 1 normal forwards running breath-51b700d2-ba8b-4dc7-9191-eaba9165fa6e;"><circle fill="url(#SVGID_1_)" r="31.89" cy="53.844" cx="49.253"></circle></g></g><g class="ldl-layer"><g class="ldl-ani" style="transform-origin: 50px 50px; transform: scale(0.91); animation: 1.11111s linear 0.47619s 1 normal forwards running breath-51b700d2-ba8b-4dc7-9191-eaba9165fa6e;"><path stroke-miterlimit="10" stroke-width="3.5" stroke="#333" fill="#fff" d="M49.253 53.844h0a2.501 2.501 0 0 1-2.501-2.501V34.349a2.501 2.501 0 0 1 2.501-2.501h0a2.501 2.501 0 0 1 2.501 2.501v16.994a2.502 2.502 0 0 1-2.501 2.501z" style="fill: rgb(255, 255, 255); stroke: rgb(51, 51, 51);"></path></g></g><g class="ldl-layer"><g class="ldl-ani" style="transform-origin: 50px 50px; transform: scale(0.91); animation: 1.11111s linear 0.449735s 1 normal forwards running breath-51b700d2-ba8b-4dc7-9191-eaba9165fa6e;"><path d="M49.253 21.954v9.894" stroke-miterlimit="10" stroke-linecap="round" stroke-width="3.5" stroke="#333" fill="none" style="stroke: rgb(51, 51, 51);"></path></g></g><g class="ldl-layer"><g class="ldl-ani" style="transform-origin: 50px 50px; transform: scale(0.91); animation: 1.11111s linear 0.42328s 1 normal forwards running breath-51b700d2-ba8b-4dc7-9191-eaba9165fa6e;"><path d="M71.802 31.294l-6.996 6.997" stroke-miterlimit="10" stroke-linecap="round" stroke-width="3.5" stroke="#333" fill="none" style="stroke: rgb(51, 51, 51);"></path></g></g><g class="ldl-layer"><g class="ldl-ani" style="transform-origin: 50px 50px; transform: scale(0.91); animation: 1.11111s linear 0.396825s 1 normal forwards running breath-51b700d2-ba8b-4dc7-9191-eaba9165fa6e;"><path d="M81.143 53.844h-9.895" stroke-miterlimit="10" stroke-linecap="round" stroke-width="3.5" stroke="#333" fill="none" style="stroke: rgb(51, 51, 51);"></path></g></g><g class="ldl-layer"><g class="ldl-ani" style="transform-origin: 50px 50px; transform: scale(0.91); animation: 1.11111s linear 0.37037s 1 normal forwards running breath-51b700d2-ba8b-4dc7-9191-eaba9165fa6e;"><path d="M71.802 76.394l-6.996-6.997" stroke-miterlimit="10" stroke-linecap="round" stroke-width="3.5" stroke="#333" fill="none" style="stroke: rgb(51, 51, 51);"></path></g></g><g class="ldl-layer"><g class="ldl-ani" style="transform-origin: 50px 50px; transform: scale(0.91); animation: 1.11111s linear 0.343915s 1 normal forwards running breath-51b700d2-ba8b-4dc7-9191-eaba9165fa6e;"><path d="M49.253 85.734V75.84" stroke-miterlimit="10" stroke-linecap="round" stroke-width="3.5" stroke="#333" fill="none" style="stroke: rgb(51, 51, 51);"></path></g></g><g class="ldl-layer"><g class="ldl-ani" style="transform-origin: 50px 50px; transform: scale(0.91); animation: 1.11111s linear 0.31746s 1 normal forwards running breath-51b700d2-ba8b-4dc7-9191-eaba9165fa6e;"><path d="M26.703 76.394l6.996-6.997" stroke-miterlimit="10" stroke-linecap="round" stroke-width="3.5" stroke="#333" fill="none" style="stroke: rgb(51, 51, 51);"></path></g></g><g class="ldl-layer"><g class="ldl-ani" style="transform-origin: 50px 50px; transform: scale(0.91); animation: 1.11111s linear 0.291005s 1 normal forwards running breath-51b700d2-ba8b-4dc7-9191-eaba9165fa6e;"><path d="M17.362 53.844h9.895" stroke-miterlimit="10" stroke-linecap="round" stroke-width="3.5" stroke="#333" fill="none" style="stroke: rgb(51, 51, 51);"></path></g></g><g class="ldl-layer"><g class="ldl-ani" style="transform-origin: 50px 50px; transform: scale(0.91); animation: 1.11111s linear 0.26455s 1 normal forwards running breath-51b700d2-ba8b-4dc7-9191-eaba9165fa6e;"><path d="M26.703 31.294l6.996 6.997" stroke-miterlimit="10" stroke-linecap="round" stroke-width="3.5" stroke="#333" fill="none" style="stroke: rgb(51, 51, 51);"></path></g></g><g class="ldl-layer"><g class="ldl-ani" style="transform-origin: 50px 50px; transform: scale(0.91); animation: 1.11111s linear 0.238095s 1 normal forwards running breath-51b700d2-ba8b-4dc7-9191-eaba9165fa6e;"><path opacity=".2" d="M49.253 21.954c-15.24 0-27.975 10.693-31.132 24.984a41.152 41.152 0 0 1 1.978-4.599c7.93-15.726 24.245-23.49 36.441-17.34 12.196 6.15 15.655 23.884 7.725 39.61-5.704 11.311-15.747 18.503-25.474 19.36a31.837 31.837 0 0 0 10.462 1.765c17.612 0 31.89-14.278 31.89-31.89 0-17.613-14.278-31.89-31.89-31.89z" style="fill: rgb(0, 0, 0);"></path></g></g><g class="ldl-layer"><g class="ldl-ani" style="transform-origin: 50px 50px; transform: scale(0.91); animation: 1.11111s linear 0.21164s 1 normal forwards running breath-51b700d2-ba8b-4dc7-9191-eaba9165fa6e;"><path stroke-miterlimit="10" stroke-width="3.5" stroke="#333" fill="#fff" d="M49.253 53.844h0a2.501 2.501 0 0 1 2.501 2.501v9.307a2.501 2.501 0 0 1-2.501 2.501h0a2.501 2.501 0 0 1-2.501-2.501v-9.307a2.5 2.5 0 0 1 2.501-2.501z" style="fill: rgb(255, 255, 255); stroke: rgb(51, 51, 51);"></path></g></g><g class="ldl-layer"><g class="ldl-ani" style="transform-origin: 50px 50px; transform: scale(0.91); animation: 1.11111s linear 0.185185s 1 normal forwards running breath-51b700d2-ba8b-4dc7-9191-eaba9165fa6e;"><path stroke-miterlimit="10" stroke-linecap="round" stroke-width="3.5" stroke="#fff" fill="none" d="M32.612 40.459a21.456 21.456 0 0 1 6.462-5.393" style="stroke: rgb(255, 255, 255);"></path></g></g><g class="ldl-layer"><g class="ldl-ani" style="transform-origin: 50px 50px; transform: scale(0.91); animation: 1.11111s linear 0.15873s 1 normal forwards running breath-51b700d2-ba8b-4dc7-9191-eaba9165fa6e;"><path stroke-miterlimit="10" stroke-linecap="round" stroke-width="3.5" stroke="#fff" fill="none" d="M29.269 46.297c.18-.477.377-.945.589-1.405" style="stroke: rgb(255, 255, 255);"></path></g></g><g class="ldl-layer"><g class="ldl-ani" style="transform-origin: 50px 50px; transform: scale(0.91); animation: 1.11111s linear 0.132275s 1 normal forwards running breath-51b700d2-ba8b-4dc7-9191-eaba9165fa6e;"><path fill="#f5e6c8" opacity=".3" d="M75.377 53.844c0-3.564-.719-6.962-2.017-10.06L39.192 77.951a25.975 25.975 0 0 0 10.06 2.017c.105 0 .208-.007.312-.008l25.804-25.804c.002-.104.009-.207.009-.312z" style="fill: rgb(245, 230, 200);"></path></g></g><g class="ldl-layer"><g class="ldl-ani" style="transform-origin: 50px 50px; transform: scale(0.91); animation: 1.11111s linear 0.10582s 1 normal forwards running breath-51b700d2-ba8b-4dc7-9191-eaba9165fa6e;"><path stroke-miterlimit="10" stroke-width="3.5" stroke="#333" fill="#e15b64" d="M49.253 90.005c-19.939 0-36.161-16.222-36.161-36.161s16.222-36.161 36.161-36.161 36.161 16.222 36.161 36.161-16.222 36.161-36.161 36.161zm0-63.78c-15.229 0-27.619 12.39-27.619 27.619s12.39 27.619 27.619 27.619 27.619-12.39 27.619-27.619-12.39-27.619-27.619-27.619z" style="fill: rgb(225, 91, 100); stroke: rgb(51, 51, 51);"></path></g></g><g class="ldl-layer"><g class="ldl-ani" style="transform-origin: 50px 50px; transform: scale(0.91); animation: 1.11111s linear 0.0793651s 1 normal forwards running breath-51b700d2-ba8b-4dc7-9191-eaba9165fa6e;"><path opacity=".2" d="M75.377 53.844c0 14.405-11.719 26.124-26.124 26.124V91.5c20.764 0 37.656-16.893 37.656-37.656S70.016 16.188 49.253 16.188V27.72c14.405-.001 26.124 11.719 26.124 26.124z" style="fill: rgb(0, 0, 0);"></path></g></g><g class="ldl-layer"><g class="ldl-ani" style="transform-origin: 50px 50px; transform: scale(0.91); animation: 1.11111s linear 0.0529101s 1 normal forwards running breath-51b700d2-ba8b-4dc7-9191-eaba9165fa6e;"><circle stroke-miterlimit="10" stroke-width="3.5" stroke="#333" fill="#f8b26a" r="5.125" cy="53.844" cx="49.253" style="fill: rgb(248, 178, 106); stroke: rgb(51, 51, 51);"></circle></g></g><g class="ldl-layer"><g class="ldl-ani" style="transform-origin: 50px 50px; transform: scale(0.91); animation: 1.11111s linear 0.026455s 1 normal forwards running breath-51b700d2-ba8b-4dc7-9191-eaba9165fa6e;"><path fill="#f5e6c8" opacity=".3" d="M66.224 34.007L29.416 70.815a26.319 26.319 0 0 0 2.225 2.305L68.53 36.231a26.608 26.608 0 0 0-2.306-2.224z" style="fill: rgb(245, 230, 200);"></path></g></g><g class="ldl-layer"><g class="ldl-ani" style="transform-origin: 50px 50px; transform: scale(0.91); animation: 1.11111s linear 0s 1 normal forwards running breath-51b700d2-ba8b-4dc7-9191-eaba9165fa6e;"><path fill="#f5e6c8" opacity=".3" d="M70.298 38.389l-36.5 36.501a26.176 26.176 0 0 0 2.756 1.774l35.518-35.518a26.19 26.19 0 0 0-1.774-2.757z" style="fill: rgb(245, 230, 200);"></path></g></g><metadata xmlns:d="https://loading.io/stock/"><d:name>clock</d:name><d:tags>clock,time,6 o'clock,hour</d:tags><d:license>by</d:license><d:slug>macoda</d:slug></metadata></g></g><style id="breath-51b700d2-ba8b-4dc7-9191-eaba9165fa6e" data-anikit="">@keyframes breath-51b700d2-ba8b-4dc7-9191-eaba9165fa6e
{
  0% {
    animation-timing-function: cubic-bezier(0.9647,0.2413,-0.0705,0.7911);
    transform: scale(0.9099999999999999);
  }
  51% {
    animation-timing-function: cubic-bezier(0.9226,0.2631,-0.0308,0.7628);
    transform: scale(1.02994);
  }
  100% {
    transform: scale(0.9099999999999999);
  }
}</style><!-- [ldio] generated by https://loading.io/ --></svg>