<?xml version="1.0" encoding="utf-8"?>
<svg xml:space="preserve" viewBox="0 0 100 100" y="0" x="0" xmlns="http://www.w3.org/2000/svg" id="圖層_1" version="1.1" style="height: 100%; width: 100%; background: none; shape-rendering: auto;" width="100px" height="100px"><g class="ldl-scale" style="transform-origin: 50% 50%; transform: rotate(0deg) scale(0.8, 0.8);"><g class="ldl-ani"><g class="ldl-layer"><g class="ldl-ani" style="transform-origin: 50px 50px; transform: scale(0.91); animation: 1.11111s linear 0.37037s 1 normal forwards running breath-ce79cd54-fb9e-40d6-a79d-523d9c38ae30;"><path fill="#849b87" d="M83.528 15.532H57.624L43.452 68.425l25.631-.004C71.2 76.921 75.5 81.907 84 84.46V68.421l-.354.008c4.955 0 8.854-3.899 8.854-8.854V24.631c0-4.956-4.017-9.099-8.972-9.099z" style="fill: rgb(132, 155, 135);"></path></g></g><g class="ldl-layer"><g class="ldl-ani" style="transform-origin: 50px 50px; transform: scale(0.91); animation: 1.11111s linear 0.185185s 1 normal forwards running breath-ce79cd54-fb9e-40d6-a79d-523d9c38ae30;"><path fill="#abbd81" d="M16.472 15.532c-4.955 0-8.972 4.143-8.972 9.099v34.944c0 4.796 3.766 8.591 8.5 8.831V84.469c8.498-2.552 12.68-7.544 14.798-16.041l12.654-.002 14.173-52.893H16.472z" style="fill: rgb(171, 189, 129);"></path></g></g><g class="ldl-layer"><g class="ldl-ani" style="transform-origin: 50px 50px; transform: scale(0.91); animation: 1.11111s linear 0s 1 normal forwards running breath-ce79cd54-fb9e-40d6-a79d-523d9c38ae30;"><path fill="#abbd81" d="M16.472 15.532c-4.955 0-8.972 4.143-8.972 9.099v34.944c0 4.796 3.766 8.591 8.5 8.831V84.469c8.498-2.552 12.68-7.544 14.798-16.041l12.654-.002 14.173-52.893H16.472z" style="fill: rgb(171, 189, 129);"></path></g></g><metadata xmlns:d="https://loading.io/stock/"><d:name>colloquy</d:name><d:tags>discussion,interview,communication,exchange,colloquy,conversation</d:tags><d:license>pro</d:license><d:slug>7qr6kj</d:slug></metadata></g></g><style id="breath-ce79cd54-fb9e-40d6-a79d-523d9c38ae30" data-anikit="">@keyframes breath-ce79cd54-fb9e-40d6-a79d-523d9c38ae30
{
  0% {
    animation-timing-function: cubic-bezier(0.9647,0.2413,-0.0705,0.7911);
    transform: scale(0.9099999999999999);
  }
  51% {
    animation-timing-function: cubic-bezier(0.9226,0.2631,-0.0308,0.7628);
    transform: scale(1.02994);
  }
  100% {
    transform: scale(0.9099999999999999);
  }
}</style><!-- [ldio] generated by https://loading.io/ --></svg>