<?xml version="1.0" encoding="utf-8"?>
<svg xml:space="preserve" viewBox="0 0 100 100" y="0" x="0" xmlns="http://www.w3.org/2000/svg" id="圖層_1" version="1.1" style="height: 100%; width: 100%; background: none; shape-rendering: auto;" width="100px" height="100px"><g class="ldl-scale" style="transform-origin: 50% 50%; transform: rotate(0deg) scale(0.8, 0.8);"><g class="ldl-ani"><g class="ldl-layer"><g class="ldl-ani" style="transform: scale(0.91); transform-origin: 50px 50px; animation: 1.11111s linear -0.634921s infinite normal forwards running breath-3ee7a5b2-7426-4270-9f92-67271fe52029;"><path d="M25.7 17.1L12.2 37.5h22.6l5.4-20.4z" fill="#77a4bd" style="fill: rgb(119, 164, 189);"></path></g></g><g class="ldl-layer"><g class="ldl-ani" style="transform: scale(0.91); transform-origin: 50px 50px; animation: 1.11111s linear -0.714286s infinite normal forwards running breath-3ee7a5b2-7426-4270-9f92-67271fe52029;"><path d="M74.3 17.1H59.8l5.4 20.4h22.6z" fill="#e0e0e0" style="fill: rgb(224, 224, 224);"></path></g></g><g class="ldl-layer"><g class="ldl-ani" style="transform: scale(0.91); transform-origin: 50px 50px; animation: 1.11111s linear -0.793651s infinite normal forwards running breath-3ee7a5b2-7426-4270-9f92-67271fe52029;"><path d="M40.2 17.1l-5.4 20.4h30.4l-5.4-20.4z" fill="#a0c8d7" style="fill: rgb(160, 200, 215);"></path></g></g><g class="ldl-layer"><g class="ldl-ani" style="transform: scale(0.91); transform-origin: 50px 50px; animation: 1.11111s linear -0.873016s infinite normal forwards running breath-3ee7a5b2-7426-4270-9f92-67271fe52029;"><path d="M12.2 37.5L50 82.9 34.8 37.5z" fill="#77a4bd" style="fill: rgb(119, 164, 189);"></path></g></g><g class="ldl-layer"><g class="ldl-ani" style="transform: scale(0.91); transform-origin: 50px 50px; animation: 1.11111s linear -0.952381s infinite normal forwards running breath-3ee7a5b2-7426-4270-9f92-67271fe52029;"><path d="M65.2 37.5L50 82.9l37.8-45.4z" fill="#e0e0e0" style="fill: rgb(224, 224, 224);"></path></g></g><g class="ldl-layer"><g class="ldl-ani" style="transform: scale(0.91); transform-origin: 50px 50px; animation: 1.11111s linear -1.03175s infinite normal forwards running breath-3ee7a5b2-7426-4270-9f92-67271fe52029;"><path d="M50 37.5H34.8L50 82.9l15.2-45.4z" fill="#a0c8d7" style="fill: rgb(160, 200, 215);"></path></g></g><g class="ldl-layer"><g class="ldl-ani" style="transform: scale(0.91); transform-origin: 50px 50px; animation: 1.11111s linear -1.11111s infinite normal forwards running breath-3ee7a5b2-7426-4270-9f92-67271fe52029;"><path d="M90 37.8v-.3-.3-.3c0-.1-.1-.2-.1-.3v-.1l-.1-.1c0-.1 0-.1-.1-.2L76.1 15.9c-.4-.6-1.1-1-1.8-1H25.7c-.7 0-1.4.4-1.8 1L10.3 36.3s0 .1-.1.2l-.1.1v.1c0 .1-.1.2-.1.3V37.9c0 .1.1.2.1.3 0 .1.1.2.1.3v.1c0 .1.1.1.1.2s.1.1.1.2l37.8 45.5.3.3h.2c.1 0 .1.1.2.1h.1c.1 0 .2.1.2.1h.2c.2 0 .3.1.5.1s.3 0 .5-.1h.1s.1 0 .1-.1c.1 0 .2-.1.2-.1h.1c.1 0 .1-.1.2-.1h.2l.3-.3 37.8-45.5c0-.1.1-.1.1-.2s.1-.1.1-.2v-.1c0-.1.1-.2.1-.3.2 0 .3-.1.3-.3zM73.1 19.2l10.7 16.1H66.9l-4.3-16.1h10.5zm-31.2 0h16.2l4.3 16.1H37.6l2.2-8.3 2.1-7.8zm7 53.7L37.8 39.7h24.4l-.8 2.3L50 76.1l-1.1-3.2zm-22-53.7h10.5l-2.2 8.3-2.1 7.8H16.2l10.7-16.1zM16.8 39.7h16.4l11.1 33-27.5-33zm39 32.9l11.1-33h16.4l-27.5 33z" style="fill: rgb(0, 0, 0);"></path></g></g><metadata xmlns:d="https://loading.io/stock/"><d:name>diamond</d:name><d:tags>gem,jewelry,money,treasure,value,luxury,ruby,diamond,web application</d:tags><d:license>pro</d:license><d:slug>rlg6wv</d:slug></metadata></g></g><style id="breath-3ee7a5b2-7426-4270-9f92-67271fe52029" data-anikit="">@keyframes breath-3ee7a5b2-7426-4270-9f92-67271fe52029
{
  0% {
    animation-timing-function: cubic-bezier(0.9647,0.2413,-0.0705,0.7911);
    transform: scale(0.9099999999999999);
  }
  51% {
    animation-timing-function: cubic-bezier(0.9226,0.2631,-0.0308,0.7628);
    transform: scale(1.02994);
  }
  100% {
    transform: scale(0.9099999999999999);
  }
}</style><!-- [ldio] generated by https://loading.io/ --></svg>