<?xml version="1.0" encoding="utf-8"?>
<svg xml:space="preserve" viewBox="0 0 100 100" y="0" x="0" xmlns="http://www.w3.org/2000/svg" id="Layer_1" version="1.1" style="height: 100%; width: 100%; background: none; shape-rendering: auto;" width="100px" height="100px"><g class="ldl-scale" style="transform-origin: 50% 50%; transform: rotate(0deg) scale(0.8, 0.8);"><g class="ldl-ani"><g class="ldl-layer"><g class="ldl-ani" style="transform-origin: 50px 50px; transform: scale(0.91); animation: 1.11111s linear 0.416667s 1 normal forwards running breath-dfeb2e3e-f701-4b82-b1de-6ac4d30b4e0b;"><path fill="#e0e0e0" d="M77.48 28.757L61.231 12.508c-1.191-1.166-2.28-1.727-3.276-1.732H22.589c-.943 0-1.711.762-1.711 1.698v75.051c0 .936.768 1.698 1.711 1.698h54.822c.943 0 1.711-.762 1.711-1.698V32.033c.009-.998-.508-2.085-1.642-3.276z" style="fill: rgb(224, 224, 224);"></path></g></g><g class="ldl-layer"><g class="ldl-ani" style="transform-origin: 50px 50px; transform: scale(0.91); animation: 1.11111s linear 0.277778s 1 normal forwards running breath-dfeb2e3e-f701-4b82-b1de-6ac4d30b4e0b;"><path fill="#666" d="M62.414 28.757H77.48L61.231 12.508v15.066c0 .652.531 1.183 1.183 1.183z" style="fill: rgb(102, 102, 102);"></path></g></g><g class="ldl-layer"><g class="ldl-ani" style="transform-origin: 50px 50px; transform: scale(0.91); animation: 1.11111s linear 0.138889s 1 normal forwards running breath-dfeb2e3e-f701-4b82-b1de-6ac4d30b4e0b;"><path fill="#323232" d="M62.256 8.286a2.676 2.676 0 0 0-1.902-.786H22.589c-2.75 0-4.987 2.232-4.987 4.975v75.051c0 2.743 2.237 4.975 4.987 4.975h54.822c2.75 0 4.987-2.232 4.987-4.975V31.085a6.538 6.538 0 0 0-1.937-4.661L62.256 8.286zm-1.025 4.222L77.48 28.757H62.414a1.185 1.185 0 0 1-1.183-1.183m17.891 59.951c0 .936-.767 1.698-1.711 1.698H22.589a1.707 1.707 0 0 1-1.711-1.698v-75.05c0-.936.768-1.698 1.711-1.698h35.366v16.798c0 2.459 2 4.459 4.459 4.459h16.708v55.491z" style="fill: rgb(50, 50, 50);"></path></g></g><g class="ldl-layer"><g class="ldl-ani" style="transform-origin: 50px 50px; transform: scale(0.91); animation: 1.11111s linear 0s 1 normal forwards running breath-dfeb2e3e-f701-4b82-b1de-6ac4d30b4e0b;"><path fill="#323232" d="M60.861 74.8H16.139A3.139 3.139 0 0 1 13 71.661V55.939a3.14 3.14 0 0 1 3.139-3.139h44.723a3.14 3.14 0 0 1 3.139 3.139v15.723a3.14 3.14 0 0 1-3.14 3.138z" style="fill: rgb(50, 50, 50);"></path></g></g><metadata xmlns:d="https://loading.io/stock/"><d:name>file</d:name><d:tags>file,paper,document,form,label,tag,ribbon</d:tags><d:license>by</d:license><d:slug>c3248f</d:slug></metadata></g></g><style id="breath-dfeb2e3e-f701-4b82-b1de-6ac4d30b4e0b" data-anikit="">@keyframes breath-dfeb2e3e-f701-4b82-b1de-6ac4d30b4e0b
{
  0% {
    animation-timing-function: cubic-bezier(0.9647,0.2413,-0.0705,0.7911);
    transform: scale(0.9099999999999999);
  }
  51% {
    animation-timing-function: cubic-bezier(0.9226,0.2631,-0.0308,0.7628);
    transform: scale(1.02994);
  }
  100% {
    transform: scale(0.9099999999999999);
  }
}</style><!-- [ldio] generated by https://loading.io/ --></svg>