<?xml version="1.0" encoding="utf-8"?>
<svg xml:space="preserve" viewBox="0 0 100 100" y="0" x="0" xmlns="http://www.w3.org/2000/svg" id="圖層_1" version="1.1" style="height: 100%; width: 100%; background: none; shape-rendering: auto;" width="100px" height="100px"><g class="ldl-scale" style="transform-origin: 50% 50%; transform: rotate(0deg) scale(0.8, 0.8);"><g class="ldl-ani"><g class="ldl-layer"><g class="ldl-ani" style="transform-origin: 50px 50px; transform: scale(0.91); animation: 1.11111s linear 0.462963s 1 normal forwards running breath-6fbd314d-98de-45be-860b-f68843ad1dc5;"><path fill="#333" d="M74.3 30.4c-3.8-.3-7.3.5-10.4 2.1-.8.4-1.6.6-2.5.6H38.6c-.9 0-1.7-.2-2.5-.6-3.1-1.6-6.6-2.4-10.4-2.1-10.2.7-18.3 9.5-18.2 19.7.1 10.8 8.9 19.5 19.7 19.5 5.5 0 10.5-2.3 14.1-5.9 1.1-1.1 2.6-1.7 4.1-1.7h9.4c1.5 0 3 .6 4.1 1.7 3.6 3.7 8.5 5.9 14.1 5.9 10.8 0 19.6-8.7 19.7-19.5-.1-10.2-8.2-19-18.4-19.7z" style="fill: rgb(51, 51, 51);"></path></g></g><g class="ldl-layer"><g class="ldl-ani" style="transform-origin: 50px 50px; transform: scale(0.91); animation: 1.11111s linear 0.37037s 1 normal forwards running breath-6fbd314d-98de-45be-860b-f68843ad1dc5;"><path fill="#e0e0e0" d="M35.7 47.4h-6v-6c0-.6-.5-1.1-1.1-1.1h-2.9c-.6 0-1.1.5-1.1 1.1v6h-6c-.6 0-1.1.5-1.1 1.1v2.9c0 .6.5 1.1 1.1 1.1h6v6c0 .6.5 1.1 1.1 1.1h2.9c.6 0 1.1-.5 1.1-1.1v-6h6c.6 0 1.1-.5 1.1-1.1v-2.9c.1-.6-.4-1.1-1.1-1.1z" style="fill: rgb(224, 224, 224);"></path></g></g><g class="ldl-layer"><g class="ldl-ani"><g><g class="ldl-layer"><g class="ldl-ani" style="transform-origin: 50px 50px; transform: scale(0.91); animation: 1.11111s linear 0.277778s 1 normal forwards running breath-6fbd314d-98de-45be-860b-f68843ad1dc5;"><circle fill="#f8b26a" r="3.4" cy="58" cx="72.8" style="fill: rgb(248, 178, 106);"></circle></g></g><g class="ldl-layer"><g class="ldl-ani" style="transform-origin: 50px 50px; transform: scale(0.91); animation: 1.11111s linear 0.185185s 1 normal forwards running breath-6fbd314d-98de-45be-860b-f68843ad1dc5;"><circle fill="#77a4bd" r="3.4" cy="50" cx="80.8" style="fill: rgb(119, 164, 189);"></circle></g></g><g class="ldl-layer"><g class="ldl-ani" style="transform-origin: 50px 50px; transform: scale(0.91); animation: 1.11111s linear 0.0925926s 1 normal forwards running breath-6fbd314d-98de-45be-860b-f68843ad1dc5;"><circle fill="#849b87" r="3.4" cy="42" cx="72.8" style="fill: rgb(132, 155, 135);"></circle></g></g><g class="ldl-layer"><g class="ldl-ani" style="transform-origin: 50px 50px; transform: scale(0.91); animation: 1.11111s linear 0s 1 normal forwards running breath-6fbd314d-98de-45be-860b-f68843ad1dc5;"><circle fill="#f47e60" r="3.4" cy="50" cx="64.8" style="fill: rgb(244, 126, 96);"></circle></g></g></g></g></g><metadata xmlns:d="https://loading.io/stock/"><d:name>game</d:name><d:tags>gamepad,controller,joystick,console,nes,snes,nintendo,game,web application</d:tags><d:license>pro</d:license><d:slug>1t0dg</d:slug></metadata></g></g><style id="breath-6fbd314d-98de-45be-860b-f68843ad1dc5" data-anikit="">@keyframes breath-6fbd314d-98de-45be-860b-f68843ad1dc5
{
  0% {
    animation-timing-function: cubic-bezier(0.9647,0.2413,-0.0705,0.7911);
    transform: scale(0.9099999999999999);
  }
  51% {
    animation-timing-function: cubic-bezier(0.9226,0.2631,-0.0308,0.7628);
    transform: scale(1.02994);
  }
  100% {
    transform: scale(0.9099999999999999);
  }
}</style><!-- [ldio] generated by https://loading.io/ --></svg>