<?xml version="1.0" encoding="utf-8"?>
<svg xml:space="preserve" viewBox="0 0 100 100" y="0" x="0" xmlns="http://www.w3.org/2000/svg" id="圖層_1" version="1.1" style="height: 100%; width: 100%; background: none; shape-rendering: auto;" width="100px" height="100px"><g class="ldl-scale" style="transform-origin: 50% 50%; transform: rotate(0deg) scale(0.8, 0.8);"><g class="ldl-ani"><g class="ldl-layer"><g class="ldl-ani" style="transform-origin: 50px 50px; opacity: 1; animation: 1.11111s linear 0.486111s 1 normal forwards running blink-cfc69311-2214-43a6-8233-e996875c63d3;"><path d="M69.676 18.71v11.828" stroke-miterlimit="10" stroke-width="1.5" stroke="#000" fill="none" style="stroke: rgb(0, 0, 0);"></path></g></g><g class="ldl-layer"><g class="ldl-ani" style="transform-origin: 50px 50px; opacity: 1; animation: 1.11111s linear 0.416667s 1 normal forwards running blink-cfc69311-2214-43a6-8233-e996875c63d3;"><circle r="1.927" cy="25.369" cx="69.676" style="fill: rgb(0, 0, 0);"></circle></g></g><g class="ldl-layer"><g class="ldl-ani" style="transform-origin: 50px 50px; opacity: 1; animation: 1.11111s linear 0.347222s 1 normal forwards running blink-cfc69311-2214-43a6-8233-e996875c63d3;"><path d="M71.603 39.315H67.75v-9.068a1.926 1.926 0 1 1 3.852 0v9.068z" style="fill: rgb(0, 0, 0);"></path></g></g><g class="ldl-layer"><g class="ldl-ani" style="transform-origin: 50px 50px; opacity: 1; animation: 1.11111s linear 0.277778s 1 normal forwards running blink-cfc69311-2214-43a6-8233-e996875c63d3;"><path d="M60.27 51.083l-9.318 17.608c-.365.975-1.54.975-1.905 0L39.73 51.083c-7.257 3.584-12.23 10.83-12.23 19.205v14.467c0 2.984 2.52 5.403 5.628 5.403h33.745c3.108 0 5.628-2.419 5.628-5.403V70.288c-.001-8.375-4.974-15.621-12.231-19.205z" style="fill: rgb(0, 0, 0);"></path></g></g><g class="ldl-layer"><g class="ldl-ani" style="transform-origin: 50px 50px; opacity: 1; animation: 1.11111s linear 0.208333s 1 normal forwards running blink-cfc69311-2214-43a6-8233-e996875c63d3;"><path fill="#ccc" d="M50.953 68.691l9.318-17.608a23.128 23.128 0 0 0-10.27-2.397c-3.704 0-7.189.875-10.27 2.397l9.318 17.608c.363.975 1.539.975 1.904 0z" style="fill: rgb(204, 204, 204);"></path></g></g><g class="ldl-layer"><g class="ldl-ani" style="transform-origin: 50px 50px; opacity: 1; animation: 1.11111s linear 0.138889s 1 normal forwards running blink-cfc69311-2214-43a6-8233-e996875c63d3;"><circle fill="#c7b299" r="14.513" cy="39.172" cx="50" style="fill: rgb(199, 178, 153);"></circle></g></g><g class="ldl-layer"><g class="ldl-ani" style="transform-origin: 50px 50px; opacity: 1; animation: 1.11111s linear 0.0694444s 1 normal forwards running blink-cfc69311-2214-43a6-8233-e996875c63d3;"><path fill="#4d4d4d" d="M61.747 31.663c-7.831 5.378-15.662 5.378-23.493 0a3.837 3.837 0 0 1-1.646-3.165v-8.963c8.929 5.21 17.857 5.21 26.786 0v8.963a3.843 3.843 0 0 1-1.647 3.165z" style="fill: rgb(77, 77, 77);"></path></g></g><g class="ldl-layer"><g class="ldl-ani" style="transform-origin: 50px 50px; opacity: 1; animation: 1.11111s linear 0s 1 normal forwards running blink-cfc69311-2214-43a6-8233-e996875c63d3;"><path d="M72.865 19.591l-22.51 8.06a.88.88 0 0 1-.711 0l-22.51-8.06c-.861-.309-.861-1.305 0-1.614l22.51-8.06a.88.88 0 0 1 .711 0l22.51 8.06c.861.309.861 1.305 0 1.614z" style="fill: rgb(0, 0, 0);"></path></g></g><metadata xmlns:d="https://loading.io/stock/"><d:name>graduate</d:name><d:tags>job,master,phd,student,bachelor,graduate,people</d:tags><d:license>pro</d:license><d:slug>8bk2mc</d:slug></metadata></g></g><style id="blink-cfc69311-2214-43a6-8233-e996875c63d3" data-anikit="">@keyframes blink-cfc69311-2214-43a6-8233-e996875c63d3 {
  0% { opacity: 1; }
  49.75% { opacity: 1; }
  50.25% { opacity: 0; }
  99.5% { opacity: 0; }
  100% { opacity: 1; }
}</style><!-- [ldio] generated by https://loading.io/ --></svg>