<?xml version="1.0" encoding="utf-8"?>
<svg xml:space="preserve" viewBox="0 0 100 100" y="0" x="0" xmlns="http://www.w3.org/2000/svg" id="圖層_1" version="1.1" style="height: 100%; width: 100%; background: none; shape-rendering: auto;" width="100px" height="100px"><g class="ldl-scale" style="transform-origin: 50% 50%; transform: rotate(0deg) scale(0.8, 0.8);"><g class="ldl-ani" style="transform-origin: 50px 50px; transform: rotate(0deg); animation: 4.16667s linear 0s infinite normal forwards running spin-167baa29-d3e7-436e-a9eb-1c4072fe99c4;"><g class="ldl-layer"><g class="ldl-ani" style="transform-origin: 50px 50px;"><path fill="#a0c8d7" d="M61.395 30.204a22.908 22.908 0 0 1 6.063 5.088l7.212-6.051a32.343 32.343 0 0 0-8.568-7.19c-4.738-2.742-10.235-4.319-16.103-4.319s-11.365 1.577-16.103 4.319a32.359 32.359 0 0 0-8.568 7.19l7.212 6.051a22.87 22.87 0 0 1 6.063-5.088l5.702 9.876a11.334 11.334 0 0 1 11.388 0l5.702-9.876z" style="fill: rgb(160, 200, 215);"></path></g></g><g class="ldl-layer"><g class="ldl-ani" style="transform-origin: 50px 50px;"><path fill="#abbd81" d="M44.25 59.598a11.328 11.328 0 0 1-5.694-9.863H27.152c.003-2.665.47-5.305 1.375-7.795l-8.846-3.22a32.358 32.358 0 0 0-1.943 11.015 32.052 32.052 0 0 0 4.311 16.105 32.04 32.04 0 0 0 11.792 11.786 32.35 32.35 0 0 0 10.511 3.825l1.635-9.271a22.869 22.869 0 0 1-7.438-2.707l5.701-9.875z" style="fill: rgb(171, 189, 129);"></path></g></g><g class="ldl-layer"><g class="ldl-ani" style="transform-origin: 50px 50px;"><path fill="#f47e60" d="M80.055 38.871l-8.846 3.22a22.88 22.88 0 0 1 1.375 7.795H61.18a11.335 11.335 0 0 1-5.694 9.863l5.702 9.876a22.9 22.9 0 0 1-7.438 2.707l1.635 9.271a32.357 32.357 0 0 0 10.511-3.825 32.05 32.05 0 0 0 11.792-11.787 32.042 32.042 0 0 0 4.311-16.105 32.36 32.36 0 0 0-1.944-11.015z" style="fill: rgb(244, 126, 96);"></path></g></g><g class="ldl-layer"><g class="ldl-ani" style="transform-origin: 50px 50px;"><circle fill="#f5e6c8" r="11.893" cy="17.402" cx="49.999" style="fill: rgb(245, 230, 200);"></circle></g></g><g class="ldl-layer"><g class="ldl-ani" style="transform-origin: 50px 50px;"><circle r="11.893" fill="#f5e6c8" cy="66.005" cx="21.763" transform="rotate(-30 21.76 66.006)" style="fill: rgb(245, 230, 200);"></circle></g></g><g class="ldl-layer"><g class="ldl-ani" style="transform-origin: 50px 50px;"><circle r="11.893" fill="#f5e6c8" cy="66.157" cx="77.973" transform="rotate(-60 77.974 66.159)" style="fill: rgb(245, 230, 200);"></circle></g></g><metadata xmlns:d="https://loading.io/stock/"><d:name>group</d:name><d:tags>member,team,harmony,group,unison,group,people</d:tags><d:license>pro</d:license><d:slug>7k1f5d</d:slug></metadata></g></g><style id="spin-167baa29-d3e7-436e-a9eb-1c4072fe99c4" data-anikit="">@keyframes spin-167baa29-d3e7-436e-a9eb-1c4072fe99c4
{
  0% {
    animation-timing-function: cubic-bezier(0.5856,0.0703,0.4143,0.9297);
    transform: rotate(0deg);
  }
  100% {
    transform: rotate(360deg);
  }
}</style><!-- [ldio] generated by https://loading.io/ --></svg>