<?xml version="1.0" encoding="utf-8"?>
<svg xml:space="preserve" viewBox="0 0 100 100" y="0" x="0" xmlns="http://www.w3.org/2000/svg" id="圖層_1" version="1.1" style="height: 100%; width: 100%; background: none; shape-rendering: auto;" width="100px" height="100px"><g class="ldl-scale" style="transform-origin: 50% 50%; transform: rotate(0deg) scale(0.8, 0.8);"><g class="ldl-ani"><g class="ldl-layer"><g class="ldl-ani"><g><g class="ldl-layer"><g class="ldl-ani" style="transform-origin: 50px 50px; transform: scale(0.91); animation: 1.11111s linear 0.47619s 1 normal forwards running breath-4b1a1550-080d-4580-8706-0304f5b39311;"><path fill="#333" d="M52 92.5h-4V58.333a2 2 0 1 1 4 0V92.5z" style="fill: rgb(51, 51, 51);"></path></g></g></g></g></g><g class="ldl-layer"><g class="ldl-ani" style="transform-origin: 50px 50px; transform: scale(0.91); animation: 1.11111s linear 0.396825s 1 normal forwards running breath-4b1a1550-080d-4580-8706-0304f5b39311;"><path fill="#333" d="M48 56.334a2 2 0 0 0-.967 2.658L62.658 92.5h4.413L50.658 57.301A2 2 0 0 0 48 56.334z" style="fill: rgb(51, 51, 51);"></path></g></g><g class="ldl-layer"><g class="ldl-ani" style="transform-origin: 50px 50px; transform: scale(0.91); animation: 1.11111s linear 0.31746s 1 normal forwards running breath-4b1a1550-080d-4580-8706-0304f5b39311;"><path fill="#333" d="M52 56.334a2 2 0 0 0-2.658.967L32.929 92.5h4.413l15.625-33.509A1.999 1.999 0 0 0 52 56.334z" style="fill: rgb(51, 51, 51);"></path></g></g><g class="ldl-layer"><g class="ldl-ani" style="transform-origin: 50px 50px; transform: scale(0.91); animation: 1.11111s linear 0.238095s 1 normal forwards running breath-4b1a1550-080d-4580-8706-0304f5b39311;"><path d="M18.294 29.997h63.411v42.885H18.294z" fill="#f5e6c8" style="fill: rgb(245, 230, 200);"></path></g></g><g class="ldl-layer"><g class="ldl-ani" style="transform-origin: 50px 50px; transform: scale(0.91); animation: 1.11111s linear 0.15873s 1 normal forwards running breath-4b1a1550-080d-4580-8706-0304f5b39311;"><path d="M18.294 29.997h63.411v42.885H18.294z" fill="none"></path></g></g><g class="ldl-layer"><g class="ldl-ani" style="transform-origin: 50px 50px; transform: scale(0.91); animation: 1.11111s linear 0.0793651s 1 normal forwards running breath-4b1a1550-080d-4580-8706-0304f5b39311;"><path d="M85.836 25.867H14.164v51.145H85.836V25.867zm-4.13 47.015H18.294V29.997h63.411v42.885z" style="fill: rgb(0, 0, 0);"></path></g></g><g class="ldl-layer"><g class="ldl-ani" style="transform-origin: 50px 50px; transform: scale(0.91); animation: 1.11111s linear 0s 1 normal forwards running breath-4b1a1550-080d-4580-8706-0304f5b39311;"><path d="M80.018 7.5L69.344 20.257l4.875-.51-8.754 28.545-5.141-11.428L49.94 54.726l-4.664-5.344-3.7 8.248-2.96-6.158-3.066 7.204-2.78-2.394-2.448 5.822-2.232-3.193-2.729 2.62-4.066-7.085-3 2.839v5.377l2.081-1.968 4.085 7.116 3.042-2.92 3.676 5.257 3.111-7.401 2.761 2.378 1.781-4.185 2.867 5.962 4.645-10.354 4.234 4.854L59.88 45.4l6.278 13.956 11.796-38.464 3.751 3.155z" fill="#849b87" style="fill: rgb(132, 155, 135);"></path></g></g><metadata xmlns:d="https://loading.io/stock/"><d:name>growth</d:name><d:tags>canvas,increase,profit,revenue,growth,business</d:tags><d:license>pro</d:license><d:slug>cw20e7</d:slug></metadata></g></g><style id="breath-4b1a1550-080d-4580-8706-0304f5b39311" data-anikit="">@keyframes breath-4b1a1550-080d-4580-8706-0304f5b39311
{
  0% {
    animation-timing-function: cubic-bezier(0.9647,0.2413,-0.0705,0.7911);
    transform: scale(0.9099999999999999);
  }
  51% {
    animation-timing-function: cubic-bezier(0.9226,0.2631,-0.0308,0.7628);
    transform: scale(1.02994);
  }
  100% {
    transform: scale(0.9099999999999999);
  }
}</style><!-- [ldio] generated by https://loading.io/ --></svg>