<?xml version="1.0" encoding="utf-8"?>
<svg xml:space="preserve" viewBox="0 0 100 100" y="0" x="0" xmlns="http://www.w3.org/2000/svg" id="圖層_1" version="1.1" style="height: 100%; width: 100%; background: none; shape-rendering: auto;" width="100px" height="100px"><g class="ldl-scale" style="transform-origin: 50% 50%; transform: rotate(0deg) scale(0.8, 0.8);"><g class="ldl-ani"><g class="ldl-layer"><g class="ldl-ani" style="transform-origin: 50px 50px; transform: scale(0.91); animation: 1.11111s linear 0s 1 normal forwards running breath-d0ce46a3-db66-4247-804c-3acdc73c2094;"><path fill="#f8b26a" d="M75.9 22.1h-.1c-2.3 0-4.1 1.9-4.1 4.2L71 42c0 .4-.3.8-.8.8-.4 0-.8-.3-.8-.8l.1-21.2c0-2.3-1.9-4.1-4.2-4.1h-.1c-2.3 0-4.1 1.9-4.1 4.2L61 42.1c0 .4-.3.8-.8.8-.4 0-.8-.3-.8-.8L58.9 17c0-2.3-1.9-4.1-4.2-4.1h-.1c-2.3 0-4.1 1.9-4.1 4.2l.4 25.2c0 .4-.3.8-.8.8h-.6c-.4 0-.8-.3-.8-.8l-1-26.7c0-2.3-1.9-4.1-4.2-4.1h-.1c-2.3 0-4.1 1.9-4.1 4.2l.9 23.5.4 15.8c0 1.4-1.8 1.9-2.5.7l-4.4-9.6-2.4-2.6c-1.6-1.3-5-1.7-7.7-.9l-2.2.2c-2.5 1.3-1.4 3.6-.2 5.5 3.9 6.6 7.2 13.3 10.1 20.3 2.5 6.1 6.1 13.4 11.9 16.9 6.8 4 16.9 3.5 23.9.5 11.7-4.9 12.7-21.9 12.5-32.6l-.2-10.7.7-16.5c-.1-2.3-1.9-4.1-4.2-4.1z" style="fill: rgb(248, 178, 106);"></path></g></g><metadata xmlns:d="https://loading.io/stock/"><d:name>hand</d:name><d:tags>finger,stop,refuse,give me five,halt,hand,transportation</d:tags><d:license>by</d:license><d:slug>ckjo44</d:slug></metadata></g></g><style id="breath-d0ce46a3-db66-4247-804c-3acdc73c2094" data-anikit="">@keyframes breath-d0ce46a3-db66-4247-804c-3acdc73c2094
{
  0% {
    animation-timing-function: cubic-bezier(0.9647,0.2413,-0.0705,0.7911);
    transform: scale(0.9099999999999999);
  }
  51% {
    animation-timing-function: cubic-bezier(0.9226,0.2631,-0.0308,0.7628);
    transform: scale(1.02994);
  }
  100% {
    transform: scale(0.9099999999999999);
  }
}</style><!-- [ldio] generated by https://loading.io/ --></svg>