<?xml version="1.0" encoding="utf-8"?>
<svg xml:space="preserve" viewBox="0 0 100 100" y="0" x="0" xmlns="http://www.w3.org/2000/svg" id="圖層_1" version="1.1" style="height: 100%; width: 100%; background: none; shape-rendering: auto;" width="100px" height="100px"><g class="ldl-scale" style="transform-origin: 50% 50%; transform: rotate(0deg) scale(0.8, 0.8);"><g class="ldl-ani"><g class="ldl-layer"><g class="ldl-ani"><g><g class="ldl-layer"><g class="ldl-ani" style="transform-origin: 50px 50px; transform: matrix(1, 0, 0, 1, 199, 0); opacity: 0.05; animation: 1.11111s linear 0.486111s 1 normal forwards running slide-rtl-in-8e355f62-f7de-4441-9271-61b8eb66087b;"><path fill="#333" d="M52.39 89.661h-4.78V48.837a2.39 2.39 0 1 1 4.78 0v40.824z" style="fill: rgb(51, 51, 51);"></path></g></g></g></g></g><g class="ldl-layer"><g class="ldl-ani" style="transform-origin: 50px 50px; transform: matrix(1, 0, 0, 1, 199, 0); opacity: 0.05; animation: 1.11111s linear 0.416667s 1 normal forwards running slide-rtl-in-8e355f62-f7de-4441-9271-61b8eb66087b;"><path fill="#333" d="M47.61 46.448a2.39 2.39 0 0 0-1.156 3.176l18.67 40.038h5.273L50.786 47.603a2.39 2.39 0 0 0-3.176-1.155z" style="fill: rgb(51, 51, 51);"></path></g></g><g class="ldl-layer"><g class="ldl-ani" style="transform-origin: 50px 50px; transform: matrix(1, 0, 0, 1, 199, 0); opacity: 0.05; animation: 1.11111s linear 0.347222s 1 normal forwards running slide-rtl-in-8e355f62-f7de-4441-9271-61b8eb66087b;"><path fill="#333" d="M52.39 46.448a2.39 2.39 0 0 0-3.176 1.156L29.603 89.661h5.273l18.67-40.038a2.39 2.39 0 0 0-1.156-3.175z" style="fill: rgb(51, 51, 51);"></path></g></g><g class="ldl-layer"><g class="ldl-ani" style="transform-origin: 50px 50px; transform: matrix(1, 0, 0, 1, 199, 0); opacity: 0.05; animation: 1.11111s linear 0.277778s 1 normal forwards running slide-rtl-in-8e355f62-f7de-4441-9271-61b8eb66087b;"><path d="M12.398 15.386h75.204v50.86H12.398z" fill="#f5e6c8" style="fill: rgb(245, 230, 200);"></path></g></g><g class="ldl-layer"><g class="ldl-ani" style="transform-origin: 50px 50px; transform: matrix(1, 0, 0, 1, 199, 0); opacity: 0.05; animation: 1.11111s linear 0.208333s 1 normal forwards running slide-rtl-in-8e355f62-f7de-4441-9271-61b8eb66087b;"><path d="M7.5 10.488v60.656h85V10.488h-85zm80.102 55.758H12.398v-50.86h75.204v50.86z" style="fill: rgb(0, 0, 0);"></path></g></g><g class="ldl-layer"><g class="ldl-ani" style="transform-origin: 50px 50px; transform: matrix(1, 0, 0, 1, 199, 0); opacity: 0.05; animation: 1.11111s linear 0.138889s 1 normal forwards running slide-rtl-in-8e355f62-f7de-4441-9271-61b8eb66087b;"><path fill="#e15b64" d="M68.977 40.937c0 10.048-7.598 18.298-17.728 18.953V21.984c10.13.654 17.728 8.905 17.728 18.953z" id="XMLID_557_" style="fill: rgb(225, 91, 100);"></path></g></g><g class="ldl-layer"><g class="ldl-ani" style="transform-origin: 50px 50px; transform: matrix(1, 0, 0, 1, 199, 0); opacity: 0.05; animation: 1.11111s linear 0.0694444s 1 normal forwards running slide-rtl-in-8e355f62-f7de-4441-9271-61b8eb66087b;"><path fill="#849b87" d="M48.716 59.889V41.668l-15.709-9.11c-1.278 2.601-1.984 5.473-1.984 8.379 0 10.047 7.844 18.298 17.693 18.952z" id="XMLID_556_" style="fill: rgb(132, 155, 135);"></path></g></g><g class="ldl-layer"><g class="ldl-ani" style="transform-origin: 50px 50px; transform: matrix(1, 0, 0, 1, 199, 0); opacity: 0.05; animation: 1.11111s linear 0s 1 normal forwards running slide-rtl-in-8e355f62-f7de-4441-9271-61b8eb66087b;"><path fill="#f8b26a" d="M48.716 38.743V21.985c-5.628.394-11.243 3.504-14.513 8.379l14.513 8.379z" id="XMLID_555_" style="fill: rgb(248, 178, 106);"></path></g></g><metadata xmlns:d="https://loading.io/stock/"><d:name>canvas</d:name><d:tags>pie chart,presentation,slide,powerpoint,keynote,pitch,brief,canvas,business</d:tags><d:license>pro</d:license><d:slug>3hdacw</d:slug></metadata></g></g><style id="slide-rtl-in-8e355f62-f7de-4441-9271-61b8eb66087b" data-anikit="">@keyframes slide-rtl-in-8e355f62-f7de-4441-9271-61b8eb66087b
{
  0% {
    animation-timing-function: cubic-bezier(0.1006,0.3357,-0.2396,0.6703);
    transform: translate(199px,0px) rotate(0deg) scale(1,1) skewX(0deg) skewY(0deg);
    opacity: 0.05;
  }
  2% {
    animation-timing-function: cubic-bezier(0.2668,0.6542,0.5372,0.8035);
    transform: translate(124.8px,0px) rotate(0deg) scale(1,1) skewX(0deg) skewY(0deg);
    opacity: 1;
  }
  100% {
    transform: translate(0px,0px) rotate(0deg) scale(1,1) skewX(0deg) skewY(0deg);
    opacity: 1;
  }
}</style><!-- [ldio] generated by https://loading.io/ --></svg>