<?xml version="1.0" encoding="utf-8"?>
<svg viewBox="0 0 100 100" xmlns="http://www.w3.org/2000/svg" style="height: 100%; width: 100%; background: none; shape-rendering: auto;" width="100px" height="100px"><g class="ldl-scale" style="transform-origin: 50% 50%; transform: rotate(0deg) scale(0.8, 0.8);"><g class="ldl-ani"><g class="ldl-layer"><g class="ldl-ani" style="transform-origin: 50px 50px; transform: scale(0.91); animation: 1.11111s linear 0.277778s 1 normal forwards running breath-0f2d2b89-207e-4782-b924-5fb54d10d70f;"><path stroke-miterlimit="10" stroke-linejoin="round" stroke-linecap="round" stroke-width="3" stroke="#000" fill="none" d="M84.775 78.75l.439-6.361a4.51 4.51 0 0 0-1.243-2.948L72.305 57.208a4.51 4.51 0 0 0-3.264-1.398H62.09a3.18 3.18 0 0 1-3.181-3.181v-5.006c4.001-1.895 6.775-5.958 6.775-10.679V24.877c0-6.471-5.246-11.717-11.717-11.717h-7.934c-6.471 0-11.717 5.246-11.717 11.717v12.068c0 4.721 2.774 8.784 6.775 10.679v5.006a3.18 3.18 0 0 1-3.181 3.181h-6.951a4.51 4.51 0 0 0-3.264 1.398L16.029 69.441a4.507 4.507 0 0 0-1.243 2.948l.439 6.361" style="stroke: rgb(0, 0, 0);"></path></g></g><g class="ldl-layer"><g class="ldl-ani" style="transform-origin: 50px 50px; transform: scale(0.91); animation: 1.11111s linear 0s 1 normal forwards running breath-0f2d2b89-207e-4782-b924-5fb54d10d70f;"><path d="M54.5 89L50 94l-4.5-5 2.143-21-2.143-7h9l-2.143 6.917z" stroke-miterlimit="10" stroke-linejoin="round" stroke-linecap="round" stroke-width="3" stroke="#849b87" fill="none" style="stroke: rgb(132, 155, 135);"></path></g></g><metadata xmlns:d="https://loading.io/stock/">
<d:name>manager</d:name>
<d:tags>manager,officer,worker,admin,organizer,leader,pm,customer service,tie</d:tags>
<d:license>by</d:license>
<d:slug>bhsz96</d:slug>
</metadata></g></g><style id="breath-0f2d2b89-207e-4782-b924-5fb54d10d70f" data-anikit="">@keyframes breath-0f2d2b89-207e-4782-b924-5fb54d10d70f
{
  0% {
    animation-timing-function: cubic-bezier(0.9647,0.2413,-0.0705,0.7911);
    transform: scale(0.9099999999999999);
  }
  51% {
    animation-timing-function: cubic-bezier(0.9226,0.2631,-0.0308,0.7628);
    transform: scale(1.02994);
  }
  100% {
    transform: scale(0.9099999999999999);
  }
}</style><!-- [ldio] generated by https://loading.io/ --></svg>