<?xml version="1.0" encoding="utf-8"?>
<svg xml:space="preserve" viewBox="0 0 100 100" y="0" x="0" xmlns="http://www.w3.org/2000/svg" id="圖層_1" version="1.1" style="height: 100%; width: 100%; background: none; shape-rendering: auto;" width="100px" height="100px"><g class="ldl-scale" style="transform-origin: 50% 50%; transform: rotate(0deg) scale(0.8, 0.8);"><g class="ldl-ani" style="transform-origin: 50px 50px; transform: rotate(0deg); animation: 1.11111s linear 0s 1 normal forwards running spin-945f6cb6-cfac-4b08-aaad-f92dc54497ad;"><g class="ldl-layer"><g class="ldl-ani" style="transform-origin: 50px 50px;"><g><g class="ldl-layer"><g class="ldl-ani" style="transform-origin: 50px 50px;"><path fill="#77a4bd" d="M40.9 46.2h-.5v34.1c0 .6 0 1.2.1 1.7.7 6.5 5.1 9.1 9.6 9.1V46.2h-9.2z" style="fill: rgb(119, 164, 189);"></path></g></g><g class="ldl-layer"><g class="ldl-ani" style="transform-origin: 50px 50px;"><path fill="#a0c8d7" d="M50 46.2v44.9c4.4 0 8.9-2.6 9.6-9.1.1-.6.1-1.1.1-1.7V46.2H50z" style="fill: rgb(160, 200, 215);"></path></g></g></g></g></g><g class="ldl-layer"><g class="ldl-ani" style="transform-origin: 50px 50px;"><g><g class="ldl-layer"><g class="ldl-ani" style="transform-origin: 50px 50px;"><path fill="#333" d="M40.4 82c-.1-.6-.1-1.1-.1-1.7V16.2h-2.5c-.2 0-.5 0-.7-.1-1.5-.4-2.6-1.9-2.6-3.8v-.1c0-2.2 1.5-3.9 3.3-3.9H50V5H37.8c-3.6 0-6.5 3.2-6.5 7.1v.1c0 3.7 2.6 6.7 5.9 7.1v63.3c0 .6.1 1.2.1 1.8.9 7 6.8 10.6 12.7 10.6v-3.9c-4.4 0-8.9-2.5-9.6-9.1z" style="fill: rgb(51, 51, 51);"></path></g></g><g class="ldl-layer"><g class="ldl-ani" style="transform-origin: 50px 50px;"><path fill="#666" d="M62.7 84.5c.1-.6.1-1.2.1-1.8V19.3c3.3-.3 5.9-3.4 5.9-7.1v-.1c0-3.9-2.9-7.1-6.5-7.1H50v3.2H62.3c1.8 0 3.3 1.8 3.3 3.9v.1c0 1.9-1.1 3.4-2.6 3.8-.2.1-.4.1-.7.1h-2.5v64.1c0 .6 0 1.2-.1 1.7-.7 6.5-5.1 9.1-9.6 9.1v4c5.8 0 11.7-3.6 12.6-10.5z" style="fill: rgb(102, 102, 102);"></path></g></g></g></g></g><g class="ldl-layer"><g class="ldl-ani" style="transform-origin: 50px 50px;"><g><g class="ldl-layer"><g class="ldl-ani" style="transform-origin: 50px 50px;"><path fill="#f8b26a" d="M50 43.1h-6.2c-1.2 0-2.1-1-2.1-2.1s1-2.1 2.1-2.1H50c1.2 0 2.1 1 2.1 2.1s-.9 2.1-2.1 2.1z" id="XMLID_224_" style="fill: rgb(248, 178, 106);"></path></g></g><g class="ldl-layer"><g class="ldl-ani" style="transform-origin: 50px 50px;"><path fill="#f8b26a" d="M50 52.4h-6.2c-1.2 0-2.1-1-2.1-2.1s1-2.1 2.1-2.1H50c1.2 0 2.1 1 2.1 2.1s-.9 2.1-2.1 2.1z" id="XMLID_1_" style="fill: rgb(248, 178, 106);"></path></g></g><g class="ldl-layer"><g class="ldl-ani" style="transform-origin: 50px 50px;"><path fill="#f8b26a" d="M50 61.7h-6.2c-1.2 0-2.1-1-2.1-2.1s1-2.1 2.1-2.1H50c1.2 0 2.1 1 2.1 2.1s-.9 2.1-2.1 2.1z" id="XMLID_2_" style="fill: rgb(248, 178, 106);"></path></g></g><g class="ldl-layer"><g class="ldl-ani" style="transform-origin: 50px 50px;"><path fill="#f8b26a" d="M50 71h-6.2c-1.2 0-2.1-1-2.1-2.1 0-1.2 1-2.1 2.1-2.1H50c1.2 0 2.1 1 2.1 2.1S51.2 71 50 71z" id="XMLID_3_" style="fill: rgb(248, 178, 106);"></path></g></g><g class="ldl-layer"><g class="ldl-ani" style="transform-origin: 50px 50px;"><path fill="#f8b26a" d="M50 80.3h-6.2c-1.2 0-2.1-1-2.1-2.1 0-1.2 1-2.1 2.1-2.1H50c1.2 0 2.1 1 2.1 2.1s-.9 2.1-2.1 2.1z" id="XMLID_4_" style="fill: rgb(248, 178, 106);"></path></g></g></g></g></g><metadata xmlns:d="https://loading.io/stock/"><d:name>test tube</d:name><d:tags>experiment,science,pipet,flask,chemistry,laboratory,lab,test tube,web application</d:tags><d:license>pro</d:license><d:slug>q9hxzt</d:slug></metadata></g></g><style id="spin-945f6cb6-cfac-4b08-aaad-f92dc54497ad" data-anikit="">@keyframes spin-945f6cb6-cfac-4b08-aaad-f92dc54497ad
{
  0% {
    animation-timing-function: cubic-bezier(0.5856,0.0703,0.4143,0.9297);
    transform: rotate(0deg);
  }
  100% {
    transform: rotate(360deg);
  }
}</style><!-- [ldio] generated by https://loading.io/ --></svg>