<?xml version="1.0" encoding="utf-8"?>
<svg xml:space="preserve" viewBox="0 0 100 100" y="0" x="0" xmlns="http://www.w3.org/2000/svg" id="圖層_1" version="1.1" style="height: 100%; width: 100%; background: none; shape-rendering: auto;" width="100px" height="100px"><g class="ldl-scale" style="transform-origin: 50% 50%; transform: rotate(0deg) scale(0.8, 0.8);"><g class="ldl-ani"><radialGradient gradientUnits="userSpaceOnUse" r="35.871" cy="31.818" cx="45.421" id="SVGID_1_"><stop stop-color="#f5e6c8" offset="0" style="stop-color: rgb(245, 230, 200); fill: rgb(0, 0, 0);"></stop><stop stop-color="#f5e169" offset="1" style="stop-color: rgb(245, 225, 105); fill: rgb(0, 0, 0);"></stop></radialGradient><g class="ldl-layer"><g class="ldl-ani" style="transform-origin: 50px 50px; transform: scale(0.91); animation: 1.11111s linear 0.522876s 1 normal forwards running breath-f168b5ee-145e-4bd3-9d69-6756af021fe7;"><path stroke="#333" fill="url(#SVGID_1_)" stroke-miterlimit="10" stroke-width="3.5" d="M71.961 46.103c0-12.593-10.599-22.71-23.363-21.918-10.983.682-19.902 9.654-20.524 20.641-.416 7.347 2.783 13.965 7.98 18.241 1.612 1.327 2.494 3.345 2.494 5.433v.118a6.433 6.433 0 0 0 6.433 6.433h10.036a6.433 6.433 0 0 0 6.433-6.433V68.5c0-2.176 1.023-4.192 2.688-5.594 4.784-4.028 7.823-10.06 7.823-16.803z" style="stroke: rgb(51, 51, 51);"></path></g></g><g class="ldl-layer"><g class="ldl-ani" style="transform-origin: 50px 50px; transform: scale(0.91); animation: 1.11111s linear 0.490196s 1 normal forwards running breath-f168b5ee-145e-4bd3-9d69-6756af021fe7;"><path stroke-miterlimit="10" stroke-width="3.5" stroke="#333" fill="#333" d="M59.375 72.222h-18.75a5.095 5.095 0 0 0-5.095 5.095v3.308a5.095 5.095 0 0 0 5.095 5.095h1.422a4.28 4.28 0 0 0 4.28 4.28h7.347a4.28 4.28 0 0 0 4.28-4.28h1.422a5.095 5.095 0 0 0 5.095-5.095v-3.308a5.096 5.096 0 0 0-5.096-5.095z" style="fill: rgb(51, 51, 51); stroke: rgb(51, 51, 51);"></path></g></g><g class="ldl-layer"><g class="ldl-ani" style="transform-origin: 50px 50px; transform: scale(0.91); animation: 1.11111s linear 0.457516s 1 normal forwards running breath-f168b5ee-145e-4bd3-9d69-6756af021fe7;"><path stroke-miterlimit="10" stroke-width="3.5" stroke-linecap="round" fill="none" stroke="#333" stroke-linejoin="round" d="M38.161 47.949l2.273 1.51a.849.849 0 0 0 1.374 0l1.586-2.181a.849.849 0 0 1 1.374 0l1.586 2.181a.849.849 0 0 0 1.374 0l1.586-2.181a.849.849 0 0 1 1.374 0l1.586 2.181a.849.849 0 0 0 1.374 0l1.586-2.181a.849.849 0 0 1 1.374 0l1.586 2.181a.849.849 0 0 0 1.374 0l2.273-1.51" style="stroke: rgb(51, 51, 51);"></path></g></g><g class="ldl-layer"><g class="ldl-ani" style="transform-origin: 50px 50px; transform: scale(0.91); animation: 1.11111s linear 0.424837s 1 normal forwards running breath-f168b5ee-145e-4bd3-9d69-6756af021fe7;"><path d="M39.63 76.128h20.74" stroke-miterlimit="10" stroke-width="3.5" stroke-linecap="round" fill="none" stroke="#e0e0e0" style="stroke: rgb(224, 224, 224);"></path></g></g><g class="ldl-layer"><g class="ldl-ani" style="transform-origin: 50px 50px; transform: scale(0.91); animation: 1.11111s linear 0.392157s 1 normal forwards running breath-f168b5ee-145e-4bd3-9d69-6756af021fe7;"><path d="M39.63 81.785h20.74" stroke-miterlimit="10" stroke-width="3.5" stroke-linecap="round" fill="none" stroke="#e0e0e0" style="stroke: rgb(224, 224, 224);"></path></g></g><g class="ldl-layer"><g class="ldl-ani" style="transform-origin: 50px 50px; transform: scale(0.91); animation: 1.11111s linear 0.359477s 1 normal forwards running breath-f168b5ee-145e-4bd3-9d69-6756af021fe7;"><path stroke-miterlimit="10" stroke-width="3.5" stroke="#000" stroke-linejoin="round" opacity=".2" d="M61.451 68.5c0-2.176 1.024-4.192 2.688-5.594 4.783-4.028 7.823-10.06 7.823-16.803 0-10.212-6.971-18.795-16.413-21.253 6.438 4.365 10.671 11.736 10.671 20.1 0 7.452-3.359 14.119-8.645 18.571-1.84 1.549-2.971 3.777-2.971 6.182 0 .72-.105 1.45-.161 2.168-.023.295-.046.595.005.886.185 1.054 1.226 1.692 1.924 2.504.916 1.066 1.569 2.788 1.569 4.186v3.656a5.63 5.63 0 0 1-5.631 5.631h-1.571c0 .439-.065.863-.177 1.267h3.112a4.28 4.28 0 0 0 4.28-4.28h1.422a5.095 5.095 0 0 0 5.095-5.095v-3.308a5.093 5.093 0 0 0-4.187-5.01 6.397 6.397 0 0 0 1.168-3.69V68.5z" style="fill: rgb(0, 0, 0); stroke: rgb(0, 0, 0);"></path></g></g><g class="ldl-layer"><g class="ldl-ani" style="transform-origin: 50px 50px; transform: scale(0.91); animation: 1.11111s linear 0.326797s 1 normal forwards running breath-f168b5ee-145e-4bd3-9d69-6756af021fe7;"><path stroke-miterlimit="10" stroke-width="3.5" stroke="#fff" fill="none" stroke-linejoin="round" stroke-linecap="round" d="M38.159 32.842a17.76 17.76 0 0 1 6.099-3.569" style="stroke: rgb(255, 255, 255);"></path></g></g><g class="ldl-layer"><g class="ldl-ani" style="transform-origin: 50px 50px; transform: scale(0.91); animation: 1.11111s linear 0.294118s 1 normal forwards running breath-f168b5ee-145e-4bd3-9d69-6756af021fe7;"><path stroke-miterlimit="10" stroke-width="3.5" stroke="#fff" fill="none" stroke-linejoin="round" stroke-linecap="round" d="M35.103 36.397c.137-.21.279-.417.425-.621" style="stroke: rgb(255, 255, 255);"></path></g></g><g class="ldl-layer"><g class="ldl-ani" style="transform-origin: 50px 50px; transform: scale(0.91); animation: 1.11111s linear 0.261438s 1 normal forwards running breath-f168b5ee-145e-4bd3-9d69-6756af021fe7;"><path d="M50 10v7.879" stroke-width="3.5" fill="none" stroke="#f8b26a" stroke-miterlimit="10" stroke-linejoin="round" stroke-linecap="round" style="stroke: rgb(248, 178, 106);"></path></g></g><g class="ldl-layer"><g class="ldl-ani" style="transform-origin: 50px 50px; transform: scale(0.91); animation: 1.11111s linear 0.228758s 1 normal forwards running breath-f168b5ee-145e-4bd3-9d69-6756af021fe7;"><path d="M31.818 14.872l3.94 6.823" stroke-width="3.5" fill="none" stroke="#f8b26a" stroke-miterlimit="10" stroke-linejoin="round" stroke-linecap="round" style="stroke: rgb(248, 178, 106);"></path></g></g><g class="ldl-layer"><g class="ldl-ani" style="transform-origin: 50px 50px; transform: scale(0.91); animation: 1.11111s linear 0.196078s 1 normal forwards running breath-f168b5ee-145e-4bd3-9d69-6756af021fe7;"><path d="M18.508 28.182l6.823 3.939" stroke-width="3.5" fill="none" stroke="#f8b26a" stroke-miterlimit="10" stroke-linejoin="round" stroke-linecap="round" style="stroke: rgb(248, 178, 106);"></path></g></g><g class="ldl-layer"><g class="ldl-ani" style="transform-origin: 50px 50px; transform: scale(0.91); animation: 1.11111s linear 0.163399s 1 normal forwards running breath-f168b5ee-145e-4bd3-9d69-6756af021fe7;"><path d="M13.636 46.364h7.879" stroke-width="3.5" fill="none" stroke="#f8b26a" stroke-miterlimit="10" stroke-linejoin="round" stroke-linecap="round" style="stroke: rgb(248, 178, 106);"></path></g></g><g class="ldl-layer"><g class="ldl-ani" style="transform-origin: 50px 50px; transform: scale(0.91); animation: 1.11111s linear 0.130719s 1 normal forwards running breath-f168b5ee-145e-4bd3-9d69-6756af021fe7;"><path d="M18.508 64.545l6.823-3.939" stroke-width="3.5" fill="none" stroke="#f8b26a" stroke-miterlimit="10" stroke-linejoin="round" stroke-linecap="round" style="stroke: rgb(248, 178, 106);"></path></g></g><g class="ldl-layer"><g class="ldl-ani" style="transform-origin: 50px 50px; transform: scale(0.91); animation: 1.11111s linear 0.0980392s 1 normal forwards running breath-f168b5ee-145e-4bd3-9d69-6756af021fe7;"><path d="M81.492 64.545l-6.823-3.939" stroke-width="3.5" fill="none" stroke="#f8b26a" stroke-miterlimit="10" stroke-linejoin="round" stroke-linecap="round" style="stroke: rgb(248, 178, 106);"></path></g></g><g class="ldl-layer"><g class="ldl-ani" style="transform-origin: 50px 50px; transform: scale(0.91); animation: 1.11111s linear 0.0653595s 1 normal forwards running breath-f168b5ee-145e-4bd3-9d69-6756af021fe7;"><path d="M86.364 46.364h-7.879" stroke-width="3.5" fill="none" stroke="#f8b26a" stroke-miterlimit="10" stroke-linejoin="round" stroke-linecap="round" style="stroke: rgb(248, 178, 106);"></path></g></g><g class="ldl-layer"><g class="ldl-ani" style="transform-origin: 50px 50px; transform: scale(0.91); animation: 1.11111s linear 0.0326797s 1 normal forwards running breath-f168b5ee-145e-4bd3-9d69-6756af021fe7;"><path d="M81.492 28.182l-6.823 3.939" stroke-width="3.5" fill="none" stroke="#f8b26a" stroke-miterlimit="10" stroke-linejoin="round" stroke-linecap="round" style="stroke: rgb(248, 178, 106);"></path></g></g><g class="ldl-layer"><g class="ldl-ani" style="transform-origin: 50px 50px; transform: scale(0.91); animation: 1.11111s linear 0s 1 normal forwards running breath-f168b5ee-145e-4bd3-9d69-6756af021fe7;"><path d="M68.182 14.872l-3.94 6.823" stroke-width="3.5" fill="none" stroke="#f8b26a" stroke-miterlimit="10" stroke-linejoin="round" stroke-linecap="round" style="stroke: rgb(248, 178, 106);"></path></g></g><metadata xmlns:d="https://loading.io/stock/">
<d:name>bulb</d:name>
<d:tags>bulb,light,creative,creativity,idea,brainstorm,bright,luminance,think,smart,thought</d:tags>
<d:license>by</d:license>
<d:slug>jdw89x</d:slug>
</metadata></g></g><style id="breath-f168b5ee-145e-4bd3-9d69-6756af021fe7" data-anikit="">@keyframes breath-f168b5ee-145e-4bd3-9d69-6756af021fe7
{
  0% {
    animation-timing-function: cubic-bezier(0.9647,0.2413,-0.0705,0.7911);
    transform: scale(0.9099999999999999);
  }
  51% {
    animation-timing-function: cubic-bezier(0.9226,0.2631,-0.0308,0.7628);
    transform: scale(1.02994);
  }
  100% {
    transform: scale(0.9099999999999999);
  }
}</style><!-- [ldio] generated by https://loading.io/ --></svg>