<?xml version="1.0" encoding="utf-8"?>
<svg xml:space="preserve" viewBox="0 0 100 100" y="0" x="0" xmlns="http://www.w3.org/2000/svg" id="圖層_1" version="1.1" style="height: 100%; width: 100%; background: none; shape-rendering: auto;" width="100px" height="100px"><g class="ldl-scale" style="transform-origin: 50% 50%; transform: rotate(0deg) scale(0.8, 0.8);"><g class="ldl-ani"><g class="ldl-layer"><g class="ldl-ani" style="transform-origin: 50px 50px; transform: scale(0.91); animation: 1.11111s linear 0.493827s 1 normal forwards running breath-e6b790f9-13cc-4c52-a973-752f16b5b534;"><ellipse fill="#f47e60" ry="7.8" rx="27.8" cy="79.7" cx="50" style="fill: rgb(244, 126, 96);"></ellipse></g></g><g class="ldl-layer"><g class="ldl-ani" style="transform-origin: 50px 50px; transform: scale(0.91); animation: 1.11111s linear 0.432099s 1 normal forwards running breath-e6b790f9-13cc-4c52-a973-752f16b5b534;"><path fill="#f8b26a" d="M74.1 62H25.9c-3 0-5.4 2.4-5.4 5.4v7.3c0 2.5 1.8 4.7 4.1 5.2 4.3 2.7 14 4.7 25.4 4.7s21-1.9 25.4-4.7c2.4-.6 4.1-2.7 4.1-5.2v-7.3c0-3-2.4-5.4-5.4-5.4z" style="fill: rgb(248, 178, 106);"></path></g></g><g class="ldl-layer"><g class="ldl-ani" style="transform-origin: 50px 50px; transform: scale(0.91); animation: 1.11111s linear 0.37037s 1 normal forwards running breath-e6b790f9-13cc-4c52-a973-752f16b5b534;"><ellipse fill="#f47e60" ry="7.8" rx="27.8" cy="64.7" cx="50" style="fill: rgb(244, 126, 96);"></ellipse></g></g><g class="ldl-layer"><g class="ldl-ani" style="transform-origin: 50px 50px; transform: scale(0.91); animation: 1.11111s linear 0.308642s 1 normal forwards running breath-e6b790f9-13cc-4c52-a973-752f16b5b534;"><circle fill="#a0c8d7" r="27.8" cy="40" cx="50" style="fill: rgb(160, 200, 215);"></circle></g></g><g class="ldl-layer"><g class="ldl-ani" style="transform-origin: 50px 50px; transform: scale(0.91); animation: 1.11111s linear 0.246914s 1 normal forwards running breath-e6b790f9-13cc-4c52-a973-752f16b5b534;"><path stroke-miterlimit="10" stroke-linecap="round" stroke-width="4" stroke="#fff" fill="#a0c8d7" d="M34.2 24c2.6-2.6 5.8-4.4 9.2-5.5" style="stroke: rgb(255, 255, 255); fill: rgb(160, 200, 215);"></path></g></g><g class="ldl-layer"><g class="ldl-ani" style="transform-origin: 50px 50px; transform: scale(0.91); animation: 1.11111s linear 0.185185s 1 normal forwards running breath-e6b790f9-13cc-4c52-a973-752f16b5b534;"><path stroke-miterlimit="10" stroke-linecap="round" stroke-width="4" stroke="#fff" fill="#a0c8d7" d="M28.5 33.4c.1-.4.2-.7.4-1.1l.9-2.1" style="stroke: rgb(255, 255, 255); fill: rgb(160, 200, 215);"></path></g></g><g class="ldl-layer"><g class="ldl-ani" style="transform-origin: 50px 50px; transform: scale(0.91); animation: 1.11111s linear 0.123457s 1 normal forwards running breath-e6b790f9-13cc-4c52-a973-752f16b5b534;"><path fill="#77a4bd" d="M49.8 65h-.4.4z" style="fill: rgb(119, 164, 189);"></path></g></g><g class="ldl-layer"><g class="ldl-ani" style="transform-origin: 50px 50px; transform: scale(0.91); animation: 1.11111s linear 0.0617284s 1 normal forwards running breath-e6b790f9-13cc-4c52-a973-752f16b5b534;"><path fill="#77a4bd" d="M50.2 65h-.4.4z" style="fill: rgb(119, 164, 189);"></path></g></g><g class="ldl-layer"><g class="ldl-ani" style="transform-origin: 50px 50px; transform: scale(0.91); animation: 1.11111s linear 0s 1 normal forwards running breath-e6b790f9-13cc-4c52-a973-752f16b5b534;"><path fill="#77a4bd" d="M71.6 28c-1.5-2.6-3.3-4.9-5.5-6.8-.4.1-.7.6-.4 1 .9 1.3 1.6 2.7 2.2 4.2 3.8 9.5.6 20.5-7.6 26.5-.7.5-1.4 1-2.2 1.4-.7.4-1.5.8-2.3 1.2-9.3 4.2-20.5 1.4-26.8-6.6-1-1.3-1.9-2.6-2.5-4-.2-.5-.8-.5-1.1-.2.5 2.8 1.6 5.6 3.1 8.2C35.4 64.4 50.4 68.3 62 62c.1-.1.2-.1.3-.2.1-.1.2-.1.3-.2 11.4-6.9 15.5-21.9 9-33.6z" style="fill: rgb(119, 164, 189);"></path></g></g><metadata xmlns:d="https://loading.io/stock/"><d:name>fortune tell,crystal ball,magic,divination,witch</d:name><d:tags>rf,fortune tell,crystal ball,magic,divination,witch</d:tags><d:license>by</d:license><d:slug>fu9c62</d:slug></metadata></g></g><style id="breath-e6b790f9-13cc-4c52-a973-752f16b5b534" data-anikit="">@keyframes breath-e6b790f9-13cc-4c52-a973-752f16b5b534
{
  0% {
    animation-timing-function: cubic-bezier(0.9647,0.2413,-0.0705,0.7911);
    transform: scale(0.9099999999999999);
  }
  51% {
    animation-timing-function: cubic-bezier(0.9226,0.2631,-0.0308,0.7628);
    transform: scale(1.02994);
  }
  100% {
    transform: scale(0.9099999999999999);
  }
}</style><!-- [ldio] generated by https://loading.io/ --></svg>