<?xml version="1.0" encoding="utf-8"?>
<svg viewBox="0 0 100 100" xmlns="http://www.w3.org/2000/svg" style="height: 100%; width: 100%; background: none; shape-rendering: auto;" width="128px" height="128px"><g class="ldl-scale" style="transform-origin: 50% 50%; transform: rotate(0deg) scale(0.8, 0.8);"><g class="ldl-ani" style="transform-origin: 50px 50px;"><g class="ldl-layer"><g class="ldl-ani" style="transform-origin: 50px 50px;"><g><g class="ldl-layer"><g class="ldl-ani" style="transform-origin: 50px 50px; opacity: 1; animation: 1.11111s linear 0.5s 1 normal forwards running blink-ccb33949-f722-48a8-a1ec-1836624119b1;"><circle stroke-miterlimit="10" stroke-linejoin="round" stroke-linecap="round" stroke-width="3" stroke="#323232" fill="#a0c8d7" r="26.778" cy="63.722" cx="50" style="fill: rgb(160, 200, 215); stroke: rgb(50, 50, 50);"></circle></g></g><g class="ldl-layer"><g class="ldl-ani" style="transform-origin: 50px 50px; opacity: 1; animation: 1.11111s linear 0.444444s 1 normal forwards running blink-ccb33949-f722-48a8-a1ec-1836624119b1;"><ellipse stroke-miterlimit="10" stroke-linejoin="round" stroke-linecap="round" stroke-width="3" stroke="#323232" fill="none" ry="26.778" rx="14.606" cy="63.722" cx="50" style="stroke: rgb(50, 50, 50);"></ellipse></g></g><g class="ldl-layer"><g class="ldl-ani" style="transform-origin: 50px 50px; opacity: 1; animation: 1.11111s linear 0.388889s 1 normal forwards running blink-ccb33949-f722-48a8-a1ec-1836624119b1;"><path d="M50 36.944V90.5" stroke-miterlimit="10" stroke-linejoin="round" stroke-linecap="round" stroke-width="3" stroke="#323232" fill="none" style="stroke: rgb(50, 50, 50);"></path></g></g><g class="ldl-layer"><g class="ldl-ani" style="transform-origin: 50px 50px; opacity: 1; animation: 1.11111s linear 0.333333s 1 normal forwards running blink-ccb33949-f722-48a8-a1ec-1836624119b1;"><path d="M25.038 54.029h49.974" stroke-miterlimit="10" stroke-linejoin="round" stroke-linecap="round" stroke-width="3" stroke="#323232" fill="none" style="stroke: rgb(50, 50, 50);"></path></g></g><g class="ldl-layer"><g class="ldl-ani" style="transform-origin: 50px 50px; opacity: 1; animation: 1.11111s linear 0.277778s 1 normal forwards running blink-ccb33949-f722-48a8-a1ec-1836624119b1;"><path d="M25.038 72.928h49.974" stroke-miterlimit="10" stroke-linejoin="round" stroke-linecap="round" stroke-width="3" stroke="#323232" fill="none" style="stroke: rgb(50, 50, 50);"></path></g></g><g class="ldl-layer"><g class="ldl-ani" style="transform-origin: 50px 50px; opacity: 1; animation: 1.11111s linear 0.222222s 1 normal forwards running blink-ccb33949-f722-48a8-a1ec-1836624119b1;"><path stroke-miterlimit="10" stroke-linejoin="round" stroke-linecap="round" stroke-width="3" stroke="#000" opacity=".1" d="M67.991 43.888c.074.991.121 1.991.121 3.003 0 20.187-14.954 36.551-33.4 36.551-1.007 0-2.001-.057-2.985-.153C36.513 87.759 42.935 90.5 50 90.5c14.789 0 26.778-11.989 26.778-26.778 0-7.864-3.39-14.936-8.787-19.834z" style="fill: rgb(0, 0, 0); stroke: rgb(0, 0, 0);"></path></g></g></g></g></g><g class="ldl-layer"><g class="ldl-ani" style="transform-origin: 50px 50px;"><g><g class="ldl-layer"><g class="ldl-ani" style="transform-origin: 50px 50px; opacity: 1; animation: 1.11111s linear 0.166667s 1 normal forwards running blink-ccb33949-f722-48a8-a1ec-1836624119b1;"><path stroke-miterlimit="10" stroke-width="3" stroke="#323232" fill="#c33736" d="M47.786 9.623c-9.043 1.001-16.27 8.371-17.113 17.431-.685 7.364 2.747 13.978 8.259 17.808 5.542 3.851 9.434 9.64 10.434 16.314l.083.555a.771.771 0 0 0 1.524 0l.183-1.219c.959-6.406 4.675-11.973 9.978-15.692 5.007-3.511 8.28-9.325 8.28-15.905 0-11.452-9.915-20.588-21.628-19.292zM50 36.501a7.587 7.587 0 1 1 0-15.174A7.587 7.587 0 0 1 50 36.5z" style="fill: rgb(195, 55, 54); stroke: rgb(50, 50, 50);"></path></g></g><g class="ldl-layer"><g class="ldl-ani" style="transform-origin: 50px 50px; opacity: 1; animation: 1.11111s linear 0.111111s 1 normal forwards running blink-ccb33949-f722-48a8-a1ec-1836624119b1;"><path stroke-miterlimit="10" stroke-width="3" stroke="#000" opacity=".1" d="M62.6 14.152a36.3 36.3 0 0 1 .407 5.393c0 8.494-2.919 16.188-7.646 21.788C51.816 45.533 50 50.925 50 56.422v5.927c.068.02.137.038.211.038a.77.77 0 0 0 .762-.656l.183-1.219c.959-6.406 4.675-11.973 9.978-15.692 5.007-3.511 8.28-9.325 8.28-15.905 0-5.912-2.646-11.202-6.814-14.763z" style="fill: rgb(0, 0, 0); stroke: rgb(0, 0, 0);"></path></g></g><g class="ldl-layer"><g class="ldl-ani" style="transform-origin: 50px 50px; opacity: 1; animation: 1.11111s linear 0.0555556s 1 normal forwards running blink-ccb33949-f722-48a8-a1ec-1836624119b1;"><path stroke-miterlimit="10" stroke-linejoin="round" stroke-linecap="round" stroke-width="2" stroke="#fff" fill="none" d="M37.393 20.973c1.423-2.133 3.282-3.831 5.643-5.095" style="stroke: rgb(255, 255, 255);"></path></g></g><g class="ldl-layer"><g class="ldl-ani" style="transform-origin: 50px 50px; opacity: 1; animation: 1.11111s linear 0s 1 normal forwards running blink-ccb33949-f722-48a8-a1ec-1836624119b1;"><path stroke-miterlimit="10" stroke-linejoin="round" stroke-linecap="round" stroke-width="2" stroke="#fff" fill="none" d="M35.38 25.025c.159-.441.33-.869.512-1.286" style="stroke: rgb(255, 255, 255);"></path></g></g></g></g></g><metadata xmlns:d="https://loading.io/stock/">
<d:name>marker</d:name>
<d:tags>marker,location,localize,site,language,international,foreign,global,relocate</d:tags>
<d:license>by</d:license>
<d:slug>cypacw</d:slug>
</metadata></g></g><style id="blink-ccb33949-f722-48a8-a1ec-1836624119b1" data-anikit="">@keyframes blink-ccb33949-f722-48a8-a1ec-1836624119b1 {
  0% { opacity: 1; }
  49.75% { opacity: 1; }
  50.25% { opacity: 0; }
  99.5% { opacity: 0; }
  100% { opacity: 1; }
}</style><!-- [ldio] generated by https://loading.io/ --></svg>