<?xml version="1.0" encoding="utf-8"?>
<svg xml:space="preserve" viewBox="0 0 100 100" y="0" x="0" xmlns="http://www.w3.org/2000/svg" id="圖層_1" version="1.1" style="height: 100%; width: 100%; background: none; shape-rendering: auto;" width="100px" height="100px"><g class="ldl-scale" style="transform-origin: 50% 50%; transform: rotate(0deg) scale(0.8, 0.8);"><g class="ldl-ani"><g class="ldl-layer"><g class="ldl-ani" style="transform-origin: 50px 50px; transform: scale(0.91); animation: 1.11111s linear 0.47619s 1 normal forwards running breath-9b3c0fa3-1c75-4c49-85d1-36b428aca508;"><path d="M38.6 13h22.7v73.9H38.6z" fill="#e15b64" style="fill: rgb(225, 91, 100);"></path></g></g><g class="ldl-layer"><g class="ldl-ani" style="transform-origin: 50px 50px; transform: scale(0.91); animation: 1.11111s linear 0.396825s 1 normal forwards running breath-9b3c0fa3-1c75-4c49-85d1-36b428aca508;"><path d="M38.6 10.4h22.7v79.2H38.6z" fill="#e15b64" transform="rotate(-60 50 50.002)" style="fill: rgb(225, 91, 100);"></path></g></g><g class="ldl-layer"><g class="ldl-ani" style="transform-origin: 50px 50px; transform: scale(0.91); animation: 1.11111s linear 0.31746s 1 normal forwards running breath-9b3c0fa3-1c75-4c49-85d1-36b428aca508;"><path d="M38.6 10.4h22.7v79.2H38.6z" fill="#e15b64" transform="rotate(-120 50 50.001)" style="fill: rgb(225, 91, 100);"></path></g></g><g class="ldl-layer"><g class="ldl-ani"><g><g class="ldl-layer"><g class="ldl-ani" style="transform-origin: 50px 50px; transform: scale(0.91); animation: 1.11111s linear 0.238095s 1 normal forwards running breath-9b3c0fa3-1c75-4c49-85d1-36b428aca508;"><path fill="#fff" d="M55.5 44.9l1.5-.8-1.4-1.1c-.8-.6-1.7-1.2-2.6-1.7-.5-.2-1-.4-1.4-.7-.5-.2-1-.4-1.6-.5.3.5.6.9.9 1.4.3.4.7.8 1 1.2.3.4.7.7 1.1 1-.3.2-.7.5-1 .7-.7.6-1.5 1.3-2.1 2.2 1.1-.1 2-.3 2.9-.6 1-.2 1.9-.6 2.7-1.1z" style="fill: rgb(255, 255, 255);"></path></g></g><g class="ldl-layer"><g class="ldl-ani" style="transform-origin: 50px 50px; transform: scale(0.91); animation: 1.11111s linear 0.15873s 1 normal forwards running breath-9b3c0fa3-1c75-4c49-85d1-36b428aca508;"><path fill="#fff" d="M48.1 50.7c-.3-.4-.7-.7-1.1-1 .3-.2.7-.5 1-.7.7-.6 1.5-1.3 2.1-2.2-1.1.1-2 .3-2.9.6-.9.3-1.8.7-2.6 1.2l-1.6.8 1.4 1.1c.8.6 1.7 1.2 2.6 1.7.5.2 1 .4 1.4.7.5.2 1 .4 1.6.5-.3-.5-.6-.9-.9-1.4-.3-.5-.7-1-1-1.3z" style="fill: rgb(255, 255, 255);"></path></g></g><g class="ldl-layer"><g class="ldl-ani" style="transform-origin: 50px 50px; transform: scale(0.91); animation: 1.11111s linear 0.0793651s 1 normal forwards running breath-9b3c0fa3-1c75-4c49-85d1-36b428aca508;"><path fill="#fff" d="M55.6 56c-.8-.6-1.7-1.2-2.6-1.7-.5-.2-1-.4-1.4-.7-.5-.2-1-.4-1.6-.5.3.5.6.9.9 1.4.3.4.7.8 1 1.2.3.4.7.7 1.1 1-.3.2-.7.5-1 .7-.7.6-1.5 1.3-2.1 2.2 1.1-.1 2-.3 2.9-.6.9-.3 1.8-.7 2.6-1.2l1.5-.8-1.3-1z" style="fill: rgb(255, 255, 255);"></path></g></g></g></g></g><g class="ldl-layer"><g class="ldl-ani" style="transform-origin: 50px 50px; transform: scale(0.91); animation: 1.11111s linear 0s 1 normal forwards running breath-9b3c0fa3-1c75-4c49-85d1-36b428aca508;"><path fill="#fff" d="M51.8 41.5c-.3-2.1-.6-4.2-1.2-6.4.9-.3 1.6-1.1 1.6-2.2 0-1.2-1-2.3-2.3-2.3s-2.3 1-2.3 2.3c0 1 .7 1.9 1.6 2.2-.5 2.1-.9 4.2-1.2 6.4-.3 2.8-.5 5.7-.5 8.5s.2 5.7.5 8.5c.4 2.8.8 5.7 1.8 8.5.9-2.8 1.4-5.7 1.8-8.5.3-2.8.5-5.7.5-8.5.2-2.8 0-5.7-.3-8.5z" style="fill: rgb(255, 255, 255);"></path></g></g><metadata xmlns:d="https://loading.io/stock/"><d:name>medical</d:name><d:tags>medical,nurse,care,hospital,doctor,cure,remedy,heal,help</d:tags><d:license>by</d:license><d:slug>b9n345</d:slug></metadata></g></g><style id="breath-9b3c0fa3-1c75-4c49-85d1-36b428aca508" data-anikit="">@keyframes breath-9b3c0fa3-1c75-4c49-85d1-36b428aca508
{
  0% {
    animation-timing-function: cubic-bezier(0.9647,0.2413,-0.0705,0.7911);
    transform: scale(0.9099999999999999);
  }
  51% {
    animation-timing-function: cubic-bezier(0.9226,0.2631,-0.0308,0.7628);
    transform: scale(1.02994);
  }
  100% {
    transform: scale(0.9099999999999999);
  }
}</style><!-- [ldio] generated by https://loading.io/ --></svg>