<?xml version="1.0" encoding="utf-8"?>
<svg viewBox="0 0 100 100" xmlns="http://www.w3.org/2000/svg" style="height: 100%; width: 100%; background: none; shape-rendering: auto;" width="100px" height="100px"><g class="ldl-scale" style="transform-origin: 50% 50%; transform: rotate(0deg) scale(0.8, 0.8);"><g class="ldl-ani"><g class="ldl-layer"><g class="ldl-ani" style="transform-origin: 50px 50px; transform: scale(0.91); animation: 1.11111s linear 0.37037s 1 normal forwards running breath-80e1cd80-711d-4cec-9d8b-393fbf122aac;"><path stroke-miterlimit="10" stroke-linejoin="round" stroke-linecap="round" stroke-width="3" stroke="#76a4bd" fill="none" d="M74.875 73.07l.309-4.474a3.173 3.173 0 0 0-.874-2.074l-8.206-8.606a3.172 3.172 0 0 0-2.296-.983h-4.889a2.238 2.238 0 0 1-2.238-2.238v-3.521c2.814-1.333 4.766-4.191 4.766-7.512v-8.489a8.242 8.242 0 0 0-8.242-8.242h-5.581a8.242 8.242 0 0 0-8.242 8.242v8.489a8.309 8.309 0 0 0 4.766 7.512v3.521a2.238 2.238 0 0 1-2.238 2.238h-4.889c-.868 0-1.697.355-2.296.983l-8.206 8.606a3.171 3.171 0 0 0-.874 2.074l.309 4.474h48.921z" style="stroke: rgb(118, 164, 189);"></path></g></g><g class="ldl-layer"><g class="ldl-ani" style="transform-origin: 50px 50px; transform: scale(0.91); animation: 1.11111s linear 0.185185s 1 normal forwards running breath-80e1cd80-711d-4cec-9d8b-393fbf122aac;"><path stroke-miterlimit="10" stroke-linejoin="round" stroke-linecap="round" stroke-width="3" stroke="#000" fill="none" d="M79.931 65.638h14.827L95 62.134a2.483 2.483 0 0 0-.685-1.624l-6.428-6.741a2.484 2.484 0 0 0-1.798-.77h-3.83a1.753 1.753 0 0 1-1.753-1.753v-2.758a6.508 6.508 0 0 0 3.733-5.884v-6.65a6.457 6.457 0 0 0-6.457-6.457H73.41a6.457 6.457 0 0 0-6.457 6.457v6.65a6.51 6.51 0 0 0 3.733 5.884v2.758c0 .968-.785 1.753-1.753 1.753h-3.83" style="stroke: rgb(0, 0, 0);"></path></g></g><g class="ldl-layer"><g class="ldl-ani" style="transform-origin: 50px 50px; transform: scale(0.91); animation: 1.11111s linear 0s 1 normal forwards running breath-80e1cd80-711d-4cec-9d8b-393fbf122aac;"><path stroke-miterlimit="10" stroke-linejoin="round" stroke-linecap="round" stroke-width="3" stroke="#000" fill="none" d="M20.069 65.638H5.242L5 62.134a2.483 2.483 0 0 1 .685-1.624l6.428-6.741a2.484 2.484 0 0 1 1.798-.77h3.83c.968 0 1.753-.785 1.753-1.753v-2.758a6.508 6.508 0 0 1-3.733-5.884v-6.65a6.457 6.457 0 0 1 6.457-6.457h4.372a6.457 6.457 0 0 1 6.457 6.457v6.65a6.51 6.51 0 0 1-3.733 5.884v2.758c0 .968.785 1.753 1.753 1.753h3.83" style="stroke: rgb(0, 0, 0);"></path></g></g><metadata xmlns:d="https://loading.io/stock/">
<d:name>network</d:name>
<d:tags>network,share,community,connection,social network,group,team,taskforce,crew,staff</d:tags>
<d:license>by</d:license>
<d:slug>hds4qn</d:slug>
</metadata></g></g><style id="breath-80e1cd80-711d-4cec-9d8b-393fbf122aac" data-anikit="">@keyframes breath-80e1cd80-711d-4cec-9d8b-393fbf122aac
{
  0% {
    animation-timing-function: cubic-bezier(0.9647,0.2413,-0.0705,0.7911);
    transform: scale(0.9099999999999999);
  }
  51% {
    animation-timing-function: cubic-bezier(0.9226,0.2631,-0.0308,0.7628);
    transform: scale(1.02994);
  }
  100% {
    transform: scale(0.9099999999999999);
  }
}</style><!-- [ldio] generated by https://loading.io/ --></svg>