<?xml version="1.0" encoding="utf-8"?>
<svg xml:space="preserve" viewBox="0 0 100 100" y="0" x="0" xmlns="http://www.w3.org/2000/svg" id="圖層_1" version="1.1" style="height: 100%; width: 100%; background: none; shape-rendering: auto;" width="100px" height="100px"><g class="ldl-scale" style="transform-origin: 50% 50%; transform: rotate(0deg) scale(0.8, 0.8);"><g class="ldl-ani"><g class="ldl-layer"><g class="ldl-ani" style="transform-origin: 50px 50px; transform: scale(0.91); animation: 1.11111s linear 0.277778s 1 normal forwards running breath-34a04e10-48af-49ce-ae4d-a0e3cffb71c7;"><path fill="#f8b26a" clip-rule="evenodd" fill-rule="evenodd" d="M61.6 52.2c-14.6 0-26.5-11.6-26.5-25.8 0-5.4 1.7-10.4 4.6-14.5.4-.6-.2-1.4-.9-1.1-8.9 4.3-15.3 13.1-16.2 23.4C21.1 51.9 36.2 67 53.9 65.4c10.5-.9 19.3-7.5 23.5-16.6.3-.6-.4-1.3-1-.9-4.3 2.7-9.3 4.3-14.8 4.3z" style="fill: rgb(248, 178, 106);"></path></g></g><g class="ldl-layer"><g class="ldl-ani" style="transform-origin: 50px 50px; transform: scale(0.91); animation: 1.11111s linear 0s 1 normal forwards running breath-34a04e10-48af-49ce-ae4d-a0e3cffb71c7;"><path fill="#b5b5b5" d="M92.5 75.6c0 4.5-3.9 8.2-8.6 8.2h-21c.5-1.4.9-2.9.9-4.5 0-5.1-3.1-9.6-7.7-11.4.1-.8.2-1.7.2-2.5 0-1.9-.3-3.8-1-5.5 1.4-1.1 3.2-1.8 5.2-1.8.9 0 1.7.1 2.4.4 2.1-3.7 6.1-6.2 10.8-6.2 6.7 0 12.2 5.2 12.2 11.6 0 1.2-.2 2.4-.6 3.5 4.1.8 7.2 4.2 7.2 8.2zm-39.3-5.9c.4-1.3.6-2.7.6-4.2 0-1.2-.1-2.3-.4-3.4-1.5-6-7-10.5-13.5-10.5-5.3 0-9.9 3-12.3 7.4-.9-.3-1.8-.4-2.8-.4-5.1 0-9.3 4.1-9.3 9.3 0 .6.1 1.3.2 1.9-4.7.7-8.3 4.8-8.3 9.7 0 5.4 4.4 9.8 9.8 9.8h34.2c3.8 0 7.1-2.2 8.8-5.4.7-1.3 1.1-2.9 1.1-4.5.1-4.9-3.5-8.9-8.1-9.7z" style="fill: rgb(181, 181, 181);"></path></g></g><metadata xmlns:d="https://loading.io/stock/"><d:name>moon</d:name><d:tags>night,star,cloud,lunar,sky,dark,midnight,moon,weather</d:tags><d:license>pro</d:license><d:slug>ae8lkw</d:slug></metadata></g></g><style id="breath-34a04e10-48af-49ce-ae4d-a0e3cffb71c7" data-anikit="">@keyframes breath-34a04e10-48af-49ce-ae4d-a0e3cffb71c7
{
  0% {
    animation-timing-function: cubic-bezier(0.9647,0.2413,-0.0705,0.7911);
    transform: scale(0.9099999999999999);
  }
  51% {
    animation-timing-function: cubic-bezier(0.9226,0.2631,-0.0308,0.7628);
    transform: scale(1.02994);
  }
  100% {
    transform: scale(0.9099999999999999);
  }
}</style><!-- [ldio] generated by https://loading.io/ --></svg>