<?xml version="1.0" encoding="utf-8"?>
<svg xml:space="preserve" viewBox="0 0 100 100" y="0" x="0" xmlns="http://www.w3.org/2000/svg" id="圖層_1" version="1.1" style="height: 100%; width: 100%; background: none; shape-rendering: auto;" width="100px" height="100px"><g class="ldl-scale" style="transform-origin: 50% 50%; transform: rotate(0deg) scale(0.8, 0.8);"><g class="ldl-ani"><g class="ldl-layer"><g class="ldl-ani" style="transform-origin: 50px 50px; transform: scale(0.91); animation: 1.11111s linear 0.277778s 1 normal forwards running breath-be744c50-365b-401e-baad-d9b50b9417c3;"><path stroke-miterlimit="10" stroke-width="8" stroke="#333" fill="none" d="M45.7 10.2L17.6 26.4c-2.7 1.5-4.3 4.4-4.3 7.4v32.4c0 3.1 1.6 5.9 4.3 7.4l28.1 16.2c2.7 1.5 5.9 1.5 8.6 0l28.1-16.2c2.7-1.5 4.3-4.4 4.3-7.4V33.8c0-3.1-1.6-5.9-4.3-7.4L54.3 10.2c-2.7-1.6-5.9-1.6-8.6 0z" style="stroke: rgb(51, 51, 51);"></path></g></g><g class="ldl-layer"><g class="ldl-ani"><g><g class="ldl-layer"><g class="ldl-ani" style="transform-origin: 50px 50px; transform: scale(0.91); animation: 1.11111s linear 0s 1 normal forwards running breath-be744c50-365b-401e-baad-d9b50b9417c3;"><path d="M43.7 69.4L25 47.7l3.9-3.9 14.8 12.6 28.6-25.8 2.7 2.7z" fill="#abbd81" style="fill: rgb(171, 189, 129);"></path></g></g></g></g></g><metadata xmlns:d="https://loading.io/stock/"><d:name>ok</d:name><d:tags>ok,confirm,ready,positive,check,right,correct,affirmative,success,hexagon,form</d:tags><d:license>by</d:license><d:slug>pajino</d:slug></metadata></g></g><style id="breath-be744c50-365b-401e-baad-d9b50b9417c3" data-anikit="">@keyframes breath-be744c50-365b-401e-baad-d9b50b9417c3
{
  0% {
    animation-timing-function: cubic-bezier(0.9647,0.2413,-0.0705,0.7911);
    transform: scale(0.9099999999999999);
  }
  51% {
    animation-timing-function: cubic-bezier(0.9226,0.2631,-0.0308,0.7628);
    transform: scale(1.02994);
  }
  100% {
    transform: scale(0.9099999999999999);
  }
}</style><!-- [ldio] generated by https://loading.io/ --></svg>