<?xml version="1.0" encoding="utf-8"?>
<svg xml:space="preserve" viewBox="0 0 100 100" y="0" x="0" xmlns="http://www.w3.org/2000/svg" id="Layer_1" version="1.1" style="height: 100%; width: 100%; background: none; shape-rendering: auto;" width="100px" height="100px"><g class="ldl-scale" style="transform-origin: 50% 50%; transform: rotate(0deg) scale(0.8, 0.8);"><g class="ldl-ani" style="transform-origin: 50px 50px; transform: scale(0.91); animation: 1.11111s linear 0s 1 normal forwards running breath-b78dd15a-cdb8-42b9-be23-c00021e3fc35;"><g class="ldl-layer"><g class="ldl-ani" style="transform-origin: 50px 50px;"><path stroke-linejoin="round" stroke="#323232" fill="#f4e6c8" stroke-miterlimit="10" stroke-width="3.5" d="M67.635 10.141h0a6.25 6.25 0 0 0-6.25 6.25v42.133a6.25 6.25 0 0 0 6.25 6.25h0a6.25 6.25 0 0 0 6.25-6.25V16.392a6.25 6.25 0 0 0-6.25-6.251z" style="fill: rgb(244, 230, 200); stroke: rgb(50, 50, 50);"></path></g></g><g class="ldl-layer"><g class="ldl-ani" style="transform-origin: 50px 50px;"><path stroke-linejoin="round" stroke="#323232" fill="#f4e6c8" stroke-miterlimit="10" stroke-width="3.5" d="M40.202 11.14h0a6.25 6.25 0 0 0-2.288 8.538l24.255 42.011a6.25 6.25 0 0 0 8.538 2.288h0a6.25 6.25 0 0 0 2.288-8.538L48.74 13.427a6.25 6.25 0 0 0-8.538-2.287z" style="fill: rgb(244, 230, 200); stroke: rgb(50, 50, 50);"></path></g></g><g class="ldl-layer"><g class="ldl-ani" style="transform-origin: 50px 50px;"><path stroke-linejoin="round" stroke="#323232" fill="#f4e6c8" stroke-miterlimit="10" stroke-width="3.5" d="M47.005 39.922c-7.46.589-13.767 4.299-17.898 9.659-2.406 3.121-1.054 7.689 2.649 9.036l.817.297c2.378.865 5.009.075 6.593-1.898 2.115-2.634 5.299-4.428 9.051-4.646 5.719-.333 11.047 3.42 12.658 8.917 2.136 7.285-2.549 14.597-9.812 15.877-5.382.949-10.567-1.698-13.088-6.216-1.246-2.233-3.686-3.519-6.205-3.075l-.851.15c-3.936.694-5.987 5.027-4.113 8.558 4.944 9.315 15.481 14.823 26.428 12.893 14.126-2.491 23.375-16.388 19.947-30.549-2.858-11.799-14.074-19.959-26.176-19.003z" style="fill: rgb(244, 230, 200); stroke: rgb(50, 50, 50);"></path></g></g><metadata xmlns:d="https://loading.io/stock/"><d:name>okay</d:name><d:tags>okay,done,finish,right,thank you,complete,pass,correct,affirmative,roger that,success</d:tags><d:license>by</d:license><d:slug>1kef2h</d:slug></metadata></g></g><style id="breath-b78dd15a-cdb8-42b9-be23-c00021e3fc35" data-anikit="">@keyframes breath-b78dd15a-cdb8-42b9-be23-c00021e3fc35
{
  0% {
    animation-timing-function: cubic-bezier(0.9647,0.2413,-0.0705,0.7911);
    transform: scale(0.9099999999999999);
  }
  51% {
    animation-timing-function: cubic-bezier(0.9226,0.2631,-0.0308,0.7628);
    transform: scale(1.02994);
  }
  100% {
    transform: scale(0.9099999999999999);
  }
}</style><!-- [ldio] generated by https://loading.io/ --></svg>