<?xml version="1.0" encoding="utf-8"?>
<svg xml:space="preserve" viewBox="0 0 100 100" y="0" x="0" xmlns="http://www.w3.org/2000/svg" id="圖層_1" version="1.1" style="height: 100%; width: 100%; background: none; shape-rendering: auto;" width="100px" height="100px"><g class="ldl-scale" style="transform-origin: 50% 50%; transform: rotate(0deg) scale(0.8, 0.8);"><g class="ldl-ani"><g class="ldl-layer"><g class="ldl-ani" style="transform-origin: 50px 50px; transform: scale(0.91); animation: 1.11111s linear 0.444444s 1 normal forwards running breath-3d9b3db1-c34a-4b96-8bea-4935cc2eba7e;"><path fill="#d1d1d1" d="M89.445 70.714c-1.924-.862-4.965-1.511-7.072-1.511h-9.819c2.23-1.077 4.186-2.835 5.243-4.904l7.541-14.758c1.105-2.161 1.107-4.432.007-6.23s-3.124-2.829-5.551-2.829h-5.209l7.73-11.328a5.7 5.7 0 0 0-1.494-7.913 5.693 5.693 0 0 0-7.914 1.493L60.994 40.191c-.079.115-.146.235-.215.353a3.337 3.337 0 0 0-.625-.064H47.898a3.3 3.3 0 0 0-1.992.669v-.68l-.001-1.827-.003-.15c0-5.62-4.403-10.372-4.904-10.896-.209-.22-.516-.917-.537-1.2v-8.671c.711-.839 1.202-2.137 1.202-4.021 0-2.92-2.52-5.295-5.618-5.295h-6.319c-3.098 0-5.617 2.375-5.617 5.295 0 1.884.491 3.182 1.202 4.021v8.648c-.022.306-.329 1.004-.538 1.224-.502.524-4.904 5.276-4.904 10.896 0 0-.003.098-.003.148l-.001 26.399c0 1.688.846 3.191 2.156 4.161h-4.393c-2.108 0-5.148.649-7.072 1.511-1.478.663-3.056 2.488-3.056 5.63 0 3.141 1.578 4.967 3.055 5.628 1.924.862 4.965 1.511 7.072 1.511h3.54l-.336.37c-1.426 1.572-1.844 3.49-1.118 5.129.724 1.635 2.416 2.611 4.524 2.611l4.048-.034c2.56-.021 5.683-1.398 7.427-3.273l3.416-3.674c.491-.528 1.872-1.13 2.592-1.13h16.6c.72 0 2.101.602 2.591 1.129l3.338 3.592c1.743 1.875 4.867 3.252 7.427 3.273l4.048.034c2.109 0 3.8-.976 4.525-2.611.726-1.639.308-3.556-1.118-5.128l-.261-.289h3.503c2.108 0 5.148-.649 7.073-1.511 1.477-.661 3.054-2.487 3.054-5.628 0-3.14-1.578-4.966-3.055-5.627z" style="fill: rgb(236, 217, 217);"></path></g></g><g class="ldl-layer"><g class="ldl-ani"><g><g class="ldl-layer"><g class="ldl-ani" style="transform-origin: 50px 50px; transform: scale(0.91); animation: 1.11111s linear 0.333333s 1 normal forwards running breath-3d9b3db1-c34a-4b96-8bea-4935cc2eba7e;"><path fill="#454545" d="M65.695 45.776a2.374 2.374 0 0 1-1.959-3.712L75.65 24.605a2.373 2.373 0 1 1 3.922 2.676L67.659 44.739a2.372 2.372 0 0 1-1.964 1.037z" style="fill: rgb(69, 69, 69);"></path></g></g></g></g></g><g class="ldl-layer"><g class="ldl-ani" style="transform-origin: 50px 50px; transform: scale(0.91); animation: 1.11111s linear 0.222222s 1 normal forwards running breath-3d9b3db1-c34a-4b96-8bea-4935cc2eba7e;"><path fill="#454545" d="M42.581 38.494c0-4.448-3.981-8.598-3.981-8.598-.804-.838-1.461-2.413-1.461-3.498v-8.744c0-1.086.27-1.974.601-1.974s.601-.889.601-1.974c0-1.086-1.034-1.975-2.298-1.975h-6.318c-1.263 0-2.297.889-2.297 1.975s.27 1.974.601 1.974c.331 0 .601.889.601 1.974v8.744c0 1.086-.657 2.661-1.461 3.498 0 0-3.98 4.15-3.98 8.598v.001a513.586 513.586 0 0 0-.004 1.976v24.572c0 1.086 1.034 1.975 2.297 1.975h14.806c1.264 0 2.297-.889 2.297-1.975V40.47a513.144 513.144 0 0 0-.004-1.976zm-1.739 12.448a32.025 32.025 0 0 1-14.942 0v-8.633a32.025 32.025 0 0 0 14.942 0v8.633z" style="fill: rgb(69, 69, 69);"></path></g></g><g class="ldl-layer"><g class="ldl-ani" style="transform-origin: 50px 50px; transform: scale(0.91); animation: 1.11111s linear 0.111111s 1 normal forwards running breath-3d9b3db1-c34a-4b96-8bea-4935cc2eba7e;"><path fill="#454545" d="M79.794 43.801h-8.498l-2.623 3.845a4.744 4.744 0 0 1-6.598 1.247 4.744 4.744 0 0 1-1.921-5.091H47.898V54.31h21.175c1.122 0 1.557.781.967 1.735l-2.728 4.41c-.59.955-1.992 1.736-3.113 1.736l-16.301.008v2.843c0 .702-.158 1.369-.439 1.975h20.473c2.611 0 5.721-1.903 6.909-4.228l7.541-14.758c1.188-2.327.023-4.23-2.588-4.23z" style="fill: rgb(69, 69, 69);"></path></g></g><g class="ldl-layer"><g class="ldl-ani" style="transform-origin: 50px 50px; transform: scale(0.91); animation: 1.11111s linear 0s 1 normal forwards running breath-3d9b3db1-c34a-4b96-8bea-4935cc2eba7e;"><path fill="#454545" d="M88.089 73.744c-1.5-.672-4.072-1.221-5.716-1.221H17.627c-1.644 0-4.215.55-5.716 1.221 0 0-1.091.488-1.091 2.597s1.091 2.597 1.091 2.597c1.5.672 4.072 1.221 5.716 1.221h8.046c1.644 0 2.085.996.981 2.213l-3.363 3.708c-1.104 1.218-.663 2.202.98 2.189l3.987-.034c1.644-.014 3.904-1.01 5.023-2.214l3.416-3.674c1.119-1.204 3.379-2.189 5.023-2.189h16.6c1.644 0 3.904.985 5.023 2.189l3.338 3.591c1.119 1.204 3.379 2.2 5.023 2.214l3.987.034c1.644.014 2.085-.971.981-2.188l-3.288-3.625c-1.104-1.217-.663-2.213.981-2.213h8.009c1.644 0 4.215-.55 5.716-1.221 0 0 1.091-.488 1.091-2.597-.001-2.109-1.092-2.598-1.092-2.598z" style="fill: rgb(69, 69, 69);"></path></g></g><metadata xmlns:d="https://loading.io/stock/"><d:name>picnic site</d:name><d:tags>camp,park,picnic site,map</d:tags><d:license>free</d:license><d:slug>uh1ysk</d:slug></metadata></g></g><style id="breath-3d9b3db1-c34a-4b96-8bea-4935cc2eba7e" data-anikit="">@keyframes breath-3d9b3db1-c34a-4b96-8bea-4935cc2eba7e
{
  0% {
    animation-timing-function: cubic-bezier(0.9647,0.2413,-0.0705,0.7911);
    transform: scale(0.9099999999999999);
  }
  51% {
    animation-timing-function: cubic-bezier(0.9226,0.2631,-0.0308,0.7628);
    transform: scale(1.02994);
  }
  100% {
    transform: scale(0.9099999999999999);
  }
}</style><!-- [ldio] generated by https://loading.io/ --></svg>