<?xml version="1.0" encoding="utf-8"?>
<svg xml:space="preserve" viewBox="0 0 100 100" y="0" x="0" xmlns="http://www.w3.org/2000/svg" id="Layer_1" version="1.1" style="height: 100%; width: 100%; background: none; shape-rendering: auto;" width="100px" height="100px"><g class="ldl-scale" style="transform-origin: 50% 50%; transform: rotate(0deg) scale(0.8, 0.8);"><g class="ldl-ani"><g class="ldl-layer"><g class="ldl-ani" style="transform-origin: 50px 50px; transform: scale(0.91); animation: 1.11111s linear -0.576923s 2 normal forwards running breath-13863b77-af7e-421f-b091-b8f6c2003042;"><path fill="#f47e5f" d="M18 48c0-16.6 13.4-30 30-30s30 13.4 30 30h10C88 25.9 70.1 8 48 8S8 25.9 8 48s17.9 40 40 40V78c-16.6 0-30-13.4-30-30z" style="fill: rgb(244, 126, 95);"></path></g></g><g class="ldl-layer"><g class="ldl-ani" style="transform-origin: 50px 50px; transform: scale(0.91); animation: 1.11111s linear -0.598291s 2 normal forwards running breath-13863b77-af7e-421f-b091-b8f6c2003042;"><path fill="#f7b26a" d="M48 18c-16.6 0-30 13.4-30 30s13.4 30 30 30V66.3c-.3.1-.6.2-1 .2-1.6 0-3-1.8-3-4s1.3-4 2.9-4c.4 0 .7.1 1 .3V48h30C78 31.4 64.6 18 48 18z" style="fill: rgb(247, 178, 106);"></path></g></g><g class="ldl-layer"><g class="ldl-ani" style="transform-origin: 50px 50px; transform: scale(0.91); animation: 1.11111s linear -0.619658s 2 normal forwards running breath-13863b77-af7e-421f-b091-b8f6c2003042;"><ellipse fill="#849b87" ry="4.3" rx="5.8" cy="37.9" cx="31.8" transform="rotate(-13.736 31.82 37.9)" style="fill: rgb(132, 155, 135);"></ellipse></g></g><g class="ldl-layer"><g class="ldl-ani" style="transform-origin: 50px 50px; transform: scale(0.91); animation: 1.11111s linear -0.641026s 2 normal forwards running breath-13863b77-af7e-421f-b091-b8f6c2003042;"><ellipse fill="#849b87" ry="2.7" rx="3.6" cy="43.1" cx="51.8" transform="rotate(-81.425 51.789 43.059)" style="fill: rgb(132, 155, 135);"></ellipse></g></g><g class="ldl-layer"><g class="ldl-ani" style="transform-origin: 50px 50px; transform: scale(0.91); animation: 1.11111s linear -0.662393s 2 normal forwards running breath-13863b77-af7e-421f-b091-b8f6c2003042;"><ellipse fill="#849b87" ry="1.8" rx="2.4" cy="43.3" cx="68" transform="rotate(-57.894 67.97 43.283)" style="fill: rgb(132, 155, 135);"></ellipse></g></g><g class="ldl-layer"><g class="ldl-ani" style="transform-origin: 50px 50px; transform: scale(0.91); animation: 1.11111s linear -0.683761s 2 normal forwards running breath-13863b77-af7e-421f-b091-b8f6c2003042;"><ellipse fill="#849b87" ry="2.3" rx="3.1" cy="28.3" cx="56.8" transform="rotate(-17.973 56.753 28.277)" style="fill: rgb(132, 155, 135);"></ellipse></g></g><g class="ldl-layer"><g class="ldl-ani" style="transform-origin: 50px 50px; transform: scale(0.91); animation: 1.11111s linear -0.705128s 2 normal forwards running breath-13863b77-af7e-421f-b091-b8f6c2003042;"><ellipse fill="#849b87" ry="1.8" rx="2.4" cy="33.7" cx="64.8" transform="rotate(-49.428 64.778 33.687)" style="fill: rgb(132, 155, 135);"></ellipse></g></g><g class="ldl-layer"><g class="ldl-ani" style="transform-origin: 50px 50px; transform: scale(0.91); animation: 1.11111s linear -0.726496s 2 normal forwards running breath-13863b77-af7e-421f-b091-b8f6c2003042;"><ellipse fill="#849b87" ry="1.9" rx="2.6" cy="50" cx="32.4" transform="rotate(-21.921 32.381 49.96)" style="fill: rgb(132, 155, 135);"></ellipse></g></g><g class="ldl-layer"><g class="ldl-ani" style="transform-origin: 50px 50px; transform: scale(0.91); animation: 1.11111s linear -0.747863s 2 normal forwards running breath-13863b77-af7e-421f-b091-b8f6c2003042;"><ellipse fill="#849b87" ry="2.9" rx="2.1" cy="51.5" cx="41.6" transform="rotate(-62.29 41.565 51.482)" style="fill: rgb(132, 155, 135);"></ellipse></g></g><g class="ldl-layer"><g class="ldl-ani" style="transform-origin: 50px 50px; transform: scale(0.91); animation: 1.11111s linear -0.769231s 2 normal forwards running breath-13863b77-af7e-421f-b091-b8f6c2003042;"><ellipse fill="#849b87" ry="1.8" rx="2.4" cy="64.8" cx="32.4" transform="rotate(-58.594 32.39 64.838)" style="fill: rgb(132, 155, 135);"></ellipse></g></g><g class="ldl-layer"><g class="ldl-ani" style="transform-origin: 50px 50px; transform: scale(0.91); animation: 1.11111s linear -0.790598s 2 normal forwards running breath-13863b77-af7e-421f-b091-b8f6c2003042;"><ellipse fill="#849b87" ry="3.2" rx="4.4" cy="30.7" cx="47" transform="rotate(-72.59 46.999 30.686)" style="fill: rgb(132, 155, 135);"></ellipse></g></g><g class="ldl-layer"><g class="ldl-ani" style="transform-origin: 50px 50px; transform: scale(0.91); animation: 1.11111s linear -0.811966s 2 normal forwards running breath-13863b77-af7e-421f-b091-b8f6c2003042;"><path fill="#e15c64" d="M51.9 31.4l7.3 12.4c2.5-1.9 3.1-5.8 1.2-9-1.9-3.3-5.6-4.7-8.5-3.4z" style="fill: rgb(225, 92, 100);"></path></g></g><g class="ldl-layer"><g class="ldl-ani" style="transform-origin: 50px 50px; transform: scale(0.91); animation: 1.11111s linear -0.833333s 2 normal forwards running breath-13863b77-af7e-421f-b091-b8f6c2003042;"><path fill="#e15c64" d="M27.7 62.6l8.6-5.5c-1.4-1.7-4.2-2-6.4-.6-2.2 1.5-3.2 4.1-2.2 6.1z" style="fill: rgb(225, 92, 100);"></path></g></g><g class="ldl-layer"><g class="ldl-ani" style="transform-origin: 50px 50px; transform: scale(0.91); animation: 1.11111s linear -0.854701s 2 normal forwards running breath-13863b77-af7e-421f-b091-b8f6c2003042;"><path fill="#e15c64" d="M35.5 67.7L48 74.3c1.1-2.9-.4-6.4-3.7-8.2-3.3-1.7-7.1-1-8.8 1.6z" style="fill: rgb(225, 92, 100);"></path></g></g><g class="ldl-layer"><g class="ldl-ani"><g><g class="ldl-layer"><g class="ldl-ani" style="transform-origin: 50px 50px; transform: scale(0.91); animation: 1.11111s linear -0.876068s 2 normal forwards running breath-13863b77-af7e-421f-b091-b8f6c2003042;"><path fill="#333" d="M36.3 33.7c-1.9 0-3.5-1.6-3.5-3.5s1.6-3.5 3.5-3.5 3.5 1.6 3.5 3.5-1.6 3.5-3.5 3.5zm0-5c-.8 0-1.5.7-1.5 1.5s.7 1.5 1.5 1.5 1.5-.7 1.5-1.5-.7-1.5-1.5-1.5z" style="fill: rgb(51, 51, 51);"></path></g></g></g></g></g><g class="ldl-layer"><g class="ldl-ani" style="transform-origin: 50px 50px; transform: scale(0.91); animation: 1.11111s linear -0.897436s 2 normal forwards running breath-13863b77-af7e-421f-b091-b8f6c2003042;"><path fill="#f47e5f" d="M82 52H52v40c22.1 0 40-17.9 40-40H82z" style="fill: rgb(244, 126, 95);"></path></g></g><g class="ldl-layer"><g class="ldl-ani" style="transform-origin: 50px 50px; transform: scale(0.91); animation: 1.11111s linear -0.918803s 2 normal forwards running breath-13863b77-af7e-421f-b091-b8f6c2003042;"><path fill="#f7b26a" d="M52 52v30c16.6 0 30-13.4 30-30H52z" style="fill: rgb(247, 178, 106);"></path></g></g><g class="ldl-layer"><g class="ldl-ani" style="transform-origin: 50px 50px; transform: scale(0.91); animation: 1.11111s linear -0.940171s 2 normal forwards running breath-13863b77-af7e-421f-b091-b8f6c2003042;"><circle fill="#f7b26a" r="1.5" cy="61.5" cx="60.8" style="fill: rgb(247, 178, 106);"></circle></g></g><g class="ldl-layer"><g class="ldl-ani" style="transform-origin: 50px 50px; transform: scale(0.91); animation: 1.11111s linear -0.961538s 2 normal forwards running breath-13863b77-af7e-421f-b091-b8f6c2003042;"><ellipse fill="#849b87" ry="2.1" rx="2.9" cy="55.9" cx="63.8" transform="rotate(-42.215 63.815 55.905)" style="fill: rgb(132, 155, 135);"></ellipse></g></g><g class="ldl-layer"><g class="ldl-ani" style="transform-origin: 50px 50px; transform: scale(0.91); animation: 1.11111s linear -0.982906s 2 normal forwards running breath-13863b77-af7e-421f-b091-b8f6c2003042;"><path fill="#849b87" d="M47 58.6c-1.6 0-2.9 1.8-2.9 4s1.3 4 3 4c.3 0 .7-.1 1-.2V59c-.4-.3-.8-.4-1.1-.4z" style="fill: rgb(132, 155, 135);"></path></g></g><g class="ldl-layer"><g class="ldl-ani" style="transform-origin: 50px 50px; transform: scale(0.91); animation: 1.11111s linear -1.00427s 2 normal forwards running breath-13863b77-af7e-421f-b091-b8f6c2003042;"><path fill="#849b87" d="M53.9 66.6c0-1.7-.8-3.1-1.9-3.7v7.4c1.1-.5 2-2 1.9-3.7z" style="fill: rgb(132, 155, 135);"></path></g></g><g class="ldl-layer"><g class="ldl-ani" style="transform-origin: 50px 50px; transform: scale(0.91); animation: 1.11111s linear -1.02564s 2 normal forwards running breath-13863b77-af7e-421f-b091-b8f6c2003042;"><ellipse fill="#849b87" ry="3.2" rx="4.4" cy="69.7" cx="66.4" transform="matrix(.00987 -1 1 .00987 -3.978 135.48)" style="fill: rgb(132, 155, 135);"></ellipse></g></g><g class="ldl-layer"><g class="ldl-ani" style="transform-origin: 50px 50px; transform: scale(0.91); animation: 1.11111s linear -1.04701s 2 normal forwards running breath-13863b77-af7e-421f-b091-b8f6c2003042;"><path fill="#e15c64" d="M71.7 62c2.1-1.6 2.8-4.3 1.7-6.2l-8.1 6.1c1.5 1.7 4.3 1.7 6.4.1z" style="fill: rgb(225, 92, 100);"></path></g></g><g class="ldl-layer"><g class="ldl-ani" style="transform-origin: 50px 50px; transform: scale(0.91); animation: 1.11111s linear -1.06838s 2 normal forwards running breath-13863b77-af7e-421f-b091-b8f6c2003042;"><path fill="#333" d="M60.8 65c1.9 0 3.5-1.6 3.5-3.5S62.7 58 60.8 58s-3.5 1.6-3.5 3.5 1.5 3.5 3.5 3.5zm0-5c.8 0 1.5.7 1.5 1.5s-.7 1.5-1.5 1.5-1.5-.7-1.5-1.5.6-1.5 1.5-1.5z" style="fill: rgb(51, 51, 51);"></path></g></g><g class="ldl-layer"><g class="ldl-ani"><g><g class="ldl-layer"><g class="ldl-ani" style="transform-origin: 50px 50px; transform: scale(0.91); animation: 1.11111s linear -1.08974s 2 normal forwards running breath-13863b77-af7e-421f-b091-b8f6c2003042;"><path fill="#333" d="M34.5 52.5c-1.9 0-3.5-1.6-3.5-3.5s1.6-3.5 3.5-3.5S38 47 38 49s-1.5 3.5-3.5 3.5zm0-5c-.8 0-1.5.7-1.5 1.5s.7 1.5 1.5 1.5S36 49.8 36 49s-.7-1.5-1.5-1.5z" style="fill: rgb(51, 51, 51);"></path></g></g></g></g></g><g class="ldl-layer"><g class="ldl-ani"><g><g class="ldl-layer"><g class="ldl-ani" style="transform-origin: 50px 50px; transform: scale(0.91); animation: 1.11111s linear -1.11111s 2 normal forwards running breath-13863b77-af7e-421f-b091-b8f6c2003042;"><path fill="#333" d="M72.6 43.8c-1.9 0-3.5-1.6-3.5-3.5s1.6-3.5 3.5-3.5 3.5 1.6 3.5 3.5-1.6 3.5-3.5 3.5zm0-5c-.8 0-1.5.7-1.5 1.5s.7 1.5 1.5 1.5 1.5-.7 1.5-1.5-.7-1.5-1.5-1.5z" style="fill: rgb(51, 51, 51);"></path></g></g></g></g></g><metadata xmlns:d="https://loading.io/stock/"><d:name>pizza</d:name><d:tags>pizza,pie,pancake,food,party</d:tags><d:license>by</d:license><d:slug>wvmq5k</d:slug></metadata></g></g><style id="breath-13863b77-af7e-421f-b091-b8f6c2003042" data-anikit="">@keyframes breath-13863b77-af7e-421f-b091-b8f6c2003042
{
  0% {
    animation-timing-function: cubic-bezier(0.9647,0.2413,-0.0705,0.7911);
    transform: scale(0.9099999999999999);
  }
  51% {
    animation-timing-function: cubic-bezier(0.9226,0.2631,-0.0308,0.7628);
    transform: scale(1.02994);
  }
  100% {
    transform: scale(0.9099999999999999);
  }
}</style><!-- [ldio] generated by https://loading.io/ --></svg>