<?xml version="1.0" encoding="utf-8"?>
<svg xml:space="preserve" viewBox="0 0 100 100" y="0" x="0" xmlns="http://www.w3.org/2000/svg" id="Layer_1" version="1.1" style="height: 100%; width: 100%; background: none; shape-rendering: auto;" width="100px" height="100px"><g class="ldl-scale" style="transform-origin: 50% 50%; transform: rotate(0deg) scale(0.8, 0.8);"><g class="ldl-ani" style="transform: matrix(1, 0, 0, 1, 0, 199); opacity: 0.05; transform-origin: 50px 50px; animation: 1.11111s linear 0s 1 normal forwards running slide-btt-in-fc4bb6ff-2241-46e5-bf87-864ab77fc532;"><g class="ldl-layer"><g class="ldl-ani" style="transform-origin: 50px 50px;"><path stroke-miterlimit="10" stroke-width="3.5" stroke="#333" fill="#f3e4c7" d="M21.566 30.391c0 5.987-.113 11.993.065 17.972.125 4.187.035 8.231.922 12.393 1.623 7.616 5.752 14.529 5.752 22.43v.707c0 6.809 39.86 6.809 39.86 0V30.391H21.566z" style="fill: rgb(243, 228, 199); stroke: rgb(51, 51, 51);"></path></g></g><g class="ldl-layer"><g class="ldl-ani" style="transform-origin: 50px 50px;"><path stroke-miterlimit="10" stroke-width="3.5" stroke="#333" fill="#f3e4c7" d="M27.392 18.099h0a5.826 5.826 0 0 0-5.826 5.826v14.36a5.826 5.826 0 0 0 5.826 5.826h0a5.826 5.826 0 0 0 5.826-5.826v-14.36a5.826 5.826 0 0 0-5.826-5.826z" style="fill: rgb(243, 228, 199); stroke: rgb(51, 51, 51);"></path></g></g><g class="ldl-layer"><g class="ldl-ani" style="transform-origin: 50px 50px;"><path stroke-miterlimit="10" stroke-width="3.5" stroke="#333" fill="#f3e4c7" d="M39.043 14.277h0a5.826 5.826 0 0 0-5.826 5.826v16.544a5.826 5.826 0 0 0 5.826 5.826h0a5.826 5.826 0 0 0 5.826-5.826V20.102a5.825 5.825 0 0 0-5.826-5.825z" style="fill: rgb(243, 228, 199); stroke: rgb(51, 51, 51);"></path></g></g><g class="ldl-layer"><g class="ldl-ani" style="transform-origin: 50px 50px;"><path stroke-miterlimit="10" stroke-width="3.5" stroke="#333" fill="#f3e4c7" d="M50.695 11h0a5.826 5.826 0 0 0-5.826 5.826v18.728a5.826 5.826 0 0 0 5.826 5.826h0a5.826 5.826 0 0 0 5.826-5.826V16.826A5.827 5.827 0 0 0 50.695 11z" style="fill: rgb(243, 228, 199); stroke: rgb(51, 51, 51);"></path></g></g><g class="ldl-layer"><g class="ldl-ani" style="transform-origin: 50px 50px;"><path stroke-miterlimit="10" stroke-width="3.5" stroke="#333" fill="#f3e4c7" d="M62.346 13.73h0a5.826 5.826 0 0 0-5.826 5.826V36.1a5.826 5.826 0 0 0 5.826 5.826h0a5.826 5.826 0 0 0 5.826-5.826V19.556a5.826 5.826 0 0 0-5.826-5.826z" style="fill: rgb(243, 228, 199); stroke: rgb(51, 51, 51);"></path></g></g><g class="ldl-layer"><g class="ldl-ani" style="transform-origin: 50px 50px;"><path stroke-miterlimit="10" stroke-width="3.5" stroke="#333" fill="none" d="M48.645 53.941c-3.187 5.732-4.342 12.567-3.215 19.027" style="stroke: rgb(51, 51, 51);"></path></g></g><g class="ldl-layer"><g class="ldl-ani" style="transform-origin: 50px 50px;"><path stroke-miterlimit="10" stroke-width="3.5" stroke="#333" fill="none" d="M45.484 60.978c-1.194-2.509-2.397-5.033-4.01-7.295-1.613-2.263-3.675-4.273-6.206-5.42" style="stroke: rgb(51, 51, 51);"></path></g></g><g class="ldl-layer"><g class="ldl-ani" style="transform-origin: 50px 50px;"><path d="M27.392 34.708v.792" stroke-miterlimit="10" stroke-width="3.5" stroke-linejoin="round" stroke="#fff" fill="none" stroke-linecap="round" style="stroke: rgb(255, 255, 255);"></path></g></g><g class="ldl-layer"><g class="ldl-ani" style="transform-origin: 50px 50px;"><path d="M27.392 24.25v4.792" stroke-miterlimit="10" stroke-width="3.5" stroke-linejoin="round" stroke="#fff" fill="none" stroke-linecap="round" style="stroke: rgb(255, 255, 255);"></path></g></g><g class="ldl-layer"><g class="ldl-ani" style="transform-origin: 50px 50px;"><path d="M31.321 66.514l.201.766" stroke-miterlimit="10" stroke-width="3.5" stroke-linejoin="round" stroke="#fff" fill="none" stroke-linecap="round" style="stroke: rgb(255, 255, 255);"></path></g></g><g class="ldl-layer"><g class="ldl-ani" style="transform-origin: 50px 50px;"><path d="M28.659 56.401l1.22 4.634" stroke-miterlimit="10" stroke-width="3.5" stroke-linejoin="round" stroke="#fff" fill="none" stroke-linecap="round" style="stroke: rgb(255, 255, 255);"></path></g></g><g class="ldl-layer"><g class="ldl-ani" style="transform-origin: 50px 50px;"><path d="M39.043 32.661v.792" stroke-miterlimit="10" stroke-width="3.5" stroke-linejoin="round" stroke="#fff" fill="none" stroke-linecap="round" style="stroke: rgb(255, 255, 255);"></path></g></g><g class="ldl-layer"><g class="ldl-ani" style="transform-origin: 50px 50px;"><path d="M39.043 22.203v4.793" stroke-miterlimit="10" stroke-width="3.5" stroke-linejoin="round" stroke="#fff" fill="none" stroke-linecap="round" style="stroke: rgb(255, 255, 255);"></path></g></g><g class="ldl-layer"><g class="ldl-ani" style="transform-origin: 50px 50px;"><path d="M50.305 29.083v.792" stroke-miterlimit="10" stroke-width="3.5" stroke-linejoin="round" stroke="#fff" fill="none" stroke-linecap="round" style="stroke: rgb(255, 255, 255);"></path></g></g><g class="ldl-layer"><g class="ldl-ani" style="transform-origin: 50px 50px;"><path d="M50.305 18.625v4.792" stroke-miterlimit="10" stroke-width="3.5" stroke-linejoin="round" stroke="#fff" fill="none" stroke-linecap="round" style="stroke: rgb(255, 255, 255);"></path></g></g><g class="ldl-layer"><g class="ldl-ani" style="transform-origin: 50px 50px;"><path d="M62.346 31.023v.792" stroke-miterlimit="10" stroke-width="3.5" stroke-linejoin="round" stroke="#fff" fill="none" stroke-linecap="round" style="stroke: rgb(255, 255, 255);"></path></g></g><g class="ldl-layer"><g class="ldl-ani" style="transform-origin: 50px 50px;"><path d="M62.346 20.565v4.792" stroke-miterlimit="10" stroke-width="3.5" stroke-linejoin="round" stroke="#fff" fill="none" stroke-linecap="round" style="stroke: rgb(255, 255, 255);"></path></g></g><g class="ldl-layer"><g class="ldl-ani" style="transform-origin: 50px 50px;"><path stroke-miterlimit="10" stroke-width="3.5" stroke="#333" fill="#f3e4c7" d="M68.163 84.621c0-4.372-1.143-10.096 1.962-13.611 1.643-1.86 4.056-2.634 5.726-4.402 1.501-1.589 2.498-3.668 2.498-5.879v-.274-14.287c0-5.347 1.026-12.002-2.954-16.174-3.357-3.52-7.258-3.075-11.632-3.075h-9.12a2.427 2.427 0 0 0-2.427 2.427v.774c0 5.144 4.034 9.315 9.01 9.315h8.067-.516c-7.58 0-13.725 6.353-13.725 14.189" style="fill: rgb(243, 228, 199); stroke: rgb(51, 51, 51);"></path></g></g><g class="ldl-layer"><g class="ldl-ani" style="transform-origin: 50px 50px;"><path stroke-miterlimit="10" stroke-width="3.5" stroke="#000" stroke-linejoin="round" opacity=".2" d="M78.35 60.728v-.274-14.287c0-5.347 1.026-12.002-2.954-16.174-2.184-2.29-4.6-2.899-7.225-3.047v-6.869L38.893 88.462c11.335 1.401 27.879.055 29.185-4.043l.086.203c0-.198-.005-.402-.009-.605.003-.041.011-.082.011-.123v-8.329c.264-1.696.828-3.273 1.96-4.555 1.643-1.86 4.056-2.634 5.726-4.402 1.502-1.589 2.498-3.668 2.498-5.88zM68.166 39.465v-.032h.613c-.207 0-.408.022-.613.032z" style="fill: rgb(0, 0, 0); stroke: rgb(0, 0, 0);"></path></g></g><metadata xmlns:d="https://loading.io/stock/">
<d:name>human right</d:name>
<d:tags>human right,civic power,privilege,authority,strength,fist,hand,raise,punch</d:tags>
<d:license>by</d:license>
<d:slug>5f0lwo</d:slug>
</metadata></g></g><style id="slide-btt-in-fc4bb6ff-2241-46e5-bf87-864ab77fc532" data-anikit="">@keyframes slide-btt-in-fc4bb6ff-2241-46e5-bf87-864ab77fc532
{
  0% {
    animation-timing-function: cubic-bezier(0.1006,0.3357,-0.2396,0.6703);
    transform: translate(0px,199px) rotate(0deg) scale(1,1) skewX(0deg) skewY(0deg);
    opacity: 0.05;
  }
  2% {
    animation-timing-function: cubic-bezier(0.2668,0.6542,0.5372,0.8035);
    transform: translate(0px,124.8px) rotate(0deg) scale(1,1) skewX(0deg) skewY(0deg);
    opacity: 1;
  }
  100% {
    transform: translate(0px,0px) rotate(0deg) scale(1,1) skewX(0deg) skewY(0deg);
    opacity: 1;
  }
}</style><!-- [ldio] generated by https://loading.io/ --></svg>