<?xml version="1.0" encoding="utf-8"?>
<svg viewBox="0 0 100 100" xmlns="http://www.w3.org/2000/svg" style="height: 100%; width: 100%; background: none; shape-rendering: auto;" width="100px" height="100px"><g class="ldl-scale" style="transform-origin: 50% 50%; transform: rotate(0deg) scale(0.8, 0.8);"><g class="ldl-ani"><g class="ldl-layer"><g class="ldl-ani" style="transform-origin: 50px 50px; opacity: 1; animation: 2.85714s linear -1.78571s 2 normal forwards running blink-51301d39-0b6c-480b-9954-6aa49ed9159c;"><path fill="#abbd81" d="M58.904 70c0 4.399-3.206 8.063-7.404 8.778V88.5h27.328c5.333 0 9.672-4.339 9.672-9.672V51.5H75.904V50c0-3.256-2.648-5.905-5.904-5.905S64.096 46.744 64.096 50v1.5H51.5v9.722c4.198.715 7.404 4.379 7.404 8.778z" style="fill: rgb(171, 189, 129);"></path></g></g><g class="ldl-layer"><g class="ldl-ani" style="transform-origin: 50px 50px; opacity: 1; animation: 2.85714s linear -2.14286s 2 normal forwards running blink-51301d39-0b6c-480b-9954-6aa49ed9159c;"><path fill="#e15b64" d="M70 41.095c4.398 0 8.063 3.206 8.778 7.405H88.5V21.172c0-5.333-4.339-9.672-9.672-9.672H51.5v12.595H50c-3.256 0-5.904 2.649-5.904 5.905s2.648 5.905 5.904 5.905h1.5V48.5h9.722c.716-4.199 4.38-7.405 8.778-7.405z" style="fill: rgb(225, 91, 100);"></path></g></g><g class="ldl-layer"><g class="ldl-ani" style="transform-origin: 50px 50px; opacity: 1; animation: 2.85714s linear -2.5s 2 normal forwards running blink-51301d39-0b6c-480b-9954-6aa49ed9159c;"><path fill="#77a4bd" d="M41.096 30c0-4.399 3.206-8.063 7.404-8.778V11.5H21.172c-5.333 0-9.672 4.339-9.672 9.672V48.5h12.596V50c0 3.256 2.648 5.905 5.904 5.905s5.904-2.649 5.904-5.905v-1.5H48.5v-9.722c-4.198-.715-7.404-4.379-7.404-8.778z" style="fill: rgb(119, 164, 189);"></path></g></g><g class="ldl-layer"><g class="ldl-ani" style="transform-origin: 50px 50px; opacity: 1; animation: 2.85714s linear -2.85714s 2 normal forwards running blink-51301d39-0b6c-480b-9954-6aa49ed9159c;"><path fill="#f8b26a" d="M30 58.905c-4.398 0-8.063-3.206-8.778-7.405H11.5v27.328c0 5.333 4.339 9.672 9.672 9.672H48.5V75.905H50c3.256 0 5.904-2.649 5.904-5.905S53.256 64.095 50 64.095h-1.5V51.5h-9.722c-.716 4.199-4.38 7.405-8.778 7.405z" style="fill: rgb(248, 178, 106);"></path></g></g><metadata xmlns:d="https://loading.io/stock/">
<d:name>puzzle</d:name>
<d:tags>puzzle,maze,merge,combine,solve,step,flow,infographics</d:tags>
<d:license>by</d:license>
<d:slug>acogix</d:slug>
</metadata></g></g><style id="blink-51301d39-0b6c-480b-9954-6aa49ed9159c" data-anikit="">@keyframes blink-51301d39-0b6c-480b-9954-6aa49ed9159c {
  0% { opacity: 1; }
  49.75% { opacity: 1; }
  50.25% { opacity: 0; }
  99.5% { opacity: 0; }
  100% { opacity: 1; }
}</style><!-- [ldio] generated by https://loading.io/ --></svg>