<?xml version="1.0" encoding="utf-8"?>
<svg xml:space="preserve" viewBox="0 0 100 100" y="0" x="0" xmlns="http://www.w3.org/2000/svg" id="圖層_1" version="1.1" style="height: 100%; width: 100%; background: none; shape-rendering: auto;" width="100px" height="100px"><g class="ldl-scale" style="transform-origin: 50% 50%; transform: rotate(0deg) scale(0.8, 0.8);"><g class="ldl-ani"><g class="ldl-layer"><g class="ldl-ani" style="transform-origin: 50px 50px; transform: scale(0.91); animation: 4.16667s linear -2.60417s infinite normal forwards running breath-3a33e032-950e-4428-bd3f-d2f1f1969109;"><path fill="#f5e6c8" d="M84 18.909H16.944c-2.725 0-5.667 2.261-5.667 5.177V59.03c0 2.86 2.807 5.211 5.667 5.211h46.621l.773 2.986c1.29 4.602 4.317 8.877 8.328 11.586v-14.57H84c2.917 0 4.722-2.486 4.722-5.211V24.087c0-2.869-1.853-5.178-4.722-5.178z" style="fill: rgb(245, 230, 200);"></path></g></g><g class="ldl-layer"><g class="ldl-ani"><g><g class="ldl-layer"><g class="ldl-ani" style="transform-origin: 50px 50px; transform: scale(0.91); animation: 4.16667s linear -3.125s infinite normal forwards running breath-3a33e032-950e-4428-bd3f-d2f1f1969109;"><path fill="#849b87" d="M55.957 29.435c-1.648-1.119-3.812-1.679-6.493-1.679-3.443 0-5.859.639-7.472 2.41-1.377 1.928-2.312 5.017.63 6.926.412.24 1.81.128 1.81.128.965-.162 1.691-.508 1.965-1.397.193-.627.456-1.108.789-1.444.572-.578 1.294-.865 2.167-.865.812 0 1.418.19 1.817.566.399.375.6.907.6 1.583 0 .676-.498 1.433-1.494 2.244-1.87 1.549-3.071 2.656-3.606 3.272a6.653 6.653 0 0 0-1.208 2.088c-.16.439-.272 1.717-.338 2.608-.044.594.427 1.298 1.023 1.298h4.255c.885 0 1.611-.83 1.828-1.688.079-.314.187-.796.324-1.046.326-.597 1.11-1.386 2.352-2.37 1.783-1.402 2.963-2.589 3.542-3.56.578-.971.867-1.98.867-3.025-.001-2.519-1.119-4.536-3.358-6.049z" style="fill: rgb(132, 155, 135);"></path></g></g><g class="ldl-layer"><g class="ldl-ani" style="transform-origin: 50px 50px; transform: scale(0.91); animation: 4.16667s linear -3.64583s infinite normal forwards running breath-3a33e032-950e-4428-bd3f-d2f1f1969109;"><path fill="#849b87" d="M50.964 49.064h-3.817a1.87 1.87 0 0 0-1.869 1.869v2.872a1.87 1.87 0 0 0 1.869 1.869h3.817a1.87 1.87 0 0 0 1.869-1.869v-2.872a1.87 1.87 0 0 0-1.869-1.869z" style="fill: rgb(132, 155, 135);"></path></g></g></g></g></g><g class="ldl-layer"><g class="ldl-ani" style="transform-origin: 50px 50px; transform: scale(0.91); animation: 4.16667s linear -4.16667s infinite normal forwards running breath-3a33e032-950e-4428-bd3f-d2f1f1969109;"><path fill="#333" d="M84 15.131H16.944c-4.955 0-9.444 4-9.444 8.955V59.03c0 4.955 4.489 8.989 9.444 8.989H60.7c2.117 7.556 8.188 14.296 15.744 16.848V68.02H84c4.955 0 8.5-4.034 8.5-8.989V24.087c0-4.956-3.545-8.956-8.5-8.956zm4.722 43.9c0 2.725-1.805 5.211-4.722 5.211H72.666v14.572c-4.012-2.709-7.039-6.983-8.328-11.586l-.773-2.986H16.944c-2.86 0-5.667-2.352-5.667-5.211V24.087c0-2.917 2.941-5.177 5.667-5.177H84c2.869 0 4.722 2.309 4.722 5.177v34.944z" style="fill: rgb(51, 51, 51);"></path></g></g><metadata xmlns:d="https://loading.io/stock/"><d:name>question</d:name><d:tags>ask,help,information,interrogate,question,conversation</d:tags><d:license>by</d:license><d:slug>3h0k0v</d:slug></metadata></g></g><style id="breath-3a33e032-950e-4428-bd3f-d2f1f1969109" data-anikit="">@keyframes breath-3a33e032-950e-4428-bd3f-d2f1f1969109
{
  0% {
    animation-timing-function: cubic-bezier(0.9647,0.2413,-0.0705,0.7911);
    transform: scale(0.9099999999999999);
  }
  51% {
    animation-timing-function: cubic-bezier(0.9226,0.2631,-0.0308,0.7628);
    transform: scale(1.02994);
  }
  100% {
    transform: scale(0.9099999999999999);
  }
}</style><!-- [ldio] generated by https://loading.io/ --></svg>