<?xml version="1.0" encoding="utf-8"?>
<svg xml:space="preserve" viewBox="0 0 100 100" y="0" x="0" xmlns="http://www.w3.org/2000/svg" id="圖層_1" version="1.1" style="height: 100%; width: 100%; background: none; shape-rendering: auto;" width="100px" height="100px"><g class="ldl-scale" style="transform-origin: 50% 50%; transform: rotate(0deg) scale(0.8, 0.8);"><g class="ldl-ani"><g class="ldl-layer"><g class="ldl-ani"><g><g class="ldl-layer"><g class="ldl-ani" style="transform-origin: 50px 50px; transform: scale(0.91); animation: 1.11111s linear 0.493827s 1 normal forwards running breath-2a3b91dc-6efe-47e5-83b3-0f125e68894e;"><path fill="#666" d="M62.048 38.497c-3.615-1.786-7.703-2.812-12.048-2.812s-8.433 1.026-12.048 2.812c-8.513 4.205-14.346 12.705-14.346 22.53v16.971c0 3.501 2.956 6.338 6.602 6.338h39.585c3.646 0 6.602-2.838 6.602-6.338V61.027c-.001-9.824-5.835-18.324-14.347-22.53z" style="fill: rgb(102, 102, 102);"></path></g></g><g class="ldl-layer"><g class="ldl-ani" style="transform-origin: 50px 50px; transform: scale(0.91); animation: 1.11111s linear 0.432099s 1 normal forwards running breath-2a3b91dc-6efe-47e5-83b3-0f125e68894e;"><path fill="#f5e6c8" d="M66.935 26.284c.059-.578.09-1.165.09-1.758C67.025 15.123 59.403 7.5 50 7.5c-1.779 0-3.493.275-5.105.781-.455.143-.899.31-1.337.49-.161.066-.319.138-.478.209-.299.134-.594.276-.884.426-.158.082-.317.161-.472.248-.396.221-.785.454-1.161.705-.142.095-.275.2-.414.298a15.476 15.476 0 0 0-1.798 1.477c-.176.165-.353.327-.522.5-.278.285-.546.58-.804.884-.193.227-.372.464-.553.701-.095.125-.19.249-.282.377-.185.256-.363.516-.533.782-.05.079-.097.161-.146.241a16.924 16.924 0 0 0-1.45 2.968l-.061.167a16.891 16.891 0 0 0-.854 3.49c-.1.748-.17 1.506-.17 2.281 0 9.403 7.623 17.025 17.025 17.025 8.799 0 16.036-6.675 16.93-15.237 0-.009.003-.019.004-.029z" style="fill: rgb(245, 230, 200);"></path></g></g></g></g></g><g class="ldl-layer"><g class="ldl-ani"><g><g class="ldl-layer"><g class="ldl-ani" style="transform-origin: 50px 50px; transform: scale(0.91); animation: 1.11111s linear 0.37037s 1 normal forwards running breath-2a3b91dc-6efe-47e5-83b3-0f125e68894e;"><path fill="#e0e0e0" d="M55.213 90.371l18.09-11.826c.597-.189 1.012-.818 1.012-1.535V42.406c0-1.05-.862-1.812-1.737-1.535L55.213 52.953v37.418z" style="fill: rgb(224, 224, 224);"></path></g></g><g class="ldl-layer"><g class="ldl-ani" style="transform-origin: 50px 50px; transform: scale(0.91); animation: 1.11111s linear 0.308642s 1 normal forwards running breath-2a3b91dc-6efe-47e5-83b3-0f125e68894e;"><path fill="#e0e0e0" d="M44.787 90.371l-18.09-11.826c-.597-.189-1.012-.818-1.012-1.535V42.406c0-1.05.862-1.812 1.737-1.535l17.365 12.082v37.418z" style="fill: rgb(224, 224, 224);"></path></g></g></g></g></g><g class="ldl-layer"><g class="ldl-ani"><g><g class="ldl-layer"><g class="ldl-ani" style="transform-origin: 50px 50px; transform: scale(0.91); animation: 1.11111s linear 0.246914s 1 normal forwards running breath-2a3b91dc-6efe-47e5-83b3-0f125e68894e;"><path fill="#c9c9c9" d="M55.213 90.371l23.179-9.043c.728-.187 1.233-.807 1.233-1.515v-34.16c0-1.036-1.051-1.789-2.116-1.515l-22.296 8.816v37.417z" style="fill: rgb(201, 201, 201);"></path></g></g><g class="ldl-layer"><g class="ldl-ani" style="transform-origin: 50px 50px; transform: scale(0.91); animation: 1.11111s linear 0.185185s 1 normal forwards running breath-2a3b91dc-6efe-47e5-83b3-0f125e68894e;"><path fill="#c9c9c9" d="M44.787 90.371l-23.179-9.043c-.728-.187-1.233-.807-1.233-1.515v-34.16c0-1.036 1.051-1.789 2.116-1.515l22.296 8.816v37.417z" style="fill: rgb(201, 201, 201);"></path></g></g></g></g></g><g class="ldl-layer"><g class="ldl-ani"><g><g class="ldl-layer"><g class="ldl-ani" style="transform-origin: 50px 50px; transform: scale(0.91); animation: 1.11111s linear 0.123457s 1 normal forwards running breath-2a3b91dc-6efe-47e5-83b3-0f125e68894e;"><path fill="#77a4bd" d="M52.858 92.5h-5.715a2.356 2.356 0 0 1-2.356-2.356V53.647a2.356 2.356 0 0 1 2.356-2.356h5.715a2.356 2.356 0 0 1 2.356 2.356v36.497a2.358 2.358 0 0 1-2.356 2.356z" style="fill: rgb(119, 164, 189);"></path></g></g><g class="ldl-layer"><g class="ldl-ani" style="transform-origin: 50px 50px; transform: scale(0.91); animation: 1.11111s linear 0.0617284s 1 normal forwards running breath-2a3b91dc-6efe-47e5-83b3-0f125e68894e;"><path fill="#a0c8d7" d="M55.213 90.371l24.703-6.017c.767-.187 1.299-.807 1.299-1.515V48.678c0-1.036-1.107-1.789-2.23-1.515l-23.772 5.79v37.418z" style="fill: rgb(160, 200, 215);"></path></g></g><g class="ldl-layer"><g class="ldl-ani" style="transform-origin: 50px 50px; transform: scale(0.91); animation: 1.11111s linear 0s 1 normal forwards running breath-2a3b91dc-6efe-47e5-83b3-0f125e68894e;"><path fill="#a0c8d7" d="M44.787 90.371l-24.703-6.017c-.767-.187-1.299-.807-1.299-1.515V48.678c0-1.036 1.107-1.789 2.23-1.515l23.772 5.79v37.418z" style="fill: rgb(160, 200, 215);"></path></g></g></g></g></g><metadata xmlns:d="https://loading.io/stock/"><d:name>read</d:name><d:tags>study,research,survey,course,book,school,learn,review,knowledge,read,books</d:tags><d:license>by</d:license><d:slug>1pdp1y</d:slug></metadata></g></g><style id="breath-2a3b91dc-6efe-47e5-83b3-0f125e68894e" data-anikit="">@keyframes breath-2a3b91dc-6efe-47e5-83b3-0f125e68894e
{
  0% {
    animation-timing-function: cubic-bezier(0.9647,0.2413,-0.0705,0.7911);
    transform: scale(0.9099999999999999);
  }
  51% {
    animation-timing-function: cubic-bezier(0.9226,0.2631,-0.0308,0.7628);
    transform: scale(1.02994);
  }
  100% {
    transform: scale(0.9099999999999999);
  }
}</style><!-- [ldio] generated by https://loading.io/ --></svg>