<?xml version="1.0" encoding="utf-8"?>
<svg xml:space="preserve" viewBox="0 0 100 100" y="0" x="0" xmlns="http://www.w3.org/2000/svg" id="圖層_1" version="1.1" style="height: 100%; width: 100%; background: none; shape-rendering: auto;" width="100px" height="100px"><g class="ldl-scale" style="transform-origin: 50% 50%; transform: rotate(0deg) scale(0.8, 0.8);"><g class="ldl-ani" style="transform-origin: 50px 50px; transform: rotate(0deg); animation: 2.43902s linear 0s 2 normal forwards running spin-6fe547da-5910-4bcd-8e00-e89a02c6bd30;"><g class="ldl-layer"><g class="ldl-ani" style="transform-origin: 50px 50px;"><path fill="#849b87" d="M26.7 63.7l5.7-9.9 9.9 5.7L32.8 37 8.6 40l9.9 5.7-5.8 10c-.5.9-.5 2.1 0 3l11.2 19.4c.5.9 1.5 1.5 2.6 1.5h21v-16H26.7z" style="fill: rgb(132, 155, 135);"></path></g></g><g class="ldl-layer"><g class="ldl-ani" style="transform-origin: 50px 50px;"><path fill="#f8b26a" d="M87.7 55.4L77.2 37.2l-13.9 8 10.4 18.1H62.3V51.8L47.7 71.3l14.7 19.5V79.3H74c1.1 0 2.1-.6 2.6-1.5l11.2-19.4c.5-.9.5-2.1-.1-3z" style="fill: rgb(248, 178, 106);"></path></g></g><g class="ldl-layer"><g class="ldl-ani" style="transform-origin: 50px 50px;"><path fill="#abbd81" d="M69.5 24.6l-5.8-10c-.5-.9-1.5-1.5-2.6-1.5H38.7c-1.1 0-2.1.6-2.6 1.5L25.6 32.7l13.9 8 10.4-18.1 5.7 9.9-9.9 5.7 24.2 3 9.5-22.4-9.9 5.8z" style="fill: rgb(171, 189, 129);"></path></g></g><metadata xmlns:d="https://loading.io/stock/">
<d:name>recycle</d:name>
<d:tags>arrow,refresh,environment,bin,trash,recycle,web application</d:tags>
<d:license>by</d:license>
<d:slug>eyi14q</d:slug>
</metadata></g></g><style id="spin-6fe547da-5910-4bcd-8e00-e89a02c6bd30" data-anikit="">@keyframes spin-6fe547da-5910-4bcd-8e00-e89a02c6bd30
{
  0% {
    animation-timing-function: cubic-bezier(0.5856,0.0703,0.4143,0.9297);
    transform: rotate(0deg);
  }
  100% {
    transform: rotate(360deg);
  }
}</style><!-- [ldio] generated by https://loading.io/ --></svg>