<?xml version="1.0" encoding="utf-8"?>
<svg xml:space="preserve" viewBox="0 0 100 100" y="0" x="0" xmlns="http://www.w3.org/2000/svg" id="Layer_1" version="1.1" style="height: 100%; width: 100%; background: none; shape-rendering: auto;" width="100px" height="100px"><g class="ldl-scale" style="transform-origin: 50% 50%; transform: rotate(0deg) scale(0.8, 0.8);"><g class="ldl-ani"><g class="ldl-layer"><g class="ldl-ani" style="transform-origin: 50px 50px; transform: scale(0.91); animation: 1.11111s linear 0.493827s 1 normal forwards running breath-f56f041d-bc17-4a4d-aca0-9453bed39ef2;"><path fill="#f2f2f3" d="M17.2 25.5c-.1-.8.4-1.7 1.1-2 1-.4 2.2.2 2.5 1.2-.4-1.1-.5-2.6.4-3.4.9-.8 2.8-.1 2.5 1 .2-1.2.7-2.3 1.6-3.1.6.4 1 .9 1.3 1.6.1-1 .4-2 1.2-2.5.8-.5 2.2.1 2 1.1-.2-.9.3-2 1.2-2.4s2 .1 2.5.9c.2-.8.6-1.7 1.3-2.1.8-.4 1.9.3 1.6 1.1.7-1 1.5-2 2.6-2.3.4-.1 5.5 1.5 5.5 1.7.4-1.8 3.4-2.2 4.2-.5.9-2.3 4.9-2.5 5.9-.2.9-3.2 7.3.7 9.1.5.8-.1 1.6-.2 2.3.2.7.4 1.1 1.4.6 2 .2-1 1.7-1.4 2.6-.8.9.6 1.1 1.8 1 2.8.5-.8 1.6-1.1 2.4-.7.8.4 1.2 1.5.8 2.4.5-.7 1.4-1 2.2-.6.7.3 1.2 1.3 1 2 .5-.8 1.5-1.3 2.4-1 .9.3 1.4 1.5 1 2.3.5-.8 1.7-1 2.6-.5s1.1 1.7.6 2.5c.8-.6 2-.4 2.6.3s.6 1.9-.1 2.6c.4-.6 3.1.6 3.3 1.1.3.6.2 1.4-.4 1.8.4-.5 1.2-.2 1.4.4s-.1 1.2-.4 1.7-.7 1-.7 1.6c3.2.3-2.1 5.1-2.8 5.6-2.6 2-4.7 1.9-7.7 2.6-4.7 1.2-6 7.8-10.4 10-3.8 1.9-8.3-.2-12.6-.7-5.9-.7-11.6 1.9-17.4 3.1-5.8 1.2-13 .3-15.8-5-.6-1.2-1.2-2.7-2.4-3.1-.7-.2-1.4-.1-2.1-.1-4.2-.2-7.6-9.3-7.3-13 .1-1.6 1.3-1.9 1.6-3 .4-1.4-.1-3.5.5-4.7.5-1 2.3-1 2.4.1-.6-.6-.5-1.7.1-2.3.7-.6 1.8-.4 2.3.3 0 0 0-.3-.1-.5z" style="fill: rgb(242, 242, 243);"></path></g></g><g class="ldl-layer"><g class="ldl-ani" style="transform-origin: 50px 50px; transform: scale(0.91); animation: 1.11111s linear 0.432099s 1 normal forwards running breath-f56f041d-bc17-4a4d-aca0-9453bed39ef2;"><path fill="#e0e0e0" d="M92.5 36.3v-.7h-85v.7c0 18.9 12.4 34.9 29.4 40.4V86h26.2v-9.3c17-5.4 29.4-21.5 29.4-40.4z" style="fill: rgb(224, 224, 224);"></path></g></g><g class="ldl-layer"><g class="ldl-ani" style="transform-origin: 50px 50px; transform: scale(0.91); animation: 1.11111s linear 0.37037s 1 normal forwards running breath-f56f041d-bc17-4a4d-aca0-9453bed39ef2;"><path fill="#67503b" d="M58.3 13.3c1.4.2 2.8.5 4.2.8A38 38 0 0 1 76 20.8c2.1 1.7 4.1 3.5 5.8 5.6.1.7-.9 1.2-1.6 1s-1.5-.5-2.2-.2c-.7.2-1.1 1-1.6 1.5-1.7 1.7-4.5.8-6.5-.3-2.1-1.1-4.6-2.3-6.6-1.1-.8.5-1.3 1.2-2.2 1.4-.9.2-1.9-.3-2.8-.5-2-.4-4.1.9-4.7 2.8-.2.7-.2 1.5-.6 2.1-.4.6-1.5.9-1.9.3-1.2-2.3-2.4-4.5-3.6-6.8-1.2-.3-2.4 1-2.1 2.1-.6.1-1.1.1-1.7.2-.2.8-.3 1.7-.5 2.5-2.3.7-5-1.6-4.6-4-1.5.6-3.5 0-4.4-1.4-2.6.9-5.3 1.8-7.9 2.7.7-2-2.8-3.3-2.7-5.4 0-.7.4-1.2.9-1.7 3.7-4.1 10.6-4.4 15.5-6.6 5.7-2.5 12.1-2.5 18.3-1.7z" style="fill: rgb(103, 80, 59);"></path></g></g><g class="ldl-layer"><g class="ldl-ani" style="transform-origin: 50px 50px; transform: scale(0.91); animation: 1.11111s linear 0.308642s 1 normal forwards running breath-f56f041d-bc17-4a4d-aca0-9453bed39ef2;"><path fill="#f5e169" d="M37.5 14.6c-10.9 2.9-23.1 11.7-25.9 17.5-.4.7.2 1.6 1 1.5 7.9-1.1 20.2-4 23.2-4.7.4-.1.7-.4.8-.9l2.2-12.3c0-.7-.6-1.3-1.3-1.1z" style="fill: rgb(245, 225, 105);"></path></g></g><g class="ldl-layer"><g class="ldl-ani" style="transform-origin: 50px 50px; transform: scale(0.91); animation: 1.11111s linear 0.246914s 1 normal forwards running breath-f56f041d-bc17-4a4d-aca0-9453bed39ef2;"><path fill="#4a3827" d="M63.2 20.5l-2.8-1.1c-1.2-.5-1.6-1.9-.9-2.9l1.9-2.8c.5-.7 1.3-1 2.1-.8l2 .5c1.1.3 1.7 1.4 1.4 2.5l-1.2 3.4c-.3 1.1-1.5 1.6-2.5 1.2z" style="fill: rgb(74, 56, 39);"></path></g></g><g class="ldl-layer"><g class="ldl-ani" style="transform-origin: 50px 50px; transform: scale(0.91); animation: 1.11111s linear 0.185185s 1 normal forwards running breath-f56f041d-bc17-4a4d-aca0-9453bed39ef2;"><path fill="#4a3827" d="M61.2 18l-2.6.7c-1.1.3-2.2-.4-2.3-1.4l-.3-2.9c-.1-.7.3-1.3 1-1.6l1.7-.7c.9-.4 2 0 2.4.9l1.2 2.9c.3.8-.2 1.8-1.1 2.1z" style="fill: rgb(74, 56, 39);"></path></g></g><g class="ldl-layer"><g class="ldl-ani" style="transform-origin: 50px 50px; transform: scale(0.91); animation: 1.11111s linear 0.123457s 1 normal forwards running breath-f56f041d-bc17-4a4d-aca0-9453bed39ef2;"><path fill="#4a3827" d="M48.3 23.4l-2.5-1c-1-.4-1.4-1.7-.8-2.6l1.7-2.5c.4-.6 1.1-.9 1.8-.7l1.8.4c1 .2 1.5 1.3 1.2 2.2l-1 3c-.2 1.1-1.2 1.6-2.2 1.2z" style="fill: rgb(74, 56, 39);"></path></g></g><g class="ldl-layer"><g class="ldl-ani" style="transform-origin: 50px 50px; transform: scale(0.91); animation: 1.11111s linear 0.0617284s 1 normal forwards running breath-f56f041d-bc17-4a4d-aca0-9453bed39ef2;"><path fill="#4a3827" d="M72.2 28.9l-2.4.9c-1 .4-2.1-.2-2.2-1.3l-.4-2.9c-.1-.7.2-1.3.8-1.7l1.5-.8c.8-.5 1.9-.1 2.3.8l1.3 2.8c.4.8 0 1.8-.9 2.2z" style="fill: rgb(74, 56, 39);"></path></g></g><g class="ldl-layer"><g class="ldl-ani" style="transform-origin: 50px 50px; transform: scale(0.91); animation: 1.11111s linear 0s 1 normal forwards running breath-f56f041d-bc17-4a4d-aca0-9453bed39ef2;"><path fill="#4a3827" d="M43 18.2l-1.8.1c-.7.1-1.4-.7-1.4-1.6l.1-2.4c0-.6.4-1 .8-1.2l1.2-.3c.7-.2 1.3.4 1.5 1.2l.5 2.6c.3.8-.2 1.5-.9 1.6z" style="fill: rgb(74, 56, 39);"></path></g></g><metadata xmlns:d="https://loading.io/stock/"><d:name>minced pork rice</d:name><d:tags>minced pork rice,bowl,basin,dish,pot,tableware,cutlery,food</d:tags><d:license>by</d:license><d:slug>xtl3ax</d:slug></metadata></g></g><style id="breath-f56f041d-bc17-4a4d-aca0-9453bed39ef2" data-anikit="">@keyframes breath-f56f041d-bc17-4a4d-aca0-9453bed39ef2
{
  0% {
    animation-timing-function: cubic-bezier(0.9647,0.2413,-0.0705,0.7911);
    transform: scale(0.9099999999999999);
  }
  51% {
    animation-timing-function: cubic-bezier(0.9226,0.2631,-0.0308,0.7628);
    transform: scale(1.02994);
  }
  100% {
    transform: scale(0.9099999999999999);
  }
}</style><!-- [ldio] generated by https://loading.io/ --></svg>