<?xml version="1.0" encoding="utf-8"?>
<svg xml:space="preserve" viewBox="0 0 100 100" y="0" x="0" xmlns="http://www.w3.org/2000/svg" id="圖層_1" version="1.1" style="height: 100%; width: 100%; background: none; shape-rendering: auto;" width="100px" height="100px"><g class="ldl-scale" style="transform-origin: 50% 50%; transform: rotate(0deg) scale(0.8, 0.8);"><g class="ldl-ani"><g class="ldl-layer"><g class="ldl-ani"><g><g class="ldl-layer"><g class="ldl-ani" style="transform-origin: 50px 50px; transform: scale(0.91); animation: 1.11111s linear 0.37037s 1 normal forwards running breath-3461730e-9e08-4285-9eca-314eb7e67a7b;"><path fill="#f8b26a" d="M90.9 53.9l-37 37c-2.2 2.2-5.7 2.2-7.9 0l-36.9-37c-2.2-2.2-2.2-5.7 0-7.9l37-36.9c2.2-2.2 5.7-2.2 7.9 0L90.9 46c2.1 2.2 2.1 5.8 0 7.9z" style="fill: rgb(248, 178, 106);"></path></g></g><g class="ldl-layer"><g class="ldl-ani" style="transform-origin: 50px 50px; transform: scale(0.91); animation: 1.11111s linear 0.185185s 1 normal forwards running breath-3461730e-9e08-4285-9eca-314eb7e67a7b;"><path stroke-miterlimit="10" stroke-width="3.06" stroke="#333" fill="#f8b26a" d="M87.6 52.2L52.2 87.6c-1.2 1.2-3.2 1.2-4.4 0L12.4 52.2c-1.2-1.2-1.2-3.2 0-4.4l35.4-35.4c1.2-1.2 3.2-1.2 4.4 0l35.4 35.4c1.2 1.2 1.2 3.2 0 4.4z" style="fill: rgb(248, 178, 106); stroke: rgb(51, 51, 51);"></path></g></g></g></g></g><g class="ldl-layer"><g class="ldl-ani" style="transform-origin: 50px 50px; transform: scale(0.91); animation: 1.11111s linear 0s 1 normal forwards running breath-3461730e-9e08-4285-9eca-314eb7e67a7b;"><path fill="#333" d="M60 32.3l-3.5 3.5v13.9l-14.8-8.1c-.5-.3-1.1-.4-1.7-.4-.6 0-1.2.2-1.7.5s-1 .8-1.3 1.3c-.3.5-.5 1.1-.5 1.7v23l3.5-3.5 3.5 3.5V50.6l14.8 8.1c.5.3 1.1.5 1.7.4.6 0 1.2-.2 1.7-.5s1-.8 1.3-1.3c.3-.5.5-1.1.5-1.7V35.8L60 32.3z" style="fill: rgb(51, 51, 51);"></path></g></g><metadata xmlns:d="https://loading.io/stock/">
<d:name>detour</d:name>
<d:tags>winding course,curve,crook,traffic sign,road,caution,warning,detour,transportation</d:tags>
<d:license>by</d:license>
<d:slug>f4fbfl</d:slug>
</metadata></g></g><style id="breath-3461730e-9e08-4285-9eca-314eb7e67a7b" data-anikit="">@keyframes breath-3461730e-9e08-4285-9eca-314eb7e67a7b
{
  0% {
    animation-timing-function: cubic-bezier(0.9647,0.2413,-0.0705,0.7911);
    transform: scale(0.9099999999999999);
  }
  51% {
    animation-timing-function: cubic-bezier(0.9226,0.2631,-0.0308,0.7628);
    transform: scale(1.02994);
  }
  100% {
    transform: scale(0.9099999999999999);
  }
}</style><!-- [ldio] generated by https://loading.io/ --></svg>