<?xml version="1.0" encoding="utf-8"?>
<svg xml:space="preserve" viewBox="0 0 100 100" y="0" x="0" xmlns="http://www.w3.org/2000/svg" id="圖層_1" version="1.1" style="height: 100%; width: 100%; background: none; shape-rendering: auto;" width="100px" height="100px"><g class="ldl-scale" style="transform-origin: 50% 50%; transform: rotate(0deg) scale(0.8, 0.8);"><g class="ldl-ani"><g class="ldl-layer"><g class="ldl-ani" style="transform-origin: 50px 50px; transform: scale(0.91); animation: 1.11111s linear 0.493827s 1 normal forwards running breath-ff9d1979-be83-4be2-b839-96149bfa3432;"><path stroke="#333" fill="#e0e0e0" stroke-miterlimit="10" stroke-width="3.5" d="M64.8 59.4H35.2V41.2c0-6.3 5.1-11.4 11.4-11.4h6.8c6.3 0 11.4 5.1 11.4 11.4v18.2z" style="fill: rgb(224, 224, 224); stroke: rgb(51, 51, 51);"></path></g></g><g class="ldl-layer"><g class="ldl-ani" style="transform-origin: 50px 50px; transform: scale(0.91); animation: 1.11111s linear 0.432099s 1 normal forwards running breath-ff9d1979-be83-4be2-b839-96149bfa3432;"><path stroke-miterlimit="10" stroke-width="3.5" stroke="#000" stroke-linejoin="round" opacity=".2" d="M55.7 30.1l-3.6 29.3h12.7V41.2c0-5.5-3.9-10-9.1-11.1z" style="fill: rgb(0, 0, 0); stroke: rgb(0, 0, 0);"></path></g></g><g class="ldl-layer"><g class="ldl-ani" style="transform-origin: 50px 50px; transform: scale(0.91); animation: 1.11111s linear 0.37037s 1 normal forwards running breath-ff9d1979-be83-4be2-b839-96149bfa3432;"><path stroke-miterlimit="10" stroke-width="3.5" stroke="#333" fill="#abbd80" d="M68.8 89H31.2c-1.4 0-2.5-1.1-2.5-2.5V50.2h42.6v36.3c0 1.4-1.1 2.5-2.5 2.5z" style="fill: rgb(171, 189, 128); stroke: rgb(51, 51, 51);"></path></g></g><g class="ldl-layer"><g class="ldl-ani" style="transform-origin: 50px 50px; transform: scale(0.91); animation: 1.11111s linear 0.308642s 1 normal forwards running breath-ff9d1979-be83-4be2-b839-96149bfa3432;"><path stroke-miterlimit="10" stroke-width="3.5" stroke="#333" fill="#839a86" d="M73.8 54.8H26.2c-1.2 0-2.2-1-2.2-2.2v-3.8c0-1.2 1-2.2 2.2-2.2h47.6c1.2 0 2.2 1 2.2 2.2v3.8c-.1 1.2-1 2.2-2.2 2.2z" style="fill: rgb(131, 154, 134); stroke: rgb(51, 51, 51);"></path></g></g><g class="ldl-layer"><g class="ldl-ani" style="transform-origin: 50px 50px; transform: scale(0.91); animation: 1.11111s linear 0.246914s 1 normal forwards running breath-ff9d1979-be83-4be2-b839-96149bfa3432;"><circle stroke-miterlimit="10" stroke-width="3.5" stroke="#333" fill="#f3e5c7" r="11.4" cy="22.4" cx="50" style="fill: rgb(243, 229, 199); stroke: rgb(51, 51, 51);"></circle></g></g><g class="ldl-layer"><g class="ldl-ani" style="transform-origin: 50px 50px; transform: scale(0.91); animation: 1.11111s linear 0.185185s 1 normal forwards running breath-ff9d1979-be83-4be2-b839-96149bfa3432;"><path stroke-miterlimit="10" stroke-width="3.5" stroke="#000" stroke-linejoin="round" opacity=".2" d="M55.5 12.4c.8 2.5 1.2 5.3.9 8.3-.6 6-3.7 10.9-7.7 13.1.4.1.9.1 1.3.1 6.3 0 11.4-5.1 11.4-11.4 0-4.4-2.4-8.1-5.9-10.1z" style="fill: rgb(0, 0, 0); stroke: rgb(0, 0, 0);"></path></g></g><g class="ldl-layer"><g class="ldl-ani" style="transform-origin: 50px 50px; transform: scale(0.91); animation: 1.11111s linear 0.123457s 1 normal forwards running breath-ff9d1979-be83-4be2-b839-96149bfa3432;"><path stroke-miterlimit="10" stroke-width="3.5" stroke="#000" opacity=".2" d="M73.8 46.7h-14L53.1 89h15.7c1.4 0 2.5-1.1 2.5-2.5V54.8h2.5c1.2 0 2.2-1 2.2-2.2v-3.8c-.1-1.1-1-2.1-2.2-2.1z" style="fill: rgb(0, 0, 0); stroke: rgb(0, 0, 0);"></path></g></g><g class="ldl-layer"><g class="ldl-ani" style="transform-origin: 50px 50px; transform: scale(0.91); animation: 1.11111s linear 0.0617284s 1 normal forwards running breath-ff9d1979-be83-4be2-b839-96149bfa3432;"><path d="M34 60v6" stroke-miterlimit="10" stroke-width="3.5" stroke="#fff" stroke-linecap="round" fill="none" style="stroke: rgb(255, 255, 255);"></path></g></g><g class="ldl-layer"><g class="ldl-ani" style="transform-origin: 50px 50px; transform: scale(0.91); animation: 1.11111s linear 0s 1 normal forwards running breath-ff9d1979-be83-4be2-b839-96149bfa3432;"><path d="M34 71v1" stroke-miterlimit="10" stroke-width="3.5" stroke="#fff" stroke-linecap="round" fill="none" style="stroke: rgb(255, 255, 255);"></path></g></g><metadata xmlns:d="https://loading.io/stock/"><d:name>speaker</d:name><d:tags>speaker,lecture,talk,keynote,presentation,public speech,teacher,host,moderator,presenter,emcee</d:tags><d:license>by</d:license><d:slug>vtwpoi</d:slug></metadata></g></g><style id="breath-ff9d1979-be83-4be2-b839-96149bfa3432" data-anikit="">@keyframes breath-ff9d1979-be83-4be2-b839-96149bfa3432
{
  0% {
    animation-timing-function: cubic-bezier(0.9647,0.2413,-0.0705,0.7911);
    transform: scale(0.9099999999999999);
  }
  51% {
    animation-timing-function: cubic-bezier(0.9226,0.2631,-0.0308,0.7628);
    transform: scale(1.02994);
  }
  100% {
    transform: scale(0.9099999999999999);
  }
}</style><!-- [ldio] generated by https://loading.io/ --></svg>