<?xml version="1.0" encoding="utf-8"?>
<svg xml:space="preserve" viewBox="0 0 100 100" y="0" x="0" xmlns="http://www.w3.org/2000/svg" id="圖層_1" version="1.1" style="height: 100%; width: 100%; background: none; shape-rendering: auto;" width="100px" height="100px"><g class="ldl-scale" style="transform-origin: 50% 50%; transform: rotate(0deg) scale(0.8, 0.8);"><g class="ldl-ani" style="transform-origin: 50px 50px; transform: translate(0px, 0px) rotate(0deg) scale(1, 1) skewX(0deg) skewY(0deg); opacity: 1; animation: 1.11111s linear 0s 1 normal forwards running slide-ltr-4516ccd6-fdeb-4ac0-b4b1-2b5e81e79674;"><g class="ldl-layer"><g class="ldl-ani"><g><g class="ldl-layer"><g class="ldl-ani" style="transform-origin: 50px 50px;"><path fill="#a0c8d7" d="M70.5 89.375h-41a5.75 5.75 0 0 1-5.75-5.75V70c0-13.876 11.249-25.125 25.125-25.125h2.25C65.001 44.875 76.25 56.124 76.25 70v13.625a5.75 5.75 0 0 1-5.75 5.75z" style="fill: rgb(160, 200, 215);"></path></g></g><g class="ldl-layer"><g class="ldl-ani" style="transform-origin: 50px 50px;"><circle fill="#f5e6c8" r="21.25" cy="31.875" cx="50" style="fill: rgb(245, 230, 200);"></circle></g></g><g class="ldl-layer"><g class="ldl-ani" style="transform-origin: 50px 50px;"><path fill="#f5e6c8" d="M53.71 21.88C48.432 28.621 40.225 32.958 31 32.958a29.11 29.11 0 0 1-2.2-.092c.521 11.272 9.799 20.259 21.2 20.259 11.736 0 21.25-9.514 21.25-21.25 0-1.473-.151-2.911-.436-4.3A22.573 22.573 0 0 1 53.71 21.88z" style="fill: rgb(245, 230, 200);"></path></g></g><g class="ldl-layer"><g class="ldl-ani" style="transform-origin: 50px 50px;"><path fill="#4a3827" d="M58.606 12.456a28.725 28.725 0 0 1-4.896 9.423 22.579 22.579 0 0 0 17.105 5.696c-1.395-6.784-6.029-12.376-12.209-15.119z" style="fill: rgb(74, 56, 39);"></path></g></g><g class="ldl-layer"><g class="ldl-ani" style="transform-origin: 50px 50px;"><path fill="#4a3827" d="M50 10.625c-1.042 0-2.059.1-3.061.245C36.657 12.358 28.75 21.181 28.75 31.875c0 .335.035.66.05.991a29.11 29.11 0 0 0 2.2.092c9.225 0 17.432-4.338 22.71-11.079a28.735 28.735 0 0 0 4.896-9.423A21.147 21.147 0 0 0 50 10.625z" style="fill: rgb(74, 56, 39);"></path></g></g></g></g></g><g class="ldl-layer"><g class="ldl-ani"><g><g class="ldl-layer"><g class="ldl-ani" style="transform-origin: 50px 50px;"><circle stroke-miterlimit="10" stroke-width="4" stroke="#333" fill="#fff" r="14.738" cy="69.814" cx="76.293" style="fill: rgb(255, 255, 255); stroke: rgb(51, 51, 51);"></circle></g></g><g class="ldl-layer"><g class="ldl-ani" style="transform-origin: 50px 50px;"><path fill="#f8b26a" d="M76.667 62.013l2.149 4.354a.418.418 0 0 0 .314.228l4.805.698c.342.05.479.47.231.712l-3.477 3.389a.419.419 0 0 0-.12.369l.821 4.786a.417.417 0 0 1-.605.44l-4.298-2.26a.416.416 0 0 0-.388 0l-4.298 2.26a.417.417 0 0 1-.605-.44l.821-4.786a.419.419 0 0 0-.12-.369l-3.477-3.389a.417.417 0 0 1 .231-.712l4.805-.698a.418.418 0 0 0 .314-.228l2.149-4.354a.417.417 0 0 1 .748 0z" style="fill: rgb(248, 178, 106);"></path></g></g></g></g></g><metadata xmlns:d="https://loading.io/stock/">
<d:name>star</d:name>
<d:tags>star,favorite,bookmark,flag,label,tag,user,avatar,account,profile,customer,guest</d:tags>
<d:license>by</d:license>
<d:slug>vzh59j</d:slug>
</metadata></g></g><style id="slide-ltr-4516ccd6-fdeb-4ac0-b4b1-2b5e81e79674" data-anikit="">@keyframes slide-ltr-4516ccd6-fdeb-4ac0-b4b1-2b5e81e79674
{
  0% {
    animation-timing-function: cubic-bezier(0.4652,0.1051,0.774,0.6426);
    transform: translate(0px,0px) rotate(0deg) scale(1,1) skewX(0deg) skewY(0deg);
    opacity: 1;
  }
  22.5% {
    animation-timing-function: cubic-bezier(0.4142,0.3131,0.7623,0.6513);
    transform: translate(47.8px,0px) rotate(0deg) scale(1,1) skewX(0deg) skewY(0deg);
    opacity: 1;
  }
  45% {
    animation-timing-function: cubic-bezier(0.3615,0.331,0.9646,1.3461);
    transform: translate(147.8px,0px) rotate(0deg) scale(1,1) skewX(0deg) skewY(0deg);
    opacity: 1;
  }
  47.5% {
    animation-timing-function: cubic-bezier(0.7006,0.3332,0.6667,0.6667);
    transform: translate(165.6px,0px) rotate(0deg) scale(1,1) skewX(0deg) skewY(0deg);
    opacity: 0;
  }
  50% {
    animation-timing-function: cubic-bezier(0.1604,0.3176,-0.0218,0.6965);
    transform: translate(-200px,0px) rotate(0deg) scale(1,1) skewX(0deg) skewY(0deg);
    opacity: 0;
  }
  51% {
    animation-timing-function: cubic-bezier(0.1983,0.3529,0.5263,0.6945);
    transform: translate(-179.8px,0px) rotate(0deg) scale(1,1) skewX(0deg) skewY(0deg);
    opacity: 0;
  }
  80.4% {
    animation-timing-function: cubic-bezier(0.2342,0.3708,0.5422,0.9065);
    transform: translate(-38.4px,0px) rotate(0deg) scale(1,1) skewX(0deg) skewY(0deg);
    opacity: 1;
  }
  100% {
    transform: translate(0px,0px) rotate(0deg) scale(1,1) skewX(0deg) skewY(0deg);
    opacity: 1;
  }
}</style><!-- [ldio] generated by https://loading.io/ --></svg>