<?xml version="1.0" encoding="utf-8"?>
<svg xml:space="preserve" viewBox="0 0 100 100" y="0" x="0" xmlns="http://www.w3.org/2000/svg" id="Layer_1" version="1.1" style="height: 100%; width: 100%; background: none; shape-rendering: auto;" width="100px" height="100px"><g class="ldl-scale" style="transform-origin: 50% 50%; transform: rotate(0deg) scale(0.8, 0.8);"><g class="ldl-ani" style="transform-origin: 50px 50px;"><g class="ldl-layer"><g class="ldl-ani" style="transform-origin: 50px 50px; transform: matrix(0.01, 0, 0, 0.01, 0, 0); animation: 1.11111s linear 0.522876s 1 normal forwards running bounce-in-eab348b7-d084-4ef4-a55c-d8cf7a8d07ee;"><path stroke-miterlimit="10" stroke-width="3.5" stroke="#333" fill="#f47e5f" d="M27.346 81.5h-7.567a2.467 2.467 0 0 1-2.467-2.467V62.967a2.467 2.467 0 0 1 2.467-2.467h7.567a2.467 2.467 0 0 1 2.467 2.467v16.067a2.467 2.467 0 0 1-2.467 2.466z" style="fill: rgb(244, 126, 95); stroke: rgb(51, 51, 51);"></path></g></g><g class="ldl-layer"><g class="ldl-ani" style="transform-origin: 50px 50px; transform: matrix(0.01, 0, 0, 0.01, 0, 0); animation: 1.11111s linear 0.490196s 1 normal forwards running bounce-in-eab348b7-d084-4ef4-a55c-d8cf7a8d07ee;"><path stroke-miterlimit="10" stroke-width="3.5" stroke="#333" fill="#f47e5f" d="M44.971 81.5h-7.567a2.467 2.467 0 0 1-2.467-2.467V41.967a2.467 2.467 0 0 1 2.467-2.467h7.567a2.467 2.467 0 0 1 2.467 2.467v37.067a2.467 2.467 0 0 1-2.467 2.466z" style="fill: rgb(244, 126, 95); stroke: rgb(51, 51, 51);"></path></g></g><g class="ldl-layer"><g class="ldl-ani" style="transform-origin: 50px 50px; transform: matrix(0.01, 0, 0, 0.01, 0, 0); animation: 1.11111s linear 0.457516s 1 normal forwards running bounce-in-eab348b7-d084-4ef4-a55c-d8cf7a8d07ee;"><path stroke-miterlimit="10" stroke-width="3.5" stroke="#333" fill="#f47e5f" d="M62.596 81.5h-7.567a2.467 2.467 0 0 1-2.467-2.467v-30.89a2.467 2.467 0 0 1 2.467-2.467h7.567a2.467 2.467 0 0 1 2.467 2.467v30.89a2.468 2.468 0 0 1-2.467 2.467z" style="fill: rgb(244, 126, 95); stroke: rgb(51, 51, 51);"></path></g></g><g class="ldl-layer"><g class="ldl-ani" style="transform-origin: 50px 50px; transform: matrix(0.01, 0, 0, 0.01, 0, 0); animation: 1.11111s linear 0.424837s 1 normal forwards running bounce-in-eab348b7-d084-4ef4-a55c-d8cf7a8d07ee;"><path stroke-miterlimit="10" stroke-width="3.5" stroke="#333" fill="#f47e5f" d="M79.867 81.5h-6.859a2.821 2.821 0 0 1-2.821-2.821V21.321a2.821 2.821 0 0 1 2.821-2.821h6.859a2.821 2.821 0 0 1 2.821 2.821V78.68a2.821 2.821 0 0 1-2.821 2.82z" style="fill: rgb(244, 126, 95); stroke: rgb(51, 51, 51);"></path></g></g><g class="ldl-layer"><g class="ldl-ani" style="transform-origin: 50px 50px; transform: matrix(0.01, 0, 0, 0.01, 0, 0); animation: 1.11111s linear 0.392157s 1 normal forwards running bounce-in-eab348b7-d084-4ef4-a55c-d8cf7a8d07ee;"><path stroke-width="3.5" stroke-miterlimit="10" stroke="#000" opacity=".2" d="M27.346 60.5h-3a2.467 2.467 0 0 1 2.467 2.467v16.067a2.467 2.467 0 0 1-2.467 2.467h3a2.467 2.467 0 0 0 2.467-2.467V62.967a2.468 2.468 0 0 0-2.467-2.467z" style="fill: rgb(0, 0, 0); stroke: rgb(0, 0, 0);"></path></g></g><g class="ldl-layer"><g class="ldl-ani" style="transform-origin: 50px 50px; transform: matrix(0.01, 0, 0, 0.01, 0, 0); animation: 1.11111s linear 0.359477s 1 normal forwards running bounce-in-eab348b7-d084-4ef4-a55c-d8cf7a8d07ee;"><path stroke-width="3.5" stroke-miterlimit="10" stroke="#000" opacity=".2" d="M44.971 39.5h-3a2.467 2.467 0 0 1 2.467 2.467v37.067a2.467 2.467 0 0 1-2.467 2.467h3a2.467 2.467 0 0 0 2.467-2.467V41.967a2.468 2.468 0 0 0-2.467-2.467z" style="fill: rgb(0, 0, 0); stroke: rgb(0, 0, 0);"></path></g></g><g class="ldl-layer"><g class="ldl-ani" style="transform-origin: 50px 50px; transform: matrix(0.01, 0, 0, 0.01, 0, 0); animation: 1.11111s linear 0.326797s 1 normal forwards running bounce-in-eab348b7-d084-4ef4-a55c-d8cf7a8d07ee;"><path stroke-width="3.5" stroke-miterlimit="10" stroke="#000" opacity=".2" d="M62.596 45.676h-3a2.467 2.467 0 0 1 2.467 2.467v30.89a2.467 2.467 0 0 1-2.467 2.467h3a2.467 2.467 0 0 0 2.467-2.467v-30.89a2.468 2.468 0 0 0-2.467-2.467z" style="fill: rgb(0, 0, 0); stroke: rgb(0, 0, 0);"></path></g></g><g class="ldl-layer"><g class="ldl-ani" style="transform-origin: 50px 50px; transform: matrix(0.01, 0, 0, 0.01, 0, 0); animation: 1.11111s linear 0.294118s 1 normal forwards running bounce-in-eab348b7-d084-4ef4-a55c-d8cf7a8d07ee;"><path stroke-width="3.5" stroke-miterlimit="10" stroke="#000" opacity=".2" d="M79.867 18.5h-3a2.821 2.821 0 0 1 2.821 2.821V78.68a2.821 2.821 0 0 1-2.821 2.821h3a2.821 2.821 0 0 0 2.821-2.821V21.321a2.822 2.822 0 0 0-2.821-2.821z" style="fill: rgb(0, 0, 0); stroke: rgb(0, 0, 0);"></path></g></g><g class="ldl-layer"><g class="ldl-ani" style="transform-origin: 50px 50px; transform: matrix(0.01, 0, 0, 0.01, 0, 0); animation: 1.11111s linear 0.261438s 1 normal forwards running bounce-in-eab348b7-d084-4ef4-a55c-d8cf7a8d07ee;"><path d="M75 37.5v1.167" stroke-miterlimit="10" stroke-width="3.5" stroke-linecap="round" stroke="#fff" fill="none" style="stroke: rgb(255, 255, 255);"></path></g></g><g class="ldl-layer"><g class="ldl-ani" style="transform-origin: 50px 50px; transform: matrix(0.01, 0, 0, 0.01, 0, 0); animation: 1.11111s linear 0.228758s 1 normal forwards running bounce-in-eab348b7-d084-4ef4-a55c-d8cf7a8d07ee;"><path d="M75 23v9.167" stroke-miterlimit="10" stroke-width="3.5" stroke-linecap="round" stroke="#fff" fill="none" style="stroke: rgb(255, 255, 255);"></path></g></g><g class="ldl-layer"><g class="ldl-ani" style="transform-origin: 50px 50px; transform: matrix(0.01, 0, 0, 0.01, 0, 0); animation: 1.11111s linear 0.196078s 1 normal forwards running bounce-in-eab348b7-d084-4ef4-a55c-d8cf7a8d07ee;"><path d="M57 64.5v1.167" stroke-miterlimit="10" stroke-width="3.5" stroke-linecap="round" stroke="#fff" fill="none" style="stroke: rgb(255, 255, 255);"></path></g></g><g class="ldl-layer"><g class="ldl-ani" style="transform-origin: 50px 50px; transform: matrix(0.01, 0, 0, 0.01, 0, 0); animation: 1.11111s linear 0.163399s 1 normal forwards running bounce-in-eab348b7-d084-4ef4-a55c-d8cf7a8d07ee;"><path d="M57 50v9.167" stroke-miterlimit="10" stroke-width="3.5" stroke-linecap="round" stroke="#fff" fill="none" style="stroke: rgb(255, 255, 255);"></path></g></g><g class="ldl-layer"><g class="ldl-ani" style="transform-origin: 50px 50px; transform: matrix(0.01, 0, 0, 0.01, 0, 0); animation: 1.11111s linear 0.130719s 1 normal forwards running bounce-in-eab348b7-d084-4ef4-a55c-d8cf7a8d07ee;"><path d="M39.5 58.5v1.167" stroke-miterlimit="10" stroke-width="3.5" stroke-linecap="round" stroke="#fff" fill="none" style="stroke: rgb(255, 255, 255);"></path></g></g><g class="ldl-layer"><g class="ldl-ani" style="transform-origin: 50px 50px; transform: matrix(0.01, 0, 0, 0.01, 0, 0); animation: 1.11111s linear 0.0980392s 1 normal forwards running bounce-in-eab348b7-d084-4ef4-a55c-d8cf7a8d07ee;"><path d="M39.5 44v9.167" stroke-miterlimit="10" stroke-width="3.5" stroke-linecap="round" stroke="#fff" fill="none" style="stroke: rgb(255, 255, 255);"></path></g></g><g class="ldl-layer"><g class="ldl-ani" style="transform-origin: 50px 50px; transform: matrix(0.01, 0, 0, 0.01, 0, 0); animation: 1.11111s linear 0.0653595s 1 normal forwards running bounce-in-eab348b7-d084-4ef4-a55c-d8cf7a8d07ee;"><path d="M22 73.188v.979" stroke-miterlimit="10" stroke-width="3.5" stroke-linecap="round" stroke="#fff" fill="none" style="stroke: rgb(255, 255, 255);"></path></g></g><g class="ldl-layer"><g class="ldl-ani" style="transform-origin: 50px 50px; transform: matrix(0.01, 0, 0, 0.01, 0, 0); animation: 1.11111s linear 0.0326797s 1 normal forwards running bounce-in-eab348b7-d084-4ef4-a55c-d8cf7a8d07ee;"><path d="M22 65v3.125" stroke-miterlimit="10" stroke-width="3.5" stroke-linecap="round" stroke="#fff" fill="none" style="stroke: rgb(255, 255, 255);"></path></g></g><g class="ldl-layer"><g class="ldl-ani" style="transform-origin: 50px 50px; transform: matrix(0.01, 0, 0, 0.01, 0, 0); animation: 1.11111s linear 0s 1 normal forwards running bounce-in-eab348b7-d084-4ef4-a55c-d8cf7a8d07ee;"><path stroke-miterlimit="10" stroke-width="3.5" stroke-linecap="round" stroke="#333" fill="none" d="M10 78.485c4.481.244 8.588-2.438 11.497-5.623 2.909-3.186 5.018-6.956 7.989-10.091 2.971-3.135 7.215-5.686 11.675-5.213 7.249.769 11.205 8.714 18.095 10.951 5.157 1.674 10.835-.198 15.683-2.539 4.848-2.341 9.626-5.233 15.06-5.73" style="stroke: rgb(51, 51, 51);"></path></g></g><metadata xmlns:d="https://loading.io/stock/">
<d:name>statistics</d:name>
<d:tags>statistics,chart,data visualization,mathematics,calculus,probability,census,data</d:tags>
<d:license>by</d:license>
<d:slug>444aav</d:slug>
</metadata></g></g><style id="bounce-in-eab348b7-d084-4ef4-a55c-d8cf7a8d07ee" data-anikit="">@keyframes bounce-in-eab348b7-d084-4ef4-a55c-d8cf7a8d07ee
{
  0% {
    animation-timing-function: cubic-bezier(0.0383,0.3388,0.0421,0.6652);
    transform: matrix(0.01,0,0,0.01,0,0);
    opacity: 1;
  }
  4.7% {
    animation-timing-function: cubic-bezier(0.3296,0.3336,0.5772,0.6672);
    transform: matrix(0.556,0,0,0.556,0,0);
    opacity: 1;
  }
  8.4% {
    animation-timing-function: cubic-bezier(0.0781,0.1617,0.0874,0.9301);
    transform: matrix(0.979,0,0,0.979,0,0);
    opacity: 1;
  }
  12.4% {
    animation-timing-function: cubic-bezier(0.8341,0.1496,0.8634,0.7673);
    transform: matrix(1.153,0,0,1.153,0,0);
    opacity: 1;
  }
  16.3% {
    animation-timing-function: cubic-bezier(0.3264,0.3332,0.5758,0.6695);
    transform: matrix(1.008,0,0,1.008,0,0);
    opacity: 1;
  }
  21.2% {
    animation-timing-function: cubic-bezier(0.0921,0.1883,0.3277,1);
    transform: matrix(0.704,0,0,0.704,0,0);
    opacity: 1;
  }
  24.5% {
    animation-timing-function: cubic-bezier(0.6905,0.0944,0.8759,0.7624);
    transform: matrix(0.626,0,0,0.626,0,0);
    opacity: 1;
  }
  27.7% {
    animation-timing-function: cubic-bezier(0.3688,0.332,0.624,0.6684);
    transform: matrix(0.704,0,0,0.704,0,0);
    opacity: 1;
  }
  32.6% {
    animation-timing-function: cubic-bezier(0.1368,0.2364,0.2451,0.9049);
    transform: matrix(0.958,0,0,0.958,0,0);
    opacity: 1;
  }
  37.4% {
    animation-timing-function: cubic-bezier(0.5936,0.0846,0.3495,1);
    transform: matrix(1.085,0,0,1.085,0,0);
    opacity: 1;
  }
  49.5% {
    animation-timing-function: cubic-bezier(0.5522,0.0981,0.3807,1);
    transform: matrix(0.802,0,0,0.802,0,0);
    opacity: 1;
  }
  62.4% {
    animation-timing-function: cubic-bezier(0.4497,0.1349,0.4911,1);
    transform: matrix(1.044,0,0,1.044,0,0);
    opacity: 1;
  }
  74.1% {
    animation-timing-function: cubic-bezier(0.429,0,0.5239,1);
    transform: matrix(0.914,0,0,0.914,0,0);
    opacity: 1;
  }
  87% {
    animation-timing-function: cubic-bezier(0.3501,0,0.6422,1);
    transform: matrix(1.013,0,0,1.013,0,0);
    opacity: 1;
  }
  95.8% {
    animation-timing-function: cubic-bezier(0.3653,0,0.6776,1);
    transform: matrix(0.992,0,0,0.992,0,0);
    opacity: 1;
  }
  100% {
    transform: matrix(1,0,0,1,0,0);
    opacity: 1;
  }
}</style><!-- [ldio] generated by https://loading.io/ --></svg>