<?xml version="1.0" encoding="utf-8"?>
<svg xml:space="preserve" viewBox="0 0 100 100" y="0" x="0" xmlns="http://www.w3.org/2000/svg" id="圖層_1" version="1.1" style="height: 100%; width: 100%; background: none; shape-rendering: auto;" width="100px" height="100px"><g class="ldl-scale" style="transform-origin: 50% 50%; transform: rotate(0deg) scale(0.8, 0.8);"><g class="ldl-ani"><g class="ldl-layer"><g class="ldl-ani"><g id="XMLID_6_"><g class="ldl-layer"><g class="ldl-ani" style="transform-origin: 50px 50px; transform: scale(0.91); animation: 3.125s linear -1.95313s infinite normal forwards running breath-56cf824c-3615-4cfe-af62-db9e9443889a;"><path d="M24.054 56.39l20.243-8.705c-.753-3.305-.874-5.631-.438-8.194.874-5.142 1.201-10.418.657-15.606-.544-5.188-2.559-10.466-6.641-13.712-2.157-1.716-4.887-2.797-7.641-2.662-4.582.225-8.425 3.72-10.709 7.699-3.521 6.135-3.628 15.488-2.708 20.568.92 5.079 2.553 11.01 5.059 16.196.708 1.464 1.433 2.95 2.178 4.416z" id="XMLID_9_" style="fill: rgb(0, 0, 0);"></path></g></g><g class="ldl-layer"><g class="ldl-ani" style="transform-origin: 50px 50px; transform: scale(0.91); animation: 3.125s linear -2.34375s infinite normal forwards running breath-56cf824c-3615-4cfe-af62-db9e9443889a;"><path d="M26.546 61.019a53.666 53.666 0 0 0 1.845 2.983c2.439 3.644 4.687 6.746 7.639 8.167 2.939 1.416 7.912.669 9.938-1.585 2.712-3.018 2.209-6.983 1.523-10.572-.521-2.727-1.134-4.856-1.817-7.218l-19.128 8.225z" id="XMLID_7_" style="fill: rgb(0, 0, 0);"></path></g></g></g></g></g><g class="ldl-layer"><g class="ldl-ani"><g id="XMLID_1_"><g class="ldl-layer"><g class="ldl-ani" style="transform-origin: 50px 50px; transform: scale(0.91); animation: 3.125s linear -2.73438s infinite normal forwards running breath-56cf824c-3615-4cfe-af62-db9e9443889a;"><path d="M77.433 75.11L56.72 67.591c.56-3.343.547-5.673-.036-8.206-1.17-5.083-1.802-10.331-1.559-15.542.243-5.21 1.949-10.596 5.837-14.073 2.055-1.838 4.717-3.075 7.474-3.1 4.587-.04 8.626 3.227 11.136 7.067 3.87 5.921 4.518 15.253 3.893 20.377-.625 5.124-1.912 11.14-4.113 16.462a248.505 248.505 0 0 1-1.919 4.534z" id="XMLID_5_" style="fill: rgb(0, 0, 0);"></path></g></g><g class="ldl-layer"><g class="ldl-ani" style="transform-origin: 50px 50px; transform: scale(0.91); animation: 3.125s linear -3.125s infinite normal forwards running breath-56cf824c-3615-4cfe-af62-db9e9443889a;"><path d="M75.213 79.876a53.584 53.584 0 0 1-1.669 3.085c-2.224 3.778-4.289 7.005-7.153 8.595-2.852 1.583-7.86 1.126-10.013-1.007-2.882-2.856-2.609-6.844-2.132-10.467.362-2.752.851-4.913 1.396-7.311l19.571 7.105z" id="XMLID_3_" style="fill: rgb(0, 0, 0);"></path></g></g></g></g></g><metadata xmlns:d="https://loading.io/stock/">
<d:name>trace</d:name>
<d:tags>footprint,travel,walk,step,direction,trace,business</d:tags>
<d:license>by</d:license>
<d:slug>x22cna</d:slug>
</metadata></g></g><style id="breath-56cf824c-3615-4cfe-af62-db9e9443889a" data-anikit="">@keyframes breath-56cf824c-3615-4cfe-af62-db9e9443889a
{
  0% {
    animation-timing-function: cubic-bezier(0.9647,0.2413,-0.0705,0.7911);
    transform: scale(0.9099999999999999);
  }
  51% {
    animation-timing-function: cubic-bezier(0.9226,0.2631,-0.0308,0.7628);
    transform: scale(1.02994);
  }
  100% {
    transform: scale(0.9099999999999999);
  }
}</style><!-- [ldio] generated by https://loading.io/ --></svg>