<?xml version="1.0" encoding="utf-8"?>
<svg viewBox="0 0 100 100" xmlns="http://www.w3.org/2000/svg" style="height: 100%; width: 100%; background: none; shape-rendering: auto;" width="100px" height="100px"><g class="ldl-scale" style="transform-origin: 50% 50%; transform: rotate(0deg) scale(0.8, 0.8);"><g class="ldl-ani"><g class="ldl-layer"><g class="ldl-ani"><g><g class="ldl-layer"><g class="ldl-ani" style="transform-origin: 50px 50px; transform: scale(0.91); animation: 1.11111s linear 0.462963s 1 normal forwards running breath-907c373d-5911-4357-bcc6-3332d0ef6379;"><path stroke-miterlimit="10" stroke-linejoin="round" stroke-linecap="round" stroke-width="3" stroke="#000" fill="none" d="M67.282 42.298l.218-3.161a2.242 2.242 0 0 0-.618-1.465l-5.797-6.08a2.24 2.24 0 0 0-1.622-.695h-3.454a1.581 1.581 0 0 1-1.581-1.581v-2.488a5.872 5.872 0 0 0 3.367-5.307v-5.997a5.823 5.823 0 0 0-5.823-5.823h-3.943a5.823 5.823 0 0 0-5.823 5.823v5.997a5.872 5.872 0 0 0 3.367 5.307v2.488c0 .873-.708 1.581-1.581 1.581h-3.454a2.24 2.24 0 0 0-1.622.695l-5.797 6.08a2.242 2.242 0 0 0-.618 1.465l.218 3.161" style="stroke: rgb(0, 0, 0);"></path></g></g><g class="ldl-layer"><g class="ldl-ani" style="transform-origin: 50px 50px; transform: scale(0.91); animation: 1.11111s linear 0.37037s 1 normal forwards running breath-907c373d-5911-4357-bcc6-3332d0ef6379;"><path d="M50 50V38" stroke-miterlimit="10" stroke-linejoin="round" stroke-linecap="round" stroke-width="3" stroke="#849b87" fill="none" style="stroke: rgb(132, 155, 135);"></path></g></g></g></g></g><g class="ldl-layer"><g class="ldl-ani"><g><g class="ldl-layer"><g class="ldl-ani" style="transform-origin: 50px 50px; transform: scale(0.91); animation: 1.11111s linear 0.277778s 1 normal forwards running breath-907c373d-5911-4357-bcc6-3332d0ef6379;"><path stroke-miterlimit="10" stroke-linejoin="round" stroke-linecap="round" stroke-width="3" stroke="#000" fill="none" d="M42.282 90.298l.218-3.161a2.242 2.242 0 0 0-.618-1.465l-5.797-6.08a2.24 2.24 0 0 0-1.622-.695h-3.454a1.581 1.581 0 0 1-1.581-1.581v-2.488a5.872 5.872 0 0 0 3.367-5.307v-5.997a5.823 5.823 0 0 0-5.823-5.823h-3.943a5.823 5.823 0 0 0-5.823 5.823v5.997a5.872 5.872 0 0 0 3.367 5.307v2.488c0 .873-.708 1.581-1.581 1.581h-3.454a2.24 2.24 0 0 0-1.622.695l-5.797 6.08a2.24 2.24 0 0 0-.619 1.465l.218 3.161" style="stroke: rgb(0, 0, 0);"></path></g></g><g class="ldl-layer"><g class="ldl-ani" style="transform-origin: 50px 50px; transform: scale(0.91); animation: 1.11111s linear 0.185185s 1 normal forwards running breath-907c373d-5911-4357-bcc6-3332d0ef6379;"><path d="M50 50l-10.392 6" stroke-miterlimit="10" stroke-linejoin="round" stroke-linecap="round" stroke-width="3" stroke="#849b87" fill="none" style="stroke: rgb(132, 155, 135);"></path></g></g></g></g></g><g class="ldl-layer"><g class="ldl-ani"><g><g class="ldl-layer"><g class="ldl-ani" style="transform-origin: 50px 50px; transform: scale(0.91); animation: 1.11111s linear 0.0925926s 1 normal forwards running breath-907c373d-5911-4357-bcc6-3332d0ef6379;"><path stroke-miterlimit="10" stroke-linejoin="round" stroke-linecap="round" stroke-width="3" stroke="#000" fill="none" d="M56.718 90.298l-.218-3.161c.02-.547.24-1.069.618-1.465l5.797-6.08a2.24 2.24 0 0 1 1.622-.695h3.454c.873 0 1.581-.708 1.581-1.581v-2.488a5.872 5.872 0 0 1-3.367-5.307v-5.997a5.823 5.823 0 0 1 5.823-5.823h3.943a5.823 5.823 0 0 1 5.823 5.823v5.997a5.872 5.872 0 0 1-3.367 5.307v2.488c0 .873.708 1.581 1.581 1.581h3.454a2.24 2.24 0 0 1 1.622.695l5.797 6.08c.378.396.598.918.618 1.465l-.218 3.161" style="stroke: rgb(0, 0, 0);"></path></g></g><g class="ldl-layer"><g class="ldl-ani" style="transform-origin: 50px 50px; transform: scale(0.91); animation: 1.11111s linear 0s 1 normal forwards running breath-907c373d-5911-4357-bcc6-3332d0ef6379;"><path d="M50 50l10.392 6" stroke-miterlimit="10" stroke-linejoin="round" stroke-linecap="round" stroke-width="3" stroke="#849b87" fill="none" style="stroke: rgb(132, 155, 135);"></path></g></g></g></g></g><metadata xmlns:d="https://loading.io/stock/">
<d:name>network</d:name>
<d:tags>network,share,community,connection,social network,group,team,taskforce,crew,staff</d:tags>
<d:license>by</d:license>
<d:slug>g4yp58</d:slug>
</metadata></g></g><style id="breath-907c373d-5911-4357-bcc6-3332d0ef6379" data-anikit="">@keyframes breath-907c373d-5911-4357-bcc6-3332d0ef6379
{
  0% {
    animation-timing-function: cubic-bezier(0.9647,0.2413,-0.0705,0.7911);
    transform: scale(0.9099999999999999);
  }
  51% {
    animation-timing-function: cubic-bezier(0.9226,0.2631,-0.0308,0.7628);
    transform: scale(1.02994);
  }
  100% {
    transform: scale(0.9099999999999999);
  }
}</style><!-- [ldio] generated by https://loading.io/ --></svg>